<?xml version="1.0" encoding="UTF-8"?>
<svg xmlns="http://www.w3.org/2000/svg" xmlns:xlink="http://www.w3.org/1999/xlink" width="766.300mm" height="312.200mm" viewBox="-683.149963 43.899918 766.299988 312.200134">
    <path transform="matrix(1,0,0,-1,177.150024,616.100098)" style="stroke:#ff0000;stroke-width:0.05mm;fill:none" d="M-507.299988,344.100006L-519.200012,344.100006L-519.200012,350.100006L-531.299988,350.100006L-531.299988,344.100006L-543.200012,344.100006L-543.200012,350.100006L-555.299988,350.100006L-555.299988,344.100006L-567.200012,344.100006L-567.200012,350.100006L-579.299988,350.100006L-579.299988,344.100006L-591.200012,344.100006L-591.200012,350.100006L-603.299988,350.100006L-603.299988,344.100006L-615.200012,344.100006L-615.200012,350.100006L-627.299988,350.100006L-627.299988,344.100006L-639.200012,344.100006L-639.200012,350.100006L-651.299988,350.100006L-651.299988,344.100006L-663.200012,344.100006L-663.200012,350.100006L-675.299988,350.100006L-675.299988,344.100006L-687.200012,344.100006L-687.200012,350.100006L-699.299988,350.100006L-699.299988,344.100006L-711.200012,344.100006L-711.200012,350.100006L-723.299988,350.100006L-723.299988,344.100006L-735.200012,344.100006L-735.200012,350.100006L-747.299988,350.100006L-747.299988,344.100006L-759.200012,344.100006L-759.200012,350.100006L-771.299988,350.100006L-771.299988,344.100006L-783.200012,344.100006L-783.200012,350.100006L-795.299988,350.100006L-795.299988,344.100006L-807.200012,344.100006L-807.200012,350.100006L-819.299988,350.100006L-819.299988,344.100006L-831.200012,344.100006L-831.200012,350.100006L-843.299988,350.100006L-843.299988,344.100006L-854.299988,344.100006L-854.299988,335.100006L-860.299988,335.100006L-860.299988,323L-854.299988,323L-854.299988,311.100006L-860.299988,311.100006L-860.299988,299L-854.299988,299L-854.299988,287.100006L-860.299988,287.100006L-860.299988,275L-854.299988,275L-854.299988,266L-843.299988,266L-843.299988,260L-831.200012,260L-831.200012,266L-819.299988,266L-819.299988,260L-807.200012,260L-807.200012,266L-795.299988,266L-795.299988,260L-783.200012,260L-783.200012,266L-771.299988,266L-771.299988,260L-759.200012,260L-759.200012,266L-747.299988,266L-747.299988,260L-735.200012,260L-735.200012,266L-723.299988,266L-723.299988,260L-711.200012,260L-711.200012,266L-699.299988,266L-699.299988,260L-687.200012,260L-687.200012,266L-675.299988,266L-675.299988,260L-663.200012,260L-663.200012,266L-651.299988,266L-651.299988,260L-639.200012,260L-639.200012,266L-627.299988,266L-627.299988,260L-615.200012,260L-615.200012,266L-603.299988,266L-603.299988,260L-591.200012,260L-591.200012,266L-579.299988,266L-579.299988,260L-567.200012,260L-567.200012,266L-555.299988,266L-555.299988,260L-543.200012,260L-543.200012,266L-531.299988,266L-531.299988,260L-519.200012,260L-519.200012,266L-507.299988,266L-507.299988,260L-495.200012,260L-495.200012,266L-484.200012,266L-484.200012,275L-478.200012,275L-478.200012,287.100006L-484.200012,287.100006L-484.200012,299L-478.200012,299L-478.200012,311.100006L-484.200012,311.100006L-484.200012,323L-478.200012,323L-478.200012,335.100006L-484.200012,335.100006L-484.200012,344.100006L-495.200012,344.100006L-495.200012,350.100006L-507.299988,350.100006L-507.299988,344.100006z"/>
    <circle transform="matrix(1,0,0,-1,-340.099945,311.050049)" style="stroke:#ff0000;stroke-width:0.05mm;fill:none" r="1.75" cx="0" cy="0"/>
    <circle transform="matrix(1,0,0,-1,-644.099976,311.049988)" style="stroke:#ff0000;stroke-width:0.05mm;fill:none" r="1.75" cx="0" cy="0"/>
    <path transform="matrix(-1,0,0,1,-298.949982,-179.200089)" style="stroke:#ff0000;stroke-width:0.05mm;fill:none" d="M-17.1,437.200012L-29,437.200012L-29,443.200012L-41.099998,443.200012L-41.099998,437.200012L-53,437.200012L-53,443.200012L-65.099998,443.200012L-65.099998,437.200012L-77,437.200012L-77,443.200012L-89.099998,443.200012L-89.099998,437.200012L-101,437.200012L-101,443.200012L-113.099998,443.200012L-113.099998,437.200012L-125,437.200012L-125,443.200012L-137.100006,443.200012L-137.100006,437.200012L-149,437.200012L-149,443.200012L-161.100006,443.200012L-161.100006,437.200012L-173,437.200012L-173,443.200012L-185.100006,443.200012L-185.100006,437.200012L-197,437.200012L-197,443.200012L-209.100006,443.200012L-209.100006,437.200012L-221,437.200012L-221,443.200012L-233.100006,443.200012L-233.100006,437.200012L-245,437.200012L-245,443.200012L-257.100006,443.200012L-257.100006,437.200012L-269,437.200012L-269,443.200012L-281.100006,443.200012L-281.100006,437.200012L-293,437.200012L-293,443.200012L-305.100006,443.200012L-305.100006,437.200012L-317,437.200012L-317,443.200012L-329.100006,443.200012L-329.100006,437.200012L-341,437.200012L-341,443.200012L-353.100006,443.200012L-353.100006,437.200012L-365,437.200012L-365,443.200012L-382.100006,443.200012L-382.100006,423.100006L-376.100006,423.100006L-376.100006,411.200012L-382.100006,411.200012L-382.100006,399.100006L-376.100006,399.100006L-376.100006,387.200012L-382.100006,387.200012L-382.100006,375.100006L-376.100006,375.100006L-376.100006,363.200012L-382.100006,363.200012L-382.100006,351.100006L-376.100006,351.100006L-376.100006,339.200012L-382.100006,339.200012L-382.100006,327.100006L-376.100006,327.100006L-376.100006,315.200012L-382.100006,315.200012L-382.100006,303.100006L-376.100006,303.100006L-376.100006,291.200012L-382.100006,291.200012L-382.100006,279.100006L-376.100006,279.100006L-376.100006,267.200012L-382.100006,267.200012L-382.100006,255.100006L-376.100006,255.100006L-376.100006,243.199997L-382.100006,243.199997L-382.100006,223.100006L-365,223.100006L-365,229.100006L-353.100006,229.100006L-353.100006,223.100006L-341,223.100006L-341,229.100006L-329.100006,229.100006L-329.100006,223.100006L-317,223.100006L-317,229.100006L-305.100006,229.100006L-305.100006,223.100006L-293,223.100006L-293,229.100006L-281.100006,229.100006L-281.100006,223.100006L-269,223.100006L-269,229.100006L-257.100006,229.100006L-257.100006,223.100006L-245,223.100006L-245,229.100006L-233.100006,229.100006L-233.100006,223.100006L-221,223.100006L-221,229.100006L-209.100006,229.100006L-209.100006,223.100006L-197,223.100006L-197,229.100006L-185.100006,229.100006L-185.100006,223.100006L-173,223.100006L-173,229.100006L-161.100006,229.100006L-161.100006,223.100006L-149,223.100006L-149,229.100006L-137.100006,229.100006L-137.100006,223.100006L-125,223.100006L-125,229.100006L-113.099998,229.100006L-113.099998,223.100006L-101,223.100006L-101,229.100006L-89.099998,229.100006L-89.099998,223.100006L-77,223.100006L-77,229.100006L-65.099998,229.100006L-65.099998,223.100006L-53,223.100006L-53,229.100006L-41.099998,229.100006L-41.099998,223.100006L-29,223.100006L-29,229.100006L-17.1,229.100006L-17.1,223.100006L0,223.100006L0,243.199997L-6,243.199997L-6,255.100006L0,255.100006L0,267.200012L-6,267.200012L-6,279.100006L0,279.100006L0,291.200012L-6,291.200012L-6,303.100006L0,303.100006L0,315.200012L-6,315.200012L-6,327.100006L0,327.100006L0,339.200012L-6,339.200012L-6,351.100006L0,351.100006L0,363.200012L-6,363.200012L-6,375.100006L0,375.100006L0,387.200012L-6,387.200012L-6,399.100006L0,399.100006L0,411.200012L-6,411.200012L-6,423.100006L0,423.100006L0,443.200012L-17.1,443.200012L-17.1,437.200012z"/>
    <rect transform="matrix(-1,0,0,1,-107.899994,153.949905)" style="stroke:#ff0000;stroke-width:0.05mm;fill:none" x="-159.499985" y="-79.75" width="318.999969" height="159.5"/>
    <path transform="matrix(-1,0,0,1,-683.049988,-179.200089)" style="stroke:#ff0000;stroke-width:0.05mm;fill:none" d="M-17.1,437.200012L-29,437.200012L-29,443.200012L-41.099998,443.200012L-41.099998,437.200012L-53,437.200012L-53,443.200012L-65.099998,443.200012L-65.099998,437.200012L-77,437.200012L-77,443.200012L-89.099998,443.200012L-89.099998,437.200012L-101,437.200012L-101,443.200012L-113.099998,443.200012L-113.099998,437.200012L-125,437.200012L-125,443.200012L-137.100006,443.200012L-137.100006,437.200012L-149,437.200012L-149,443.200012L-161.100006,443.200012L-161.100006,437.200012L-173,437.200012L-173,443.200012L-185.100006,443.200012L-185.100006,437.200012L-197,437.200012L-197,443.200012L-209.100006,443.200012L-209.100006,437.200012L-221,437.200012L-221,443.200012L-233.100006,443.200012L-233.100006,437.200012L-245,437.200012L-245,443.200012L-257.100006,443.200012L-257.100006,437.200012L-269,437.200012L-269,443.200012L-281.100006,443.200012L-281.100006,437.200012L-293,437.200012L-293,443.200012L-305.100006,443.200012L-305.100006,437.200012L-317,437.200012L-317,443.200012L-329.100006,443.200012L-329.100006,437.200012L-341,437.200012L-341,443.200012L-353.100006,443.200012L-353.100006,437.200012L-365,437.200012L-365,443.200012L-382.100006,443.200012L-382.100006,423.100006L-376.100006,423.100006L-376.100006,411.200012L-382.100006,411.200012L-382.100006,399.100006L-376.100006,399.100006L-376.100006,387.200012L-382.100006,387.200012L-382.100006,375.100006L-376.100006,375.100006L-376.100006,363.200012L-382.100006,363.200012L-382.100006,351.100006L-376.100006,351.100006L-376.100006,339.200012L-382.100006,339.200012L-382.100006,327.100006L-376.100006,327.100006L-376.100006,315.200012L-382.100006,315.200012L-382.100006,303.100006L-376.100006,303.100006L-376.100006,291.200012L-382.100006,291.200012L-382.100006,279.100006L-376.100006,279.100006L-376.100006,267.200012L-382.100006,267.200012L-382.100006,255.100006L-376.100006,255.100006L-376.100006,243.199997L-382.100006,243.199997L-382.100006,223.100006L-365,223.100006L-365,229.100006L-353.100006,229.100006L-353.100006,223.100006L-341,223.100006L-341,229.100006L-329.100006,229.100006L-329.100006,223.100006L-317,223.100006L-317,229.100006L-305.100006,229.100006L-305.100006,223.100006L-293,223.100006L-293,229.100006L-281.100006,229.100006L-281.100006,223.100006L-269,223.100006L-269,229.100006L-257.100006,229.100006L-257.100006,223.100006L-245,223.100006L-245,229.100006L-233.100006,229.100006L-233.100006,223.100006L-221,223.100006L-221,229.100006L-209.100006,229.100006L-209.100006,223.100006L-197,223.100006L-197,229.100006L-185.100006,229.100006L-185.100006,223.100006L-173,223.100006L-173,229.100006L-161.100006,229.100006L-161.100006,223.100006L-149,223.100006L-149,229.100006L-137.100006,229.100006L-137.100006,223.100006L-125,223.100006L-125,229.100006L-113.099998,229.100006L-113.099998,223.100006L-101,223.100006L-101,229.100006L-89.099998,229.100006L-89.099998,223.100006L-77,223.100006L-77,229.100006L-65.099998,229.100006L-65.099998,223.100006L-53,223.100006L-53,229.100006L-41.099998,229.100006L-41.099998,223.100006L-29,223.100006L-29,229.100006L-17.1,229.100006L-17.1,223.100006L0,223.100006L0,243.199997L-6,243.199997L-6,255.100006L0,255.100006L0,267.200012L-6,267.200012L-6,279.100006L0,279.100006L0,291.200012L-6,291.200012L-6,303.100006L0,303.100006L0,315.200012L-6,315.200012L-6,327.100006L0,327.100006L0,339.200012L-6,339.200012L-6,351.100006L0,351.100006L0,363.200012L-6,363.200012L-6,375.100006L0,375.100006L0,387.200012L-6,387.200012L-6,399.100006L0,399.100006L0,411.200012L-6,411.200012L-6,423.100006L0,423.100006L0,443.200012L-17.1,443.200012L-17.1,437.200012z"/>
    <rect transform="matrix(-1,0,0,1,-492,153.949905)" style="stroke:#ff0000;stroke-width:0.05mm;fill:none" x="-159.499985" y="-79.75" width="318.999969" height="159.5"/>
    <path transform="matrix(-1,0,0,1,-777.25,-87.100006)" style="stroke:#ff0000;stroke-width:0.05mm;fill:none" d="M-507.299988,437.200012L-519.200012,437.200012L-519.200012,443.200012L-531.299988,443.200012L-531.299988,437.200012L-543.200012,437.200012L-543.200012,443.200012L-555.299988,443.200012L-555.299988,437.200012L-567.200012,437.200012L-567.200012,443.200012L-579.299988,443.200012L-579.299988,437.200012L-591.200012,437.200012L-591.200012,443.200012L-603.299988,443.200012L-603.299988,437.200012L-615.200012,437.200012L-615.200012,443.200012L-627.299988,443.200012L-627.299988,437.200012L-639.200012,437.200012L-639.200012,443.200012L-651.299988,443.200012L-651.299988,437.200012L-663.200012,437.200012L-663.200012,443.200012L-675.299988,443.200012L-675.299988,437.200012L-687.200012,437.200012L-687.200012,443.200012L-699.299988,443.200012L-699.299988,437.200012L-711.200012,437.200012L-711.200012,443.200012L-723.299988,443.200012L-723.299988,437.200012L-735.200012,437.200012L-735.200012,443.200012L-747.299988,443.200012L-747.299988,437.200012L-759.200012,437.200012L-759.200012,443.200012L-771.299988,443.200012L-771.299988,437.200012L-783.200012,437.200012L-783.200012,443.200012L-795.299988,443.200012L-795.299988,437.200012L-807.200012,437.200012L-807.200012,443.200012L-819.299988,443.200012L-819.299988,437.200012L-831.200012,437.200012L-831.200012,443.200012L-843.299988,443.200012L-843.299988,437.200012L-854.299988,437.200012L-854.299988,428.200012L-860.299988,428.200012L-860.299988,416.100006L-854.299988,416.100006L-854.299988,404.200012L-860.299988,404.200012L-860.299988,392.100006L-854.299988,392.100006L-854.299988,380.200012L-860.299988,380.200012L-860.299988,368.100006L-854.299988,368.100006L-854.299988,359.100006L-843.299988,359.100006L-843.299988,353.100006L-831.200012,353.100006L-831.200012,359.100006L-819.299988,359.100006L-819.299988,353.100006L-807.200012,353.100006L-807.200012,359.100006L-795.299988,359.100006L-795.299988,353.100006L-783.200012,353.100006L-783.200012,359.100006L-771.299988,359.100006L-771.299988,353.100006L-759.200012,353.100006L-759.200012,359.100006L-747.299988,359.100006L-747.299988,353.100006L-735.200012,353.100006L-735.200012,359.100006L-723.299988,359.100006L-723.299988,353.100006L-711.200012,353.100006L-711.200012,359.100006L-699.299988,359.100006L-699.299988,353.100006L-687.200012,353.100006L-687.200012,359.100006L-675.299988,359.100006L-675.299988,353.100006L-663.200012,353.100006L-663.200012,359.100006L-651.299988,359.100006L-651.299988,353.100006L-639.200012,353.100006L-639.200012,359.100006L-627.299988,359.100006L-627.299988,353.100006L-615.200012,353.100006L-615.200012,359.100006L-603.299988,359.100006L-603.299988,353.100006L-591.200012,353.100006L-591.200012,359.100006L-579.299988,359.100006L-579.299988,353.100006L-567.200012,353.100006L-567.200012,359.100006L-555.299988,359.100006L-555.299988,353.100006L-543.200012,353.100006L-543.200012,359.100006L-531.299988,359.100006L-531.299988,353.100006L-519.200012,353.100006L-519.200012,359.100006L-507.299988,359.100006L-507.299988,353.100006L-495.200012,353.100006L-495.200012,359.100006L-484.200012,359.100006L-484.200012,368.100006L-478.200012,368.100006L-478.200012,380.200012L-484.200012,380.200012L-484.200012,392.100006L-478.200012,392.100006L-478.200012,404.200012L-484.200012,404.200012L-484.200012,416.100006L-478.200012,416.100006L-478.200012,428.200012L-484.200012,428.200012L-484.200012,437.200012L-495.200012,437.200012L-495.200012,443.200012L-507.299988,443.200012L-507.299988,437.200012z"/>
    <circle transform="matrix(0.282222,0,0,0.282222,-70.470001,328.574982)" style="stroke:#ff0000;stroke-width:0.05mm;fill:none" r="6.200792" cx="0" cy="0"/>
    <circle transform="matrix(0.282222,0,0,0.282222,-70.470001,293.574982)" style="stroke:#ff0000;stroke-width:0.05mm;fill:none" r="6.200792" cx="0" cy="0"/>
    <circle transform="matrix(0.282222,0,0,0.282222,-145.470001,293.574982)" style="stroke:#ff0000;stroke-width:0.05mm;fill:none" r="6.200792" cx="0" cy="0"/>
    <circle transform="matrix(0.282222,0,0,0.282222,-107.970001,311.074982)" style="stroke:#ff0000;stroke-width:0.05mm;fill:none" r="35.433102" cx="0" cy="0"/>
    <circle transform="matrix(0.282222,0,0,0.282222,-145.470001,328.574982)" style="stroke:#ff0000;stroke-width:0.05mm;fill:none" r="6.200792" cx="0" cy="0"/>
    <circle transform="matrix(0.282222,0,0,0.282222,9.529999,328.574982)" style="stroke:#ff0000;stroke-width:0.05mm;fill:none" r="6.200792" cx="0" cy="0"/>
    <circle transform="matrix(0.282222,0,0,0.282222,9.529999,293.574982)" style="stroke:#ff0000;stroke-width:0.05mm;fill:none" r="6.200792" cx="0" cy="0"/>
    <circle transform="matrix(0.282222,0,0,0.282222,64.529999,293.574982)" style="stroke:#ff0000;stroke-width:0.05mm;fill:none" r="6.200792" cx="0" cy="0"/>
    <circle transform="matrix(0.282222,0,0,0.282222,64.529999,328.574982)" style="stroke:#ff0000;stroke-width:0.05mm;fill:none" r="6.200792" cx="0" cy="0"/>
    <circle transform="matrix(0.282222,0,0,0.282222,-225.470001,328.574982)" style="stroke:#ff0000;stroke-width:0.05mm;fill:none" r="6.200792" cx="0" cy="0"/>
    <circle transform="matrix(0.282222,0,0,0.282222,-280.470001,328.574982)" style="stroke:#ff0000;stroke-width:0.05mm;fill:none" r="6.200792" cx="0" cy="0"/>
    <circle transform="matrix(0.282222,0,0,0.282222,-280.470001,293.574982)" style="stroke:#ff0000;stroke-width:0.05mm;fill:none" r="6.200792" cx="0" cy="0"/>
    <circle transform="matrix(0.282222,0,0,0.282222,-225.470001,293.574982)" style="stroke:#ff0000;stroke-width:0.05mm;fill:none" r="6.200792" cx="0" cy="0"/>
    <path transform="matrix(0,-1,-1,-0,232.750046,-278.203979)" style="stroke:#ff0000;stroke-width:0.05mm;fill:none" d="M-400.200012,437.200012L-412.100006,437.200012L-412.100006,443.200012L-424.200012,443.200012L-424.200012,437.200012L-436.100006,437.200012L-436.100006,443.200012L-448.200012,443.200012L-448.200012,437.200012L-460.100006,437.200012L-460.100006,443.200012L-469.200012,443.200012L-469.200012,423.200012L-475.200012,423.200012L-475.200012,411.100006L-469.200012,411.100006L-469.200012,399.200012L-475.200012,399.200012L-475.200012,387.100006L-469.200012,387.100006L-469.200012,375.200012L-475.200012,375.200012L-475.200012,363.100006L-469.200012,363.100006L-469.200012,351.200012L-475.200012,351.200012L-475.200012,339.100006L-469.200012,339.100006L-469.200012,327.200012L-475.200012,327.200012L-475.200012,315.100006L-469.200012,315.100006L-469.200012,303.200012L-475.200012,303.200012L-475.200012,291.100006L-469.200012,291.100006L-469.200012,279.200012L-475.200012,279.200012L-475.200012,267.100006L-469.200012,267.100006L-469.200012,255.199997L-475.200012,255.199997L-475.200012,243.100006L-469.200012,243.100006L-469.200012,223.100006L-460.100006,223.100006L-460.100006,229.100006L-448.200012,229.100006L-448.200012,223.100006L-436.100006,223.100006L-436.100006,229.100006L-424.200012,229.100006L-424.200012,223.100006L-412.100006,223.100006L-412.100006,229.100006L-400.200012,229.100006L-400.200012,223.100006L-391.100006,223.100006L-391.100006,243.100006L-385.100006,243.100006L-385.100006,255.199997L-391.100006,255.199997L-391.100006,267.100006L-385.100006,267.100006L-385.100006,279.200012L-391.100006,279.200012L-391.100006,291.100006L-385.100006,291.100006L-385.100006,303.200012L-391.100006,303.200012L-391.100006,315.100006L-385.100006,315.100006L-385.100006,327.200012L-391.100006,327.200012L-391.100006,339.100006L-385.100006,339.100006L-385.100006,351.200012L-391.100006,351.200012L-391.100006,363.100006L-385.100006,363.100006L-385.100006,375.200012L-391.100006,375.200012L-391.100006,387.100006L-385.100006,387.100006L-385.100006,399.200012L-391.100006,399.200012L-391.100006,411.100006L-385.100006,411.100006L-385.100006,423.200012L-391.100006,423.200012L-391.100006,443.200012L-400.200012,443.200012L-400.200012,437.200012z"/>
    <rect transform="matrix(-0,0.282222,-0.282222,-0,-180.718964,160.971008)" style="stroke:#ff0000;stroke-width:0.05mm;fill:none" x="-28.346479" y="-23.740177" width="56.692959" height="47.480354" rx="0.354331"/>
    <circle transform="matrix(-0,0.282222,-0.282222,-0,-181.018982,138.971008)" style="stroke:#ff0000;stroke-width:0.05mm;fill:none" r="19.488205" cx="0" cy="0"/>
    <path transform="matrix(0,-1,-1,-0,235.925064,-659.379944)" style="stroke:#ff0000;stroke-width:0.05mm;fill:none" d="M-800.110413,321.428772L-799.068604,321.428772L-797.239258,315.357819C-797.152466,315.089111,-797.055298,314.750092,-796.947815,314.34082C-796.840332,313.931549,-796.784546,313.685577,-796.780396,313.602875C-796.689453,314.14859,-796.544739,314.745972,-796.346313,315.39502L-794.572754,321.428772L-793.531006,321.428772L-791.118713,312.36264L-792.234924,312.36264L-793.667419,317.962311C-793.865845,318.747803,-794.010559,319.458862,-794.101501,320.09552C-794.213135,319.338989,-794.378479,318.598969,-794.597595,317.875488L-796.22229,312.362671L-797.338501,312.362671L-799.043823,317.92511C-799.242249,318.565887,-799.409668,319.289368,-799.546143,320.09552C-799.624695,319.508484,-799.773499,318.793274,-799.992615,317.949921L-801.418884,312.362671L-802.535095,312.362671L-800.110413,321.428772z"/>
    <path transform="matrix(0,-1,-1,-0,235.925064,-659.379944)" style="stroke:#ff0000;stroke-width:0.05mm;fill:none" d="M-811.824463,316.883301C-811.824463,318.334381,-811.457581,319.475403,-810.723755,320.306366C-809.989929,321.137329,-808.969849,321.552795,-807.663452,321.552795C-806.328186,321.552795,-805.297729,321.144562,-804.572205,320.328064C-803.84668,319.511566,-803.483887,318.359192,-803.483887,316.870911C-803.483887,315.39502,-803.847717,314.250916,-804.575317,313.438568C-805.302917,312.626221,-806.336426,312.220032,-807.675903,312.220032C-808.978149,312.220032,-809.995117,312.633453,-810.726868,313.460266C-811.458618,314.287079,-811.824463,315.428101,-811.824463,316.883301z"/>
    <path transform="matrix(0,-1,-1,-0,235.925064,-659.379944)" style="stroke:#ff0000;stroke-width:0.05mm;fill:none" d="M-804.600098,316.883301C-804.600098,318.111145,-804.861572,319.042358,-805.384521,319.676941C-805.907532,320.311523,-806.667175,320.628845,-807.663452,320.628845C-808.668091,320.628845,-809.426697,320.312561,-809.939331,319.680054C-810.451904,319.047546,-810.708252,318.115295,-810.708252,316.883331C-810.708252,315.663757,-810.452942,314.738739,-809.942383,314.108307C-809.431824,313.477844,-808.676331,313.162628,-807.675903,313.162628C-806.671265,313.162628,-805.907532,313.479919,-805.384521,314.114502C-804.861572,314.749084,-804.600098,315.672028,-804.600098,316.883301z"/>
    <path transform="matrix(0,-1,-1,-0,235.925064,-659.379944)" style="stroke:#ff0000;stroke-width:0.05mm;fill:none" d="M-821.715332,316.883301C-821.715332,318.334381,-821.34845,319.475403,-820.614624,320.306366C-819.880798,321.137329,-818.860718,321.552795,-817.554321,321.552795C-816.219055,321.552795,-815.188599,321.144562,-814.463074,320.328064C-813.737549,319.511566,-813.374756,318.359192,-813.374756,316.870911C-813.374756,315.39502,-813.738586,314.250916,-814.466187,313.438568C-815.193787,312.626221,-816.227295,312.220032,-817.566772,312.220032C-818.869019,312.220032,-819.885986,312.633453,-820.617737,313.460266C-821.349487,314.287079,-821.715332,315.428101,-821.715332,316.883301z"/>
    <path transform="matrix(0,-1,-1,-0,235.925064,-659.379944)" style="stroke:#ff0000;stroke-width:0.05mm;fill:none" d="M-814.490967,316.883301C-814.490967,318.111145,-814.752441,319.042358,-815.275391,319.676941C-815.798401,320.311523,-816.558044,320.628845,-817.554321,320.628845C-818.55896,320.628845,-819.317566,320.312561,-819.8302,319.680054C-820.342773,319.047546,-820.599121,318.115295,-820.599121,316.883331C-820.599121,315.663757,-820.343811,314.738739,-819.833252,314.108307C-819.322693,313.477844,-818.5672,313.162628,-817.566772,313.162628C-816.562134,313.162628,-815.798401,313.479919,-815.275391,314.114502C-814.752441,314.749084,-814.490967,315.672028,-814.490967,316.883301z"/>
    <path transform="matrix(0,-1,-1,-0,235.925064,-659.379944)" style="stroke:#ff0000;stroke-width:0.05mm;fill:none" d="M-830.973694,316.808899C-830.973694,318.30545,-830.567505,319.449554,-829.755127,320.241241C-828.94281,321.032928,-827.773865,321.428772,-826.248413,321.428772L-823.736938,321.428772L-823.736938,312.362671L-826.515015,312.362671C-827.924744,312.362671,-829.020325,312.753326,-829.801636,313.534668C-830.583008,314.31604,-830.973694,315.40744,-830.973694,316.808899z"/>
    <path transform="matrix(0,-1,-1,-0,235.925064,-659.379944)" style="stroke:#ff0000;stroke-width:0.05mm;fill:none" d="M-829.857483,316.8461C-829.857483,315.663757,-829.560852,314.772858,-828.96759,314.173401C-828.37439,313.573944,-827.492737,313.274231,-826.322815,313.274231L-824.791138,313.274231L-824.791138,320.517212L-826.074768,320.517212C-827.331543,320.517212,-828.276184,320.208191,-828.908691,319.590118C-829.541199,318.972076,-829.857483,318.057404,-829.857483,316.8461z"/>
    <path transform="matrix(0,-1,-1,-0,235.925064,-659.379944)" style="stroke:#ff0000;stroke-width:0.05mm;fill:none" d="M-790.864502,292.362671L-791.999268,292.36264L-788.731262,301.428772L-787.689453,301.428772L-784.440063,292.36264L-785.556274,292.36264L-787.639893,298.228973C-787.879639,298.902832,-788.069824,299.558075,-788.210388,300.194733C-788.359192,299.525024,-788.553528,298.857361,-788.793274,298.191772L-790.864502,292.362671z"/>
    <path transform="matrix(0,-1,-1,-0,235.925064,-659.379944)" style="stroke:#ff0000;stroke-width:0.05mm;fill:none" d="M-800.091797,292.362671L-800.091797,298.228973C-800.091797,299.262512,-799.779663,300.07486,-799.155396,300.666046C-798.531189,301.257202,-797.67334,301.552795,-796.581909,301.552795C-795.49054,301.552795,-794.646118,301.255157,-794.048767,300.659821C-793.451355,300.064514,-793.15271,299.245972,-793.15271,298.204163L-793.15271,292.362671L-794.206909,292.362671L-794.206909,298.278595C-794.206909,299.035126,-794.413574,299.615967,-794.827026,300.021118C-795.240417,300.426239,-795.848145,300.628815,-796.650146,300.628815C-797.414978,300.628815,-798.004089,300.425232,-798.41748,300.018005C-798.830872,299.610809,-799.037598,299.026855,-799.037598,298.266174L-799.037598,292.362671L-800.091797,292.362671z"/>
    <path transform="matrix(0,-1,-1,-0,235.925064,-659.379944)" style="stroke:#ff0000;stroke-width:0.05mm;fill:none" d="M-802.491699,301.428772L-802.491699,292.362671L-803.545898,292.362671L-803.545898,300.473785L-807.545654,300.473785L-807.545654,301.428772L-802.491699,301.428772z"/>
    <path transform="matrix(0,-1,-1,-0,235.925064,-659.379944)" style="stroke:#ff0000;stroke-width:0.05mm;fill:none" d="M-811.874084,301.428772L-810.819885,301.428772L-810.819885,293.299042L-807.94873,293.299042L-807.94873,292.362671L-814.745178,292.362671L-814.745178,293.299042L-811.874084,293.299042L-811.874084,301.428772z"/>
    <path transform="matrix(0,-1,-1,-0,235.925064,-659.379944)" style="stroke:#ff0000;stroke-width:0.05mm;fill:none" d="M-822.955566,292.362671L-822.955566,298.228973C-822.955566,299.262512,-822.643433,300.07486,-822.019165,300.666046C-821.394958,301.257202,-820.537109,301.552795,-819.445679,301.552795C-818.354309,301.552795,-817.509888,301.255157,-816.912537,300.659821C-816.315125,300.064514,-816.016479,299.245972,-816.016479,298.204163L-816.016479,292.362671L-817.070679,292.362671L-817.070679,298.278595C-817.070679,299.035126,-817.277344,299.615967,-817.690796,300.021118C-818.104187,300.426239,-818.711914,300.628815,-819.513916,300.628815C-820.278748,300.628815,-820.867859,300.425232,-821.28125,300.018005C-821.694641,299.610809,-821.901367,299.026855,-821.901367,298.266174L-821.901367,292.362671L-822.955566,292.362671z"/>
    <path transform="matrix(0,-1,-1,-0,235.925064,-659.379944)" style="stroke:#ff0000;stroke-width:0.05mm;fill:none" d="M-826.409607,297.658447L-826.409607,301.428772L-825.355408,301.428772L-825.355408,292.362671L-827.842041,292.362671C-828.954102,292.362671,-829.775757,292.575562,-830.307007,293.001373C-830.838257,293.427185,-831.103882,294.067993,-831.103882,294.923737C-831.103882,296.12262,-830.496155,296.932922,-829.280701,297.354614L-831.742615,301.428772L-830.496155,301.428772L-828.300964,297.658447L-826.409607,297.658447z"/>
    <path transform="matrix(0,-1,-1,-0,235.925064,-659.379944)" style="stroke:#ff0000;stroke-width:0.05mm;fill:none" d="M-826.409607,296.753082L-827.854431,296.753082C-828.598572,296.753082,-829.144287,296.605316,-829.491577,296.309723C-829.838806,296.01413,-830.012451,295.57074,-830.012451,294.979553C-830.012451,294.380096,-829.835754,293.94809,-829.482239,293.683502C-829.128784,293.418915,-828.561401,293.286621,-827.780029,293.286621L-826.409607,293.286621L-826.409607,296.753082z"/>
    <path transform="matrix(0,-1,-1,-0,235.925064,-659.379944)" style="stroke:#ff0000;stroke-width:0.05mm;fill:none" d="M-838.260071,301.428772L-833.206116,301.428772L-833.206116,292.362671L-838.260071,292.362671L-838.260071,293.299042L-834.260315,293.299042L-834.260315,296.219788L-838.018188,296.219788L-838.018188,297.149963L-834.260315,297.149963L-834.260315,300.486206L-838.260071,300.486206L-838.260071,301.428772z"/>
    <path transform="matrix(0,-1,-1,-0,235.925064,-659.379944)" style="stroke:#ff0000;stroke-width:0.05mm;fill:none" d="M-790.833496,341.428772L-785.779541,341.428772L-785.779541,332.362671L-790.833496,332.362671L-790.833496,333.299042L-786.83374,333.299042L-786.83374,336.219788L-790.591614,336.219788L-790.591614,337.149963L-786.83374,337.149963L-786.83374,340.486206L-790.833496,340.486206L-790.833496,341.428772z"/>
    <path transform="matrix(0,-1,-1,-0,235.925064,-659.379944)" style="stroke:#ff0000;stroke-width:0.05mm;fill:none" d="M-792.079956,341.428772L-792.079956,332.362671L-793.134155,332.362671L-793.134155,340.473785L-797.133911,340.473785L-797.133911,341.428772L-792.079956,341.428772z"/>
    <path transform="matrix(0,-1,-1,-0,235.925064,-659.379944)" style="stroke:#ff0000;stroke-width:0.05mm;fill:none" d="M-803.725708,341.428772L-798.671753,341.428772L-798.671753,332.362671L-803.725708,332.362671L-803.725708,333.299042L-799.725952,333.299042L-799.725952,336.219788L-803.483826,336.219788L-803.483826,337.149963L-799.725952,337.149963L-799.725952,340.486206L-803.725708,340.486206L-803.725708,341.428772z"/>
    <path transform="matrix(0,-1,-1,-0,235.925064,-659.379944)" style="stroke:#ff0000;stroke-width:0.05mm;fill:none" d="M-808.854065,333.175018C-807.857727,333.175018,-807.071228,333.506775,-806.494568,334.170319C-805.917847,334.833832,-805.629456,335.74231,-805.629456,336.895721C-805.629456,338.082214,-805.907471,338.998962,-806.463562,339.645935C-807.019592,340.292908,-807.812317,340.616425,-808.841675,340.616425C-809.474182,340.616425,-810.195618,340.502747,-811.00592,340.27536L-811.00592,341.199341C-810.377502,341.434967,-809.602356,341.552795,-808.680481,341.552795C-807.345154,341.552795,-806.314697,341.147644,-805.589172,340.337372C-804.863647,339.527069,-804.500854,338.375732,-804.500854,336.883301C-804.500854,335.949005,-804.675537,335.130432,-805.024841,334.427643C-805.374207,333.724854,-805.87854,333.183289,-806.537964,332.802948C-807.197327,332.422607,-807.973511,332.232422,-808.866516,332.232422C-809.817322,332.232422,-810.648315,332.406067,-811.359375,332.753326L-810.912903,333.658691C-810.226624,333.336243,-809.540344,333.175018,-808.854065,333.175018z"/>
    <path transform="matrix(0,-1,-1,-0,235.925064,-659.379944)" style="stroke:#ff0000;stroke-width:0.05mm;fill:none" d="M-815.774597,341.428772L-814.720398,341.428772L-814.720398,333.299042L-811.849243,333.299042L-811.849243,332.362671L-818.645691,332.362671L-818.645691,333.299042L-815.774597,333.299042L-815.774597,341.428772z"/>
    <path transform="matrix(0,-1,-1,-0,235.925064,-659.379944)" style="stroke:#ff0000;stroke-width:0.05mm;fill:none" d="M-821.064209,337.658447L-821.064209,341.428772L-820.01001,341.428772L-820.01001,332.362671L-822.496643,332.362671C-823.608704,332.362671,-824.430359,332.575562,-824.961609,333.001373C-825.492859,333.427185,-825.758484,334.067993,-825.758484,334.923737C-825.758484,336.12262,-825.150757,336.932922,-823.935303,337.354614L-826.397217,341.428772L-825.150757,341.428772L-822.955566,337.658447L-821.064209,337.658447z"/>
    <path transform="matrix(0,-1,-1,-0,235.925064,-659.379944)" style="stroke:#ff0000;stroke-width:0.05mm;fill:none" d="M-821.064209,336.753082L-822.509033,336.753082C-823.253174,336.753082,-823.798889,336.605316,-824.146179,336.309723C-824.493408,336.01413,-824.667053,335.57074,-824.667053,334.979553C-824.667053,334.380096,-824.490356,333.94809,-824.136841,333.683502C-823.783386,333.418915,-823.216003,333.286621,-822.434631,333.286621L-821.064209,333.286621L-821.064209,336.753082z"/>
    <path transform="matrix(0,-1,-1,-0,235.925064,-659.379944)" style="stroke:#ff0000;stroke-width:0.05mm;fill:none" d="M-827.860718,341.428772L-827.860718,332.362671L-828.914917,332.362671L-828.914917,341.428772L-827.860718,341.428772z"/>
    <path transform="matrix(0,-1,-1,-0,235.925064,-659.379944)" style="stroke:#ff0000;stroke-width:0.05mm;fill:none" d="M-835.283447,333.175018C-834.287109,333.175018,-833.50061,333.506775,-832.92395,334.170319C-832.347229,334.833832,-832.058838,335.74231,-832.058838,336.895721C-832.058838,338.082214,-832.336853,338.998962,-832.892944,339.645935C-833.448975,340.292908,-834.241699,340.616425,-835.271057,340.616425C-835.903564,340.616425,-836.625,340.502747,-837.435303,340.27536L-837.435303,341.199341C-836.806885,341.434967,-836.031738,341.552795,-835.109863,341.552795C-833.774536,341.552795,-832.74408,341.147644,-832.018555,340.337372C-831.29303,339.527069,-830.930237,338.375732,-830.930237,336.883301C-830.930237,335.949005,-831.104919,335.130432,-831.454224,334.427643C-831.803589,333.724854,-832.307922,333.183289,-832.967346,332.802948C-833.626709,332.422607,-834.402893,332.232422,-835.295898,332.232422C-836.246704,332.232422,-837.077698,332.406067,-837.788757,332.753326L-837.342285,333.658691C-836.656006,333.336243,-835.969727,333.175018,-835.283447,333.175018z"/>
    <circle transform="matrix(-0,0.282222,-0.282222,-0,-539.992004,132.449982)" style="stroke:#ff0000;stroke-width:0.05mm;fill:none" r="21.259859" cx="0" cy="0"/>
    <circle transform="matrix(-0,0.282222,-0.282222,-0,-540.299988,164.581985)" style="stroke:#ff0000;stroke-width:0.05mm;fill:none" r="22.499996" cx="0" cy="0"/>
    <circle transform="matrix(0,-1,-1,-0,-512.75,163.449982)" style="stroke:#ff0000;stroke-width:0.05mm;fill:none" r="1.5" cx="0" cy="0"/>
    <circle transform="matrix(0,-1,-1,-0,-512.75,133.449982)" style="stroke:#ff0000;stroke-width:0.05mm;fill:none" r="1.5" cx="0" cy="0"/>
    <circle transform="matrix(-0,0.282222,-0.282222,-0,-512.75,148.449982)" style="stroke:#ff0000;stroke-width:0.05mm;fill:none" r="40.216579" cx="0" cy="0"/>
    <path transform="matrix(0,-1,-1,-0,-381.949982,-281.700012)" style="stroke:#ff0000;stroke-width:0.05mm;fill:none" d="M-400.200012,214.100006L-412.100006,214.100006L-412.100006,220.100006L-424.200012,220.100006L-424.200012,214.100006L-436.100006,214.100006L-436.100006,220.100006L-448.200012,220.100006L-448.200012,214.100006L-460.100006,214.100006L-460.100006,220.100006L-469.200012,220.100006L-469.200012,200.100006L-475.200012,200.100006L-475.200012,188L-469.200012,188L-469.200012,176.100006L-475.200012,176.100006L-475.200012,164L-469.200012,164L-469.200012,152.100006L-475.200012,152.100006L-475.200012,140L-469.200012,140L-469.200012,128.100006L-475.200012,128.100006L-475.200012,116L-469.200012,116L-469.200012,104.099998L-475.200012,104.099998L-475.200012,92L-469.200012,92L-469.200012,80.099998L-475.200012,80.099998L-475.200012,68L-469.200012,68L-469.200012,56.099998L-475.200012,56.099998L-475.200012,44L-469.200012,44L-469.200012,32.099998L-475.200012,32.099998L-475.200012,20L-469.200012,20L-469.200012,0L-460.100006,0L-460.100006,6L-448.200012,6L-448.200012,0L-436.100006,0L-436.100006,6L-424.200012,6L-424.200012,0L-412.100006,0L-412.100006,6L-400.200012,6L-400.200012,0L-391.100006,0L-391.100006,20L-385.100006,20L-385.100006,32.099998L-391.100006,32.099998L-391.100006,44L-385.100006,44L-385.100006,56.099998L-391.100006,56.099998L-391.100006,68L-385.100006,68L-385.100006,80.099998L-391.100006,80.099998L-391.100006,92L-385.100006,92L-385.100006,104.099998L-391.100006,104.099998L-391.100006,116L-385.100006,116L-385.100006,128.100006L-391.100006,128.100006L-391.100006,140L-385.100006,140L-385.100006,152.100006L-391.100006,152.100006L-391.100006,164L-385.100006,164L-385.100006,176.100006L-391.100006,176.100006L-391.100006,188L-385.100006,188L-385.100006,200.100006L-391.100006,200.100006L-391.100006,220.100006L-400.200012,220.100006L-400.200012,214.100006z"/>
    <path transform="matrix(-1,0,0,1,0,0)" style="stroke:none;fill:#0000ff;fill-rule:evenodd" d="M549.256165,128.960114C549.323914,128.1082,549.992188,127.426773,550.84259,127.342438C551.489929,127.216476,552.15979,127.386047,552.66925,127.80484C553.354187,128.467834,553.441162,129.534805,552.87262,130.299957C552.469971,130.772003,551.872314,131.031647,551.252502,131.003815C550.725586,131.02298,550.210632,130.84407,549.809143,130.50235C549.393982,130.102875,549.189453,129.532379,549.256165,128.960114zM549.699768,129.348541L549.736145,129.525543C549.88269,130.014008,550.302734,130.371124,550.808411,130.437164C551.270752,130.536011,551.75293,130.476151,552.177063,130.267242C552.660217,129.988525,552.905518,129.427124,552.781799,128.883209C552.662415,128.329666,552.199341,127.916405,551.635803,127.860504C551.174011,127.779564,550.698059,127.848465,550.278137,128.057037C549.847168,128.335556,549.620544,128.841553,549.699768,129.348541z"/>
    <path transform="matrix(-1,0,0,1,0,0)" style="stroke:none;fill:#0000ff;fill-rule:evenodd" d="M553.178528,131.700592L553.178528,132.211578L551.423889,132.211578L551.423889,134.024323L550.968079,134.024323L550.968079,132.211578L549.772034,132.211578L549.772034,134.306061L549.316223,134.306061L549.316223,131.700592L553.178528,131.700592z"/>
    <path transform="matrix(-1,0,0,1,0,0)" style="stroke:none;fill:#0000ff;fill-rule:evenodd" d="M553.178528,134.991852L553.178528,135.503082L551.423889,135.503082L551.423889,137.315582L550.968079,137.315582L550.968079,135.503082L549.772034,135.503082L549.772034,137.597565L549.316223,137.597565L549.316223,134.991852L553.178528,134.991852z"/>
    <path transform="matrix(-1,0,0,1,0,0)" style="stroke:none;fill:#0000ff;fill-rule:evenodd" d="M456.30365,149.504395L455.161621,149.495377L455.150177,149.057831C455.141724,148.734528,455.141571,148.131638,455.141571,147.870514C455.141571,147.680878,455.145477,147.845474,455.141968,147.269699C455.898499,147.271957,455.890839,147.271439,455.988342,147.271439L456.847351,147.283508L457.435242,147.291473L457.44043,148.402451L457.445648,149.513428L456.30365,149.504395z"/>
    <path transform="matrix(-1,0,0,1,0,0)" style="stroke:none;fill:#0000ff;fill-rule:evenodd" d="M436.043396,187.121918C436.020966,187.405563,435.95166,187.959564,435.901947,188.252853C435.852295,188.545547,435.888641,188.566284,435.422729,187.979431C434.828308,187.230698,434.380615,186.734329,433.544739,185.897171C431.988739,184.338852,430.950409,183.504883,427.472656,181.02034C424.826202,179.129669,423.930176,178.413651,422.824341,177.305756C422.16571,176.64592,421.824982,176.254913,421.31601,175.57486C420.472961,174.44841,419.780273,173.105606,419.295929,171.658951C419.148468,171.218567,419.073456,170.970566,418.945435,170.443314C418.690491,169.393616,418.436676,167.776505,418.436676,167.202194L418.436676,167.036896L419.969391,167.014511C421.511963,166.991974,422.147095,166.948624,423.336823,166.784607C423.66272,166.739685,423.946716,166.713654,423.967926,166.726776C423.989166,166.739883,424.006561,166.790115,424.006622,166.838409C424.006775,166.96759,424.221741,167.790192,424.369873,168.2285C424.980377,170.034836,426.175201,171.883652,428.085968,173.978668C428.334534,174.251236,431.712158,177.752991,432.424988,178.566788C434.62973,181.083847,435.672577,183.084442,435.986389,185.398865C436.033844,185.748795,436.068695,186.802139,436.043396,187.121918z"/>
    <path transform="matrix(-1,0,0,1,0,0)" style="stroke:none;fill:#0000ff;fill-rule:evenodd" d="M459.940063,144.867798C459.769348,145.20462,459.762695,145.205978,458.214355,145.22049C457.192535,145.230072,456.280182,145.230423,455.499237,145.220825C454.525909,145.208832,454.429352,145.201309,454.304291,145.127655C454.125854,145.022552,454.023132,144.879974,453.993256,144.695953C453.973602,144.574692,453.981323,144.546616,454.034393,144.546616C454.070313,144.546616,454.099731,144.528595,454.099731,144.506546C454.099731,144.484512,454.07074,144.466476,454.035278,144.466476C453.985352,144.466476,453.976746,144.441681,453.997009,144.356277C454.033905,144.201035,454.145569,144.059082,454.30426,143.965591C454.435059,143.888565,454.523682,143.884995,456.583435,143.873764C458.559998,143.862976,458.930145,143.865677,459.122894,143.866638C459.309662,143.867554,459.601837,143.905228,459.720215,143.973145C459.876129,144.062622,460.030212,144.347656,460.030212,144.546616C460.030212,144.625427,459.989655,144.769958,459.940063,144.867798z"/>
    <path transform="matrix(-1,0,0,1,0,0)" style="stroke:none;fill:#0000ff;fill-rule:evenodd" d="M459.940063,152.68161C459.886658,152.786957,459.792725,152.892548,459.709656,152.940552C459.572876,153.019608,459.506134,153.021606,457.004883,153.021606C454.512421,153.021606,454.436523,153.019348,454.304291,152.941467C454.09198,152.816406,454.006744,152.672729,453.989685,152.411072C453.971802,152.13678,454.056458,151.948395,454.26001,151.809464C454.391144,151.719955,454.607544,151.68335,454.561066,151.758545C454.526306,151.814789,454.612823,151.959732,454.681183,151.959732C454.723907,151.959732,454.732635,151.928558,454.714813,151.839508L454.690796,151.719299L457.130737,151.719299C459.414429,151.719299,459.57959,151.723984,459.710297,151.792389C459.876587,151.879456,460.030212,152.152222,460.030212,152.360443C460.030212,152.439255,459.989655,152.583786,459.940063,152.68161z"/>
    <path transform="matrix(-1,0,0,1,0,0)" style="stroke:none;fill:#0000ff;fill-rule:evenodd" d="M468.014343,168.023529C465.598602,167.316986,462.820404,166.843124,459.008423,166.487473C458.413361,166.431961,456.619202,166.286591,455.021362,166.164444C450.09082,165.787506,448.209625,165.588226,445.925293,165.200882C444.76593,165.004303,444.145752,164.873413,444.12851,164.821701C444.103638,164.74707,443.918976,164.694748,443.858276,164.745117C443.818298,164.778305,443.707001,164.767456,443.422394,164.702606C443.212158,164.654724,443.040192,164.599564,443.040192,164.580017C443.040192,164.560486,443.014099,164.554504,442.982208,164.566742C442.950317,164.578979,442.828613,164.561737,442.711731,164.528442C442.594849,164.495132,442.42334,164.447998,442.330597,164.423706C442.208252,164.391647,442.168182,164.363312,442.184631,164.320496C442.198456,164.284439,442.183533,164.26149,442.14621,164.26149C442.11264,164.26149,442.07843,164.281677,442.07019,164.306366C442.041901,164.391235,440.272217,163.81189,439.15332,163.35144C437.664093,162.738632,436.022705,161.832962,434.835175,160.968872L434.592957,160.792633L434.904358,160.333176C435.495728,159.460541,436.006622,158.487503,436.413147,157.459457L436.607269,156.968597L439.845581,156.968597L443.083862,156.968597L443.372559,157.163254C444.639404,158.017471,446.23819,158.675842,448.349579,159.212769C449.312286,159.457581,451.157104,159.816376,453.007813,160.118774C454.215607,160.316116,454.660736,160.403107,454.660736,160.441833C454.660736,160.504013,454.74765,160.5121,454.804535,160.455215C454.908752,160.350983,459.36203,161.222702,459.442535,161.363083C459.464874,161.402008,459.511627,161.413513,459.583344,161.397766C459.708344,161.3703,460.511597,161.589828,461.412659,161.89769C464.54953,162.969452,466.595642,164.570313,467.779297,166.878891C467.968567,167.248016,468.285278,167.997498,468.284943,168.075409C468.284882,168.090378,468.163116,168.067032,468.014343,168.023529z"/>
    <path transform="matrix(-1,0,0,1,0,0)" style="stroke:none;fill:#0000ff;fill-rule:evenodd" d="M459.290955,150.810349C459.260986,150.894455,459.203217,150.999969,459.162598,151.044861C458.985199,151.240875,459.016815,151.238449,456.64093,151.238449C454.444,151.238449,454.407654,151.237152,454.273529,151.154266C454.073853,151.030869,453.966492,150.795105,453.988586,150.528564C454.00885,150.284409,454.099884,150.136688,454.304291,150.016296C454.432709,149.940643,454.5242,149.935486,455.936676,149.924301C456.994446,149.915924,458.678314,149.902771,458.869934,149.956024C459.054352,150.007248,459.250183,150.214722,459.305084,150.416992C459.358582,150.61412,459.358307,150.621536,459.290955,150.810349z"/>
    <path transform="matrix(-1,0,0,1,0,0)" style="stroke:none;fill:#0000ff;fill-rule:evenodd" d="M422.336212,114.954292C422.203217,116.48584,421.715515,118.00695,420.261292,121.425735C419.290405,123.708176,418.89209,124.762039,418.489258,126.114029C418.21701,127.027718,417.942047,128.361435,417.84491,129.239548L417.771759,129.900726L417.252716,129.930145C416.604309,129.966919,415.582672,130.059814,414.856293,130.148041C414.419128,130.201141,414.284912,130.205246,414.224243,130.167374C414.1427,130.11644,413.9888,130.165695,413.9888,130.242737C413.9888,130.263992,413.955261,130.281403,413.914276,130.281403C413.851532,130.281403,413.826294,130.213333,413.754608,129.850632C413.270813,127.403137,413.560944,125.054413,414.669098,122.44754C414.91391,121.87162,415.533539,120.655899,415.914886,120.00322C416.534241,118.943268,417.202698,117.933266,418.871979,115.535316C420.20108,113.626053,420.924774,112.49308,421.455475,111.490768L421.676849,111.072632L421.778351,111.302101C422.03418,111.880623,422.243958,112.685707,422.322723,113.391525C422.360321,113.728455,422.367767,114.591026,422.336212,114.954292z"/>
    <path transform="matrix(-1,0,0,1,0,0)" style="stroke:none;fill:#0000ff;fill-rule:evenodd" d="M458.323029,153.493835C458.355286,153.502716,458.919006,153.519333,458.973999,153.542313C459.186005,153.536926,459.435425,154.047302,459.311249,154.309296C459.264099,154.504395,459.125122,154.669235,458.948029,154.740097C458.806366,154.796783,458.521942,154.804764,456.643433,154.804764C455.241486,154.804764,454.500458,154.790909,454.500458,154.764694C454.500458,154.742645,454.449707,154.724625,454.387726,154.724625C454.26001,154.724625,454.089233,154.56897,454.022156,154.391418C453.908203,154.089813,454.04187,153.694305,454.302734,153.561218C454.450409,153.485886,454.548004,153.482422,456.526733,153.482422C457.54541,153.482422,458.063934,153.483475,458.323029,153.493835z"/>
    <path transform="matrix(-1,0,0,1,0,0)" style="stroke:none;fill:#0000ff;fill-rule:evenodd" d="M422.318695,183.575653C422.245361,184.21373,422.018005,185.069473,421.776398,185.616699L421.680206,185.834534L421.382355,185.288788C421.218536,184.988617,420.955261,184.529953,420.797302,184.269531C420.475464,183.738983,419.2164,181.835037,419.107849,181.714813C419.03714,181.63649,419.022705,181.594238,419.034882,181.501343C419.038544,181.47345,419.019684,181.455414,418.992981,181.461273C418.942474,181.472351,418.26297,180.524353,417.334442,179.147446C416.966797,178.602264,416.793762,178.310501,416.793762,178.235825C416.793762,178.156647,416.77356,178.126007,416.721375,178.126007C416.588654,178.126007,415.485168,176.217712,414.914063,175.000488C413.61026,172.221588,413.238739,169.67421,413.755219,167.054565C413.839722,166.625824,413.841431,166.622131,413.944702,166.643158C414.362244,166.728195,416.359467,166.932877,417.114319,166.968002C417.80835,167.00029,417.795532,166.996246,417.795532,167.18277C417.795532,167.440063,417.950928,168.521683,418.076752,169.140198C418.432739,170.890121,418.964111,172.43396,420.259857,175.482727C421.464172,178.31636,421.87204,179.453857,422.141632,180.730698C422.345184,181.694824,422.411804,182.765213,422.318695,183.575653z"/>
    <path transform="matrix(-1,0,0,1,0,0)" style="stroke:none;fill:#0000ff;fill-rule:evenodd" d="M458.448486,110.506424C458.136719,112.461502,456.784515,114.352707,454.341125,116.251015C454.110229,116.430397,453.889343,116.577156,453.85025,116.577156C453.811157,116.577156,453.779175,116.600861,453.779175,116.629829C453.779175,116.770653,451.603485,118.176842,449.756287,119.229904C448.640228,119.866135,448.552399,119.909531,448.495575,119.852707C448.461182,119.818306,448.449677,119.826363,448.449493,119.88501C448.449188,119.976761,447.737396,120.36248,444.16217,122.208252C441.786896,123.434525,440.209534,124.265099,439.282196,124.777863C438.989441,124.939743,438.71637,125.072182,438.675415,125.072182C438.63443,125.072182,438.591614,125.09639,438.580231,125.125977C438.568878,125.155563,438.373108,125.284843,438.145203,125.413261C436.645203,126.258392,434.662445,127.533188,433.523346,128.384857C433.170715,128.648499,432.850647,128.875961,432.812103,128.890335C432.773529,128.904709,432.741974,128.931946,432.741974,128.950867C432.741974,128.969788,432.548126,129.146057,432.311218,129.34259C431.680389,129.865845,430.633392,130.905869,430.14679,131.492645C429.91333,131.774139,429.707153,132.00444,429.688629,132.00444C429.670074,132.00444,429.497498,131.925751,429.305084,131.829559C428.590576,131.472351,427.25061,130.977158,426.300568,130.719208C426.118744,130.669846,425.970001,130.612335,425.970001,130.591385C425.970001,130.57045,425.944061,130.563263,425.912384,130.575424C425.857758,130.596375,424.659119,130.346313,424.618256,130.30542C424.591705,130.278885,424.748077,129.574692,424.872711,129.159409C425.027466,128.643707,425.3703,127.793961,425.43335,127.769775C425.46402,127.757996,425.489136,127.713715,425.489136,127.671356C425.489136,127.433037,426.268829,126.180405,426.904419,125.397598C427.312683,124.89476,427.366638,124.836456,428.095337,124.110481C429.814331,122.397896,432.122223,120.823547,435.326538,119.177658C437.61731,118.001007,440.122681,116.904243,444.751312,115.051819C450.847748,112.611961,452.379028,111.955421,454.660736,110.803146C455.944885,110.154648,456.825592,109.650772,457.742371,109.040039C458.103943,108.799187,458.405548,108.607941,458.412659,108.615044C458.419769,108.622139,458.443665,108.753082,458.465759,108.906013C458.520081,109.281876,458.511108,110.113754,458.448486,110.506424z"/>
    <path transform="matrix(-1,0,0,1,0,0)" style="stroke:none;fill:#0000ff;fill-rule:evenodd" d="M459.333801,142.875717C459.157166,143.354721,459.205536,143.520126,457.871185,143.424637L456.870209,143.424637L455.575623,143.424637C454.625,143.424637,454.431519,143.414703,454.316162,143.35997C454.232208,143.320114,454.179871,143.266281,454.179871,143.219727C454.179871,143.178146,454.154602,143.144135,454.123688,143.144135C454.055786,143.144135,453.979523,142.94101,453.979523,142.760101C453.979523,142.46637,454.161255,142.220154,454.433746,142.14476C454.651825,142.084412,458.896851,142.101807,458.939758,142.163223C459.219299,142.195648,459.425873,142.626068,459.333801,142.875717z"/>
    <path transform="matrix(-1,0,0,1,0,0)" style="stroke:none;fill:#0000ff;fill-rule:evenodd" d="M468.142914,129.239548C466.944763,132.187439,464.61496,134.053513,460.613129,135.270584C460.283569,135.370804,459.984314,135.447784,459.94809,135.44165C459.911865,135.435516,459.856934,135.451447,459.825989,135.477036C459.795074,135.50264,459.679596,135.542221,459.569397,135.565002C459.459229,135.587799,459.143646,135.661377,458.868164,135.728546C458.592682,135.7957,457.953522,135.932373,457.447815,136.032257C456.644745,136.190872,456.264771,136.260452,454.731781,136.509247C450.985687,137.117249,449.789703,137.340408,448.369598,137.69635C446.380981,138.194809,444.695618,138.876831,443.493835,139.669464L443.085938,139.938477L439.846619,139.938477L436.607269,139.938477L436.414001,139.447601C436.027588,138.466187,435.39212,137.268738,434.838104,136.478058C434.680878,136.253693,434.624725,136.141861,434.64975,136.102829C434.70871,136.010864,435.606445,135.399658,436.257721,135.008072C439.658508,132.963257,443.890686,131.78244,450.032532,131.164749C451.603516,131.006744,455.621399,130.682312,456.00885,130.682159C456.179535,130.682098,456.276001,130.641953,456.369476,130.641617C456.432434,130.641388,456.691315,130.623383,456.944763,130.601608C457.198212,130.579834,457.522797,130.554428,457.666046,130.545166C458.581299,130.486008,461.191315,130.207947,462.434479,130.03717C464.363495,129.772156,466.485992,129.336914,467.954224,128.905273C468.16864,128.842255,468.28421,128.824066,468.283081,128.853516C468.282135,128.87851,468.219055,129.052216,468.142914,129.239548z"/>
    <path transform="matrix(-1,0,0,1,0,0)" style="stroke:none;fill:#0000ff;fill-rule:evenodd" d="M472.114838,181.652237C472.107697,181.652237,471.923706,181.551132,471.705994,181.427551C470.124573,180.529861,467.663635,179.467133,465.299561,178.66095C462.296814,177.636993,460.127625,177.022491,453.438568,175.300903C448.847595,174.119293,446.586151,173.489166,444.24231,172.738388C438.138611,170.783295,434.040375,168.591202,431.419098,165.87941C430.983276,165.428558,430.618225,165.01329,430.618225,164.96843C430.618225,164.954269,430.643036,164.942688,430.673401,164.942688C430.743256,164.942688,430.839355,164.829926,430.801666,164.792206C430.786072,164.776627,430.720978,164.793915,430.656982,164.830643L430.54068,164.8974L430.410217,164.732697C430.326172,164.626556,430.29715,164.56218,430.328674,164.551682C430.398254,164.528488,431.271057,163.967926,431.574524,163.751526C432.340881,163.205048,433.417908,162.21933,434.007446,161.524872L434.204559,161.292694L434.525116,161.523422C434.701447,161.65033,434.851685,161.768326,434.859039,161.78566C434.866394,161.802979,434.888306,161.817169,434.907745,161.817169C434.927185,161.817169,435.101471,161.919434,435.295074,162.044418C436.260254,162.66748,437.735748,163.440033,439.033081,164.001602C441.725098,165.166855,444.527161,166.083069,449.992493,167.585114C451.414856,167.976028,451.769714,168.08696,451.828674,168.159103C451.878845,168.220505,451.908173,168.232834,451.92218,168.198456C451.933411,168.170898,451.969666,168.148361,452.002716,168.148361C452.092804,168.148361,455.188019,169.014648,456.584137,169.430603C458.085144,169.877808,460.380219,170.642044,461.447388,171.050018C463.628418,171.883804,465.58786,172.843201,466.93512,173.736938C467.275208,173.962555,467.421509,174.082458,467.417358,174.132263C467.413025,174.184021,467.435699,174.200546,467.499603,174.192169C467.745514,174.159943,469.34726,175.587799,470.084106,176.496094C471.085968,177.731049,471.760193,179.217819,472.004395,180.730606C472.089417,181.257172,472.136749,181.652237,472.114838,181.652237z"/>
    <path transform="matrix(-1,0,0,1,0,0)" style="stroke:none;fill:#0000ff;fill-rule:evenodd" d="M459.301788,146.521286C459.249207,146.713531,459.06778,146.896103,458.876526,146.949219C458.651367,147.011765,455.080322,146.990936,454.870117,146.990936C454.316833,146.990936,454.034119,146.806488,453.990204,146.41687C453.953003,146.164902,454.062073,145.830246,454.226868,145.783722C454.3396,145.703339,454.418274,145.686462,454.735718,145.674591C454.951385,145.666519,455.270386,145.67395,456.053192,145.671402C456.820648,145.6689,457.290436,145.66861,458.017883,145.66861C458.862976,145.66861,458.901489,145.672043,459.030396,145.758896C459.274658,145.923523,459.382446,146.226303,459.301788,146.521286z"/>
    <path transform="matrix(-1,0,0,1,0,0)" style="stroke:none;fill:#0000ff;fill-rule:evenodd" d="M449.651855,141.798584C449.717987,141.811356,449.824219,141.831833,449.88797,141.84407C449.978577,141.861481,450.267151,141.90155,451.52417,142.105164C452.782562,142.309006,452.869171,142.328354,452.901337,142.412842C452.942627,142.521149,453.018066,142.530701,453.044189,142.430923C453.061462,142.364868,453.086792,142.362427,453.347961,142.401703L453.632904,142.444565L453.623169,142.71376C453.614838,142.942978,453.629852,143.013184,453.724182,143.186523C453.785126,143.298477,453.890045,143.438431,453.957336,143.497513L454.079712,143.60495L453.913361,143.766556C453.821869,143.855438,453.727203,143.921555,453.702972,143.913483C453.678772,143.905411,453.658966,143.918335,453.658966,143.942215C453.658966,143.966095,453.674866,143.985626,453.694305,143.985626C453.713745,143.985626,453.705536,144.053253,453.676025,144.135895C453.544281,144.505081,453.644135,144.944244,453.925659,145.233643L454.067719,145.3797L453.906677,145.545654C453.640137,145.820328,453.549316,146.247101,453.680145,146.61026C453.711914,146.698425,453.738159,146.781189,453.738495,146.794189C453.738831,146.80719,453.608368,146.841125,453.448578,146.869583C453.288818,146.898056,453.135529,146.929916,453.107971,146.940399C453.080444,146.950882,453.057892,146.932068,453.057892,146.898621C453.057892,146.852219,452.998474,146.834412,452.807465,146.823608C452.561157,146.809662,452.498749,146.83432,452.497528,146.946106C452.496887,147.002075,452.666046,146.993805,452.827484,146.929962C452.866058,146.914703,452.897614,146.918549,452.897614,146.938492C452.897614,146.95845,452.559509,147.0522,452.146301,147.146835C451.228058,147.357132,450.334045,147.613068,449.727142,147.839386C449.205505,148.033936,448.467468,148.395966,448.474579,148.453857C448.482574,148.518646,449.000214,148.781586,449.531677,148.990799C450.436401,149.346954,451.516724,149.646133,452.948303,149.936935C453.607605,150.070877,453.697479,150.098267,453.678101,150.159302C453.631012,150.307739,453.583618,150.683426,453.60498,150.739105C453.61734,150.771317,453.692688,150.947144,453.735931,151.031876C453.779144,151.116608,453.876953,151.240738,453.953247,151.307724L454.091919,151.429504L453.977356,151.514221C453.914368,151.560806,453.812439,151.684601,453.750854,151.789337C453.653534,151.954926,453.638916,152.021576,453.638916,152.300323C453.638916,152.667664,453.708069,152.848511,453.931396,153.065414L454.070099,153.200104L453.952209,153.311218C453.88736,153.372314,453.801544,153.478271,453.761505,153.546646L453.638916,153.763031L453.638672,154.113464L453.638428,154.463898L453.097717,154.551468C452.40802,154.663177,452.32312,154.68454,452.302979,154.68454C452.282898,154.68454,451.493378,154.809937,450.548462,154.963181C447.780396,155.412079,445.054321,155.7995,443.881653,155.910599C443.601959,155.937103,443.544647,155.952179,442.848602,156.018768C440.825592,156.212311,439.549988,156.285965,437.721893,156.314774L436.150208,156.339539L436.104279,156.483765C436.07901,156.56308,435.959167,156.880432,435.837952,157.18898C435.306793,158.540939,434.573944,159.814957,433.735626,160.843628C433.382965,161.276398,432.777557,161.937378,432.733856,161.937378C432.716156,161.937378,432.634369,162.011887,432.552094,162.102951C432.198151,162.494736,431.231506,163.243103,430.464447,163.719193C429.856049,164.096817,429.009674,164.538498,428.942719,164.513336C428.913757,164.502441,428.868561,164.52298,428.842255,164.55896C428.815948,164.59494,428.542114,164.72963,428.233704,164.858276C424.545349,166.396881,419.585175,166.805237,414.088989,166.022766C413.780426,165.978851,413.493256,165.938751,413.450775,165.93367C413.393921,165.926865,413.364502,165.959106,413.339081,166.056091C413.320099,166.128494,412.954254,167.497253,412.911316,167.692749C412.539795,169.384689,412.54364,170.721024,412.92807,173.497818C413.225677,175.647568,413.05188,176.751785,412.246826,177.82547C412.008575,178.143265,411.490448,178.663467,411.103699,178.973206C410.652649,179.334442,409.128448,180.289841,409.003174,180.289841C408.985687,180.289841,408.983154,180.259125,408.997559,180.221588C409.011963,180.184052,409.06076,179.818909,409.105988,179.410156C409.166351,178.864929,409.193787,178.291565,409.209045,177.257614C409.241394,175.065002,409.162842,174.177246,408.60318,170.412369C408.287445,168.288208,408.253448,167.963547,408.229797,166.845047C408.212952,166.048111,408.22229,165.734726,408.275299,165.318344C408.478485,163.722,409.09848,162.461197,410.240936,161.321182C410.606934,160.955963,411.164581,160.483597,411.398804,160.340393C411.478546,160.291641,411.644379,160.335495,413.035614,160.773239C414.65564,161.28299,415.347778,161.458252,416.513275,161.653885C417.742462,161.860214,418.414429,161.914856,419.738983,161.916168C421.247986,161.917648,422.09079,161.830292,423.259979,161.551208C423.601135,161.469788,423.702301,161.458206,423.726776,161.497803C423.766571,161.562225,423.886292,161.518326,423.886292,161.439301C423.886292,161.402985,423.952148,161.36174,424.053894,161.334351C424.146057,161.309525,424.421051,161.211868,424.664978,161.117325C426.983551,160.218658,428.52597,158.761063,429.26712,156.768234C429.438324,156.307861,429.60376,155.584961,429.640808,155.135345L429.66803,154.804764L430.113068,154.803558C430.379883,154.802826,430.710541,154.7724,430.938782,154.727539C431.148132,154.686401,431.324127,154.657074,431.329865,154.662354C431.351929,154.682755,431.173828,155.472504,431.055267,155.879807C430.642334,157.29866,429.949066,158.509613,428.97818,159.507858C428.155853,160.353363,427.305756,160.946472,426.319946,161.362579C425.899048,161.540222,426.112427,161.513412,426.751373,161.30835C428.859558,160.63176,430.455902,159.024994,431.376282,156.65329C431.576294,156.137848,431.791351,155.398209,431.901917,154.84552C431.94812,154.614471,431.989258,154.42514,431.993286,154.424774C431.997345,154.424393,432.24408,154.303452,432.541626,154.156006C433.409058,153.726135,434.2164,153.123627,435.015991,152.309448C435.241882,152.079407,435.426727,151.906631,435.426727,151.925476C435.426727,151.944321,435.453766,151.959732,435.486816,151.959732C435.559509,151.959732,435.566925,151.893021,435.496826,151.86937C435.465271,151.858704,435.514709,151.772339,435.630615,151.63562C435.902313,151.315247,436.34787,150.702988,436.582611,150.327469C436.781097,150.009964,437.184082,149.240402,437.26947,149.015823C437.350677,148.802292,437.213562,148.934128,436.955566,149.317673C435.452759,151.551727,433.600128,153.122589,431.740204,153.739838C431.168152,153.929688,430.70636,154.003357,430.088318,154.003357C429.223358,154.003357,428.485962,153.804871,427.749725,153.373901L427.433167,153.188583L427.955292,153.058853C428.489502,152.926117,429.134552,152.702881,429.456146,152.539413C430.026794,152.249374,430.798218,151.543945,431.185577,150.957962C431.454498,150.551147,431.594299,150.279709,431.742889,149.876053C431.823334,149.657471,431.870819,149.578735,431.917053,149.587296C431.952728,149.593903,431.980621,149.57193,431.980621,149.537201C431.980621,149.503174,431.95163,149.475342,431.916229,149.475342C431.871796,149.475342,431.860046,149.453979,431.878265,149.406433C431.90976,149.324356,431.918915,149.314697,431.680298,149.615585C430.9133,150.582718,429.834137,151.443451,428.861053,151.864151C428.141022,152.175446,426.923523,152.395676,426.189209,152.347443C425.735382,152.317642,425.247223,152.212402,425.259735,152.147079C425.265289,152.118073,425.226288,152.104431,425.158203,152.111572C425.017273,152.126343,424.362335,151.791901,424.005981,151.523209C423.273224,150.970703,422.516693,149.951843,422.187317,149.073883C422.124878,148.907486,422.12439,148.873505,422.181396,148.654739C422.267059,148.325775,422.260162,147.830612,422.164642,147.45723C422.005951,146.836761,421.539063,146.124329,421.164001,145.930374L421.028625,145.860352L421.138794,146.04834C421.693726,146.99527,421.826019,148.176178,421.477844,149.074631C421.217743,149.745743,420.786194,150.185089,419.763397,150.820084C419.030762,151.274933,418.889008,151.384842,418.766693,151.592896C418.65921,151.775742,418.65741,151.789658,418.675049,152.300339C418.684937,152.586853,418.693573,153.028625,418.694214,153.282074C418.695526,153.805847,418.657959,153.918304,418.270905,154.549454C418.15741,154.734558,418.050781,154.964722,418.032013,155.065125C417.952515,155.490707,418.208191,156.101944,418.738281,156.753525L418.840393,156.879059L418.434875,156.928741C417.887909,156.995743,417.218597,156.964279,416.811737,156.852432C416.403168,156.740128,416.007202,156.526031,416.025421,156.427277C416.035278,156.373764,416.018799,156.361755,415.957489,156.377777C415.791077,156.421295,415.328186,155.860062,415.132202,155.377151C414.82547,154.621338,414.846985,153.746918,415.209839,152.2202C415.556763,150.760574,415.562592,150.602722,415.303345,149.695724C414.998566,148.629517,414.970795,148.46048,414.970795,147.67215C414.970795,146.895081,415.015411,146.610687,415.253754,145.868652C415.583221,144.843033,416.242065,143.918839,417.004608,143.412689C417.336823,143.192169,418.056854,142.8452,418.50769,142.688354C419.186707,142.452133,419.713318,142.369904,420.399139,142.39299C421.052002,142.414963,421.336334,142.483551,421.818451,142.735367C422.171326,142.919693,422.690186,143.408691,422.916687,143.770416C423.336853,144.441467,423.755402,145.184647,423.719788,145.196503C423.695313,145.204666,423.69696,145.251526,423.724182,145.323181C423.758453,145.413284,423.778809,145.427429,423.822327,145.391327C423.866089,145.355011,423.920166,145.400818,424.089172,145.617386C424.666229,146.356873,425.165741,146.809433,425.669464,147.049088C426.046753,147.228607,426.321136,147.286774,426.66687,147.260529C426.916565,147.241577,427.262909,147.145844,427.337799,147.075073C427.351776,147.061859,427.347382,146.924835,427.328003,146.770554C427.221283,145.92041,427.622467,144.808105,428.294098,144.091934C428.9552,143.387009,429.638672,143.104065,430.68042,143.104065C432.316345,143.104065,434.011322,143.994827,435.497406,145.635529C435.907288,146.088058,436.565857,146.958588,436.914063,147.508148C437.054718,147.730148,437.183899,147.911972,437.201141,147.912186C437.249817,147.912796,436.665039,146.781281,436.317871,146.203003C435.142456,144.245285,433.785004,142.979034,432.264984,142.422424L431.968292,142.313782L431.798157,141.637024C431.70459,141.264816,431.589966,140.853256,431.543457,140.722458C431.483856,140.55481,431.472107,140.476486,431.503662,140.457001C431.536285,140.436829,431.536407,140.421921,431.504059,140.401932C431.479645,140.386856,431.458923,140.389114,431.457947,140.406952C431.457001,140.424774,431.394684,140.289093,431.319489,140.105438C430.357788,137.756851,428.703766,136.159348,426.611115,135.558014C426.021759,135.388657,425.976166,135.399323,426.430817,135.600174C427.518402,136.080688,428.605927,136.907501,429.395477,137.854126C430.11731,138.719543,430.721527,139.874817,431.052551,141.022415C431.197906,141.526428,431.321136,142.093948,431.291595,142.123474C431.279816,142.135254,431.067566,142.125778,430.819916,142.102432C430.572266,142.079071,430.212036,142.071869,430.019409,142.086395L429.669189,142.112839L429.644135,141.787613C429.589386,141.077835,429.31604,140.138489,428.953918,139.415665C427.826813,137.166031,425.307617,135.600586,422.06308,135.133682C419.927643,134.82637,417.461151,134.972595,415.009705,135.551849C414.624481,135.642868,414.571106,135.647507,414.540405,135.592621C414.490356,135.50322,414.416504,135.516388,414.441071,135.610321C414.459625,135.68132,414.404694,135.707886,413.934814,135.855225C413.644958,135.946106,412.985443,136.153702,412.469269,136.316528C411.953064,136.47937,411.507721,136.612595,411.479553,136.612595C411.391754,136.612595,410.62085,135.975708,410.222137,135.573792C409.090424,134.432922,408.485168,133.198364,408.275787,131.603729C408.223511,131.205658,408.214325,130.893127,408.231079,130.081039C408.2547,128.933533,408.303314,128.475861,408.637573,126.254272C409.121582,123.037079,409.221802,121.98008,409.223328,120.076965C409.224243,118.904732,409.179352,118.100609,409.061523,117.178223C409.023499,116.880692,408.996674,116.631699,409.001862,116.624901C409.017853,116.604065,409.736481,117.012672,410.193512,117.302452C410.818176,117.698502,411.35141,118.119919,411.774872,118.552193C412.105011,118.88916,412.145538,118.94648,412.145538,119.076195C412.145538,119.225365,412.176544,119.254936,412.252899,119.178581C412.283875,119.147621,412.347809,119.218819,412.477783,119.429024C412.867798,120.059654,413.022675,120.607193,413.055481,121.471199C413.079987,122.116005,413.054565,122.423843,412.844299,124.028831C412.487732,126.750732,412.566376,128.078491,413.223022,130.421646C413.355347,130.893799,413.391937,130.981445,413.454102,130.975113C413.494751,130.970978,413.85257,130.922302,414.249268,130.866959C416.985535,130.485229,419.795563,130.398438,422.149597,130.622971C428.582275,131.236511,433.003143,133.902466,435.325195,138.568359C435.571777,139.063873,435.853638,139.7314,436.068634,140.329163L436.158722,140.579605L437.125061,140.579987C439.913452,140.581085,443.192322,140.857483,447.127411,141.423111C449.506409,141.765076,449.211182,141.724731,449.651855,141.798584zM417.293304,146.470032C417.231842,146.470032,416.858765,146.686127,416.739594,146.790771C416.481628,147.017258,416.459656,147.112152,416.440582,148.082886C416.430023,148.618835,416.43808,148.954422,416.461517,148.954422C416.563202,148.954422,417.185364,147.498489,417.273438,147.054413C417.311188,146.864182,417.324585,146.470032,417.293304,146.470032z"/>
    <path transform="matrix(-1,0,0,1,0,0)" style="stroke:none;fill:#0000ff;fill-rule:evenodd" d="M479.733673,146.770554C479.748474,147.008987,479.755554,147.176117,479.759399,147.247681C479.783905,147.701401,479.783264,149.222031,479.758362,149.735794C479.701904,150.900497,479.599976,151.975433,479.466858,152.808807C479.394806,153.260178,479.384369,153.288254,479.180542,153.580185C479.064209,153.746796,478.953735,153.883133,478.935028,153.883133C478.916321,153.883133,478.888062,153.91777,478.872253,153.960114C478.801483,154.149506,477.676971,155.325684,477.56665,155.325684C477.552643,155.325684,477.541199,155.29863,477.541199,155.265579C477.541199,155.232178,477.505585,155.205475,477.46106,155.205475C477.364624,155.205475,477.360199,155.236374,477.44342,155.328354C477.50116,155.392151,477.488159,155.411118,477.273132,155.576447C476.884338,155.875366,476.343445,156.213181,475.864471,156.456238C475.500183,156.641098,475.394745,156.678772,475.333527,156.646011C475.281281,156.618042,475.257141,156.618225,475.257141,156.646606C475.257141,156.669434,475.214172,156.688095,475.161652,156.688095C475.101959,156.688095,475.058777,156.716278,475.046509,156.763245C475.014771,156.884567,474.091766,157.165817,473.233337,157.315735C472.666473,157.414734,471.000793,157.414734,470.428619,157.31572C469.939301,157.231049,469.32782,157.079056,468.945099,156.94696L468.659485,156.848373L464.522522,156.848373C461.495331,156.848373,460.36264,156.83609,460.299988,156.802567C460.235748,156.768188,460.210571,156.768188,460.199097,156.802567C460.179413,156.861649,459.763733,156.863388,459.727356,156.804535C459.712463,156.780426,459.652802,156.769821,459.594757,156.781006C459.417725,156.815079,459.060303,156.725403,459.03833,156.641388C459.016449,156.557678,458.96286,156.54425,458.938812,156.616455C458.888519,156.767303,457.401581,156.039444,457.318665,155.823395C457.306671,155.792084,457.269806,155.766464,457.236755,155.766464C457.176483,155.766464,456.584137,155.218018,456.584137,155.162231C456.584137,155.145905,457.111572,155.12616,457.756195,155.118347C458.839294,155.10524,458.941956,155.09787,459.108582,155.021255C459.297211,154.93454,459.529022,154.703278,459.591125,154.539856L459.627533,154.444122L460.694641,154.444122C462.064789,154.444122,462.30127,154.389282,462.846619,153.945068L463.073425,153.7603L463.297974,153.386703C463.378082,153.240997,463.459991,153.12178,463.480011,153.12178C463.5,153.12178,463.516388,153.084686,463.516388,153.039352C463.516388,152.994019,463.536255,152.878067,463.560516,152.781708C463.591553,152.658401,463.634644,152.468964,463.650909,152.367264C463.670624,152.243958,463.643433,152.135712,463.512512,151.816284C463.301636,151.301834,463.092651,150.576141,462.988403,149.996262C462.870636,149.341278,462.842804,147.999496,462.932709,147.311508C463.03833,146.503387,463.281036,145.61496,463.593719,144.892014C463.668427,144.719269,463.67337,144.669296,463.636108,144.463684C463.450165,143.438324,462.796814,142.693024,461.9216,142.507858C461.796753,142.481445,461.291016,142.462936,460.694122,142.462936L459.678986,142.462936L459.571014,142.242218C459.511597,142.120819,459.401337,141.974457,459.325958,141.916946C459.064819,141.717773,458.972229,141.705231,457.747437,141.703354L456.606689,141.701584L456.844147,141.461609C457.331299,140.96933,458.10434,140.503036,458.792603,140.286346C459.52536,140.055634,459.452423,140.058685,464.249115,140.058685L468.657867,140.058685L469.088562,139.919464C470.78241,139.371857,472.713776,139.357269,474.43515,139.879044C475.984192,140.348572,477.509857,141.330139,478.532745,142.515305C478.884155,142.92247,479.258728,143.419464,479.353943,143.60495C479.430878,143.754761,479.482849,144.346039,479.571838,145.091873C479.580383,145.163452,479.576538,145.163895,479.585083,145.235474C479.617004,145.502975,479.639282,145.482269,479.663269,145.768784C479.73938,146.677399,479.702545,146.269409,479.733673,146.770554zM474.979004,146.918137C475.03653,146.890137,475.766144,146.62645,475.796753,146.616486L476.142761,146.503799L476.134674,146.226456C476.130219,146.073914,476.112762,145.949097,476.095917,145.949097C476.079041,145.949097,476.059235,145.9646,476.05188,145.983551C476.037354,146.021011,473.806641,145.383331,473.724548,145.318237C473.69693,145.296356,473.62027,145.275986,473.554138,145.272995C473.488037,145.269989,472.586426,145.019684,471.550598,144.716736L469.667267,144.165955L469.455383,143.732956L469.24353,143.299957L469.074738,143.31221L468.905914,143.324463L468.895355,144.656815L468.884796,145.989166L469.061401,145.989166L469.237976,145.989166L469.281342,145.742981C469.305176,145.607559,469.35498,145.463318,469.391998,145.422409C469.488708,145.315536,469.722443,145.327454,470.191223,145.46315C470.409943,145.526459,471.409363,145.81514,472.412109,146.104645C473.414917,146.394165,474.253387,146.636887,474.275421,146.644043C474.297455,146.651184,473.923309,146.78775,473.443939,146.947525C472.9646,147.1073,472.572418,147.244431,472.572418,147.252258C472.572418,147.260071,472.72348,147.315674,472.908142,147.375793L473.243866,147.485138L474.154266,147.179047C474.617676,147.023224,474.846619,146.947144,474.979004,146.918137zM471.852814,147.307434C471.097717,147.045898,469.924927,146.629761,469.128143,146.350449C468.372681,146.085632,467.745453,145.868958,467.734314,145.868958C467.723145,145.868958,467.736481,145.841904,467.763916,145.808853C467.809509,145.753906,467.792145,145.731567,467.713593,145.74408C467.69693,145.746735,467.598206,145.57756,467.494171,145.368149L467.305023,144.987396L467.113739,144.987396L466.922424,144.987396L466.919952,145.578445C466.91861,145.903519,466.919647,146.491623,466.922302,146.885345C466.926849,147.564545,466.921631,147.532654,466.922424,147.889343C466.922424,147.937531,466.964905,147.952637,467.100281,147.952637L467.278137,147.952637L467.300629,147.772324C467.312988,147.673157,467.333435,147.509552,467.346039,147.408798C467.39389,147.026459,467.578033,146.990982,468.284821,147.227951C468.759399,147.387054,470.340912,147.952545,470.358154,147.969299C470.363495,147.974487,470.061462,148.083191,469.686981,148.210876L469.006104,148.443054L469.006104,148.689316L469.006104,148.935577L470.017883,149.270386C470.574371,149.454514,471.042297,149.616531,471.057739,149.630417C471.073151,149.644302,470.336426,149.887589,469.420593,150.171051C467.578613,150.74118,467.633331,150.733307,467.490723,150.448654C467.408997,150.285522,467.377869,150.17778,467.341553,149.932053C467.298859,149.643402,467.292572,149.63562,467.10144,149.63562L466.925201,149.63562L466.913788,150.587311C466.907501,151.110733,466.908173,151.70578,466.915253,151.909637L466.928101,152.280304L467.102875,152.280304C467.234863,152.280304,467.282654,152.263123,467.298004,152.210175C467.309204,152.1716,467.339111,152.058899,467.364502,151.959732C467.42511,151.722855,467.563751,151.545609,467.817505,151.380554C468.07312,151.214264,468.002472,151.267151,468.243713,151.164642L468.674988,150.997101C469.534241,150.663284,471.706604,149.876038,471.768555,149.876038C471.803467,149.876038,472.416138,150.070847,473.130035,150.308945L474.42804,150.741852L472.090546,151.354797C470.804932,151.691925,469.72937,151.976868,469.700378,151.987991C469.597931,152.027283,469.374084,151.744568,469.301849,151.484665L469.233398,151.238449L469.062347,151.238449C468.871613,151.238449,468.853821,151.265808,468.866699,151.538986C468.87085,151.627136,468.876862,152.127533,468.880066,152.650955L468.885895,153.602631L469.062378,153.602631L469.238861,153.602631L469.675415,153.056732L470.111938,152.510818L471.191895,152.175598C472.057129,151.907028,472.624878,151.725693,472.786957,151.684875C472.883667,151.660522,472.992188,151.629333,473.028076,151.61557C473.071686,151.598816,473.166962,151.570404,475.108582,150.976151L476.14209,150.659836L476.130371,150.421402L476.118683,150.182953L475.453491,149.959381C475.006958,149.80928,474.588562,149.677246,472.776886,149.08139C471.89743,148.792145,471.392059,148.63504,471.059723,148.523438L470.628967,148.378769L470.881439,148.297577L471.133911,148.216415L471.963379,148.502319C472.419556,148.659561,472.973114,148.852264,473.193512,148.930557C473.718811,149.117142,473.882019,149.116333,474.406921,148.924591L474.818939,148.774094L474.807648,148.556335L474.796326,148.338593L473.988129,148.055679C473.697998,147.954117,472.429138,147.50705,471.852814,147.307434z"/>
    <path transform="matrix(-1,0,0,1,0,0)" style="stroke:none;fill:#0000ff;fill-rule:evenodd" d="M472.115082,115.378372C472.105988,115.387558,472.087128,115.512276,472.073212,115.655533C471.973694,116.679443,471.692505,117.653221,471.211182,118.640808C470.23822,120.637146,468.510376,122.311394,465.845337,123.840309C465.440613,124.072487,465.375488,124.097939,465.266357,124.066635C465.134216,124.028748,465.080902,124.067787,465.079773,124.203262C465.078766,124.320427,463.602264,125.009903,461.959869,125.660156C461.152344,125.979858,461.101501,125.99472,461.04953,125.92617C461.019257,125.88623,460.993896,125.822006,460.993195,125.783432C460.991455,125.687698,460.862823,125.69426,460.800995,125.793243C460.758667,125.861038,460.763794,125.885887,460.834778,125.956863C460.880798,126.002899,460.910858,126.048164,460.90155,126.057449C460.868195,126.090813,459.417542,126.595604,458.601685,126.857758C458.068573,127.029037,454.02536,128.223541,451.21463,128.991562C450.740784,129.121033,450.347107,129.211761,450.339752,129.193192C450.318756,129.140076,450.246002,129.15361,450.197235,129.219727C450.17157,129.254547,449.602142,129.4328,448.850464,129.641327C442.641296,131.363892,439.050751,132.68927,436.233704,134.298523C435.733673,134.584137,434.669434,135.267456,434.266754,135.561401C434.205414,135.606186,434.158905,135.567963,433.871674,135.236664C433.023529,134.258377,431.802277,133.239227,430.6604,132.556793C430.471893,132.444153,430.310608,132.346344,430.301941,132.339478C430.293304,132.332581,430.428528,132.150696,430.602417,131.935287C430.987152,131.45874,432.068756,130.365707,432.561646,129.955322C433.036316,129.560135,433.877777,128.931702,434.367767,128.604416C434.640594,128.42218,435.165985,128.093719,435.535278,127.874527C436.384491,127.370476,438.097198,126.499321,438.131104,126.554169C438.169464,126.616257,438.243225,126.602669,438.218445,126.538086C438.189972,126.463867,438.314423,126.41655,438.362488,126.483322C438.389587,126.520981,438.393829,126.516937,438.378326,126.468246C438.361328,126.414841,438.485138,126.34613,439.005676,126.120056C442.100677,124.775871,445.568817,123.660301,451.353058,122.148384C452.035278,121.970062,452.619415,121.834129,452.651154,121.846306C452.682892,121.858482,452.737793,121.844009,452.773163,121.814156C452.808563,121.784294,453.703033,121.537903,454.760895,121.266624C460.826019,119.711273,463.958344,118.78508,466.762146,117.718002C467.324127,117.50412,467.856079,117.309006,467.944214,117.284424C468.032379,117.259834,468.113831,117.227089,468.125244,117.211647C468.136658,117.19622,468.452209,117.052391,468.826477,116.892036C469.515717,116.596733,471.195404,115.774048,471.801025,115.435112C472.021637,115.311668,472.131622,115.268677,472.131622,115.305893C472.131622,115.336571,472.124176,115.369186,472.115082,115.378372z"/>
    <path transform="matrix(-1,0,0,1,0,0)" style="stroke:none;fill:#0000ff;fill-rule:evenodd" d="M458.464294,188.018265C458.446106,188.15863,458.422791,188.281906,458.412476,188.292191C458.402191,188.30249,458.198486,188.176071,457.959778,188.011276C456.401978,186.935715,454.182861,185.783554,451.134491,184.46759C450.594543,184.234497,450.132965,184.016846,450.108765,183.983917C450.084534,183.950989,450.046356,183.935394,450.023895,183.94928C450.001434,183.96315,449.651611,183.838272,449.24646,183.671753C448.841339,183.505234,447.211548,182.848999,445.624756,182.213455C440.259033,180.064423,438.393585,179.259155,435.907562,178.018875C433.015045,176.575806,431.007416,175.322052,429.215729,173.83992C428.573669,173.308777,427.369781,172.10199,426.915741,171.534348C425.809509,170.151398,425.004944,168.526367,424.686493,167.031708C424.58667,166.563171,424.584015,166.569946,424.884674,166.525467C425.243866,166.472321,426.651123,166.10144,427.256744,165.900299C427.995056,165.65509,428.500702,165.4561,429.190155,165.139389C429.473633,165.009171,429.710602,164.902618,429.716736,164.902618C429.72287,164.902618,429.868439,165.07843,430.040192,165.293304C430.424957,165.774689,431.457184,166.830933,432.016022,167.315109C433.382294,168.498871,434.90921,169.573151,437.028839,170.841934C437.502289,171.125336,437.904602,171.383911,437.922882,171.416565C437.941162,171.449219,437.97229,171.465927,437.992065,171.453705C438.011841,171.441483,438.312775,171.591614,438.660797,171.787323C439.937744,172.505417,441.308594,173.231079,444.502777,174.879791C450.163849,177.801819,452.476532,179.174988,454.620667,180.887329C455.271332,181.406982,456.284363,182.376022,456.723328,182.898712C457.801208,184.182114,458.41568,185.560837,458.494019,186.871567C458.517181,187.258682,458.512146,187.310883,458.444366,187.385757C458.373535,187.46405,458.373138,187.471436,458.438232,187.507858C458.513428,187.549942,458.516693,187.613983,458.464294,188.018265z"/>
    <path transform="matrix(-1,0,0,1,0,0)" style="stroke:none;fill:#0000ff;fill-rule:evenodd" d="M436.025543,111.18763C435.849976,113.084305,435.07251,114.935738,433.648529,116.848167C432.919495,117.827309,432.218567,118.614128,430.30246,120.604279C429.517365,121.419724,428.750366,122.217636,428.598022,122.377419C428.445679,122.537201,428.296936,122.667931,428.267487,122.667931C428.238037,122.667931,428.213959,122.696037,428.213959,122.730385C428.213959,122.764732,428.064728,122.95858,427.882324,123.161148C427.237091,123.87767,426.422394,124.892883,426.05014,125.444199C425.995026,125.525787,425.918396,125.592682,425.879822,125.592834C425.831116,125.593018,425.809692,125.624878,425.809692,125.697113C425.809692,125.801979,425.677734,126.026657,425.581299,126.085968C425.552643,126.103592,425.529205,126.147087,425.529205,126.182632C425.529205,126.270981,425.296295,126.636002,425.174347,126.738739C425.109924,126.793015,425.083893,126.845856,425.100433,126.888901C425.114441,126.92543,425.091431,127.013962,425.049316,127.085648C424.909393,127.323669,424.563904,128.13118,424.4021,128.598419C424.251617,129.03302,424.026581,129.860718,423.999023,130.081039C423.983337,130.206268,423.951141,130.206497,423.004761,130.087708C421.81958,129.938965,421.47345,129.917084,419.929321,129.893143L418.436676,129.869995L418.436707,129.705048C418.436737,129.614319,418.4646,129.296661,418.498657,128.99913C418.951263,125.042839,420.280457,122.147659,422.804016,119.621582C423.952881,118.471565,424.937927,117.687897,427.713074,115.716164C429.784332,114.244537,430.936737,113.376823,431.780273,112.653709C433.258392,111.386597,434.599335,110.003777,435.592987,108.721863C435.838226,108.405472,435.846161,108.399368,435.874359,108.504829C436.004303,108.990723,436.089294,110.49884,436.025543,111.18763z"/>
    <path transform="matrix(-1,0,0,1,0,0)" style="stroke:none;fill:#0000ff;fill-rule:evenodd" d="M549.561646,164.337982C549.566467,163.942856,549.754883,163.57193,550.071167,163.335052C550.455994,163.06485,550.982178,163.125275,551.295776,163.475677C551.464417,163.693451,551.580872,163.946869,551.636353,164.216644C551.678772,164.379013,551.719666,164.542023,551.758911,164.70517L551.810181,164.900726C551.846313,165.127106,551.953247,165.336288,552.115601,165.498138C552.308594,165.640656,552.572266,165.639069,552.76355,165.494232C552.997192,165.276337,553.11731,164.962845,553.088989,164.644623C553.114502,164.270065,552.960449,163.905807,552.67395,163.663177C552.530457,163.572815,552.367371,163.518143,552.198364,163.503754L552.240601,163.021576C552.744202,163.02388,553.19812,163.325974,553.394653,163.789642C553.601685,164.310837,553.602112,164.890945,553.395874,165.412445C553.187561,165.923615,552.630981,166.1996,552.098022,166.056C551.752625,165.934021,551.489136,165.650604,551.3927,165.297211C551.292236,164.968735,551.204956,164.636353,551.131226,164.300873L551.06189,164.078461C551.040833,163.943863,550.966064,163.822983,550.853394,163.746475C550.740723,163.669968,550.600769,163.645065,550.467896,163.67514C550.249939,163.742035,550.087463,163.924545,550.046265,164.148773C549.965332,164.462814,549.987305,164.794693,550.109009,165.095306C550.236511,165.329651,550.477661,165.479614,550.744263,165.490326L550.707397,165.980316C550.193542,165.971756,549.750366,165.615753,549.631226,165.115814C549.561279,164.862854,549.53772,164.599335,549.561646,164.337982z"/>
    <path transform="matrix(-1,0,0,1,0,0)" style="stroke:none;fill:#0000ff;fill-rule:evenodd" d="M553.481567,155.703461L553.481567,156.214691L551.766479,156.214691C551.761108,156.468918,551.762634,156.723236,551.771118,156.977386C551.794128,157.22731,551.9328,157.451965,552.145874,157.584564C552.576294,157.899704,553.022095,158.193359,553.481567,158.464447L553.481567,159.107269L552.430298,158.435638C552.186646,158.301483,551.977783,158.111557,551.821167,157.881683L551.724243,157.703217L551.673218,157.962982C551.575745,158.505096,551.060913,158.869476,550.517212,158.781097C550.040955,158.736588,549.669006,158.348206,549.645142,157.870453C549.626526,157.71965,549.61792,157.567795,549.619263,157.415863L549.619263,155.703461L553.481567,155.703461zM550.046021,157.437103L550.057007,157.637299C550.056824,157.929626,550.257751,158.184113,550.542114,158.251801C550.843201,158.319427,551.147583,158.151794,551.251343,157.861176C551.306213,157.683945,551.33075,157.498718,551.323853,157.313324L551.323853,156.214691L550.046021,156.214691L550.046021,157.437103z"/>
    <path transform="matrix(-1,0,0,1,0,0)" style="stroke:none;fill:#0000ff;fill-rule:evenodd" d="M553.481567,159.590912L553.481567,162.473236L553.025757,162.473236L553.025757,160.102142L551.71106,160.102142L551.71106,162.238617L551.257935,162.238617L551.257935,160.102142L550.075073,160.102142L550.075073,162.383636L549.619263,162.383636L549.619263,159.590912L553.481567,159.590912z"/>
    <path transform="matrix(-1,0,0,1,0,0)" style="stroke:none;fill:#0000ff;fill-rule:evenodd" d="M553.481567,166.821136L553.481567,169.703461L553.025757,169.703461L553.025757,167.332123L551.71106,167.332123L551.71106,169.468842L551.257935,169.468842L551.257935,167.332123L550.075073,167.332123L550.075073,169.613861L549.619263,169.613861L549.619263,166.821136L553.481567,166.821136z"/>
    <path transform="matrix(-1,0,0,1,0,0)" style="stroke:none;fill:#0000ff;fill-rule:evenodd" d="M550.075073,170.135834L550.075073,171.408295L553.481567,171.408295L553.481567,171.919525L550.075073,171.919525L550.075073,173.197113L549.619263,173.197113L549.619263,170.135834L550.075073,170.135834z"/>
    <path transform="matrix(-1,0,0,1,0,0)" style="stroke:none;fill:#0000ff;fill-rule:evenodd" d="M528.259155,130.402985C528.326904,129.551071,528.995178,128.869644,529.845581,128.785309C530.49292,128.659576,531.162659,128.829117,531.672241,129.247711C532.357178,129.91069,532.444153,130.977676,531.87561,131.742828C531.473022,132.214951,530.875366,132.474609,530.255493,132.446686C529.728577,132.465851,529.213623,132.286942,528.812134,131.945221C528.396973,131.545746,528.192383,130.97525,528.259155,130.402985zM528.702759,130.791412L528.739136,130.968414C528.885681,131.456879,529.305725,131.813995,529.811401,131.880035C530.273743,131.979111,530.755981,131.91925,531.180054,131.710114C531.663208,131.431396,531.908508,130.869995,531.78479,130.32608C531.665405,129.772537,531.202332,129.359283,530.638794,129.303375C530.176941,129.222519,529.700989,129.291489,529.281128,129.500153C528.850098,129.778503,528.623474,130.28447,528.702759,130.791412z"/>
    <path transform="matrix(-1,0,0,1,0,0)" style="stroke:none;fill:#0000ff;fill-rule:evenodd" d="M531.351685,135.664703L528.319214,133.636139L528.319214,133.111725L532.181519,133.111725L532.181519,133.601959L529.146362,133.601959L532.181519,135.630524L532.181519,136.154694L528.319214,136.154694L528.319214,135.664703L531.351685,135.664703z"/>
</svg>
