<?xml version="1.0" encoding="UTF-8"?>
<svg xmlns="http://www.w3.org/2000/svg" xmlns:xlink="http://www.w3.org/1999/xlink" width="766.000mm" height="312.000mm" viewBox="-683.150024 43.899933 766.000000 312.000122">
    <path transform="matrix(1,0,0,-1,177.150024,615.900085)" style="stroke:#ff0000;stroke-width:0.05mm;fill:none" d="M-507.299988,344.100006L-519.200012,344.100006L-519.200012,350.100006L-531.299988,350.100006L-531.299988,344.100006L-543.200012,344.100006L-543.200012,350.100006L-555.299988,350.100006L-555.299988,344.100006L-567.200012,344.100006L-567.200012,350.100006L-579.299988,350.100006L-579.299988,344.100006L-591.200012,344.100006L-591.200012,350.100006L-603.299988,350.100006L-603.299988,344.100006L-615.200012,344.100006L-615.200012,350.100006L-627.299988,350.100006L-627.299988,344.100006L-639.200012,344.100006L-639.200012,350.100006L-651.299988,350.100006L-651.299988,344.100006L-663.200012,344.100006L-663.200012,350.100006L-675.299988,350.100006L-675.299988,344.100006L-687.200012,344.100006L-687.200012,350.100006L-699.299988,350.100006L-699.299988,344.100006L-711.200012,344.100006L-711.200012,350.100006L-723.299988,350.100006L-723.299988,344.100006L-735.200012,344.100006L-735.200012,350.100006L-747.299988,350.100006L-747.299988,344.100006L-759.200012,344.100006L-759.200012,350.100006L-771.299988,350.100006L-771.299988,344.100006L-783.200012,344.100006L-783.200012,350.100006L-795.299988,350.100006L-795.299988,344.100006L-807.200012,344.100006L-807.200012,350.100006L-819.299988,350.100006L-819.299988,344.100006L-831.200012,344.100006L-831.200012,350.100006L-843.299988,350.100006L-843.299988,344.100006L-854.299988,344.100006L-854.299988,335.100006L-860.299988,335.100006L-860.299988,323L-854.299988,323L-854.299988,311.100006L-860.299988,311.100006L-860.299988,299L-854.299988,299L-854.299988,287.100006L-860.299988,287.100006L-860.299988,275L-854.299988,275L-854.299988,266L-843.299988,266L-843.299988,260L-831.200012,260L-831.200012,266L-819.299988,266L-819.299988,260L-807.200012,260L-807.200012,266L-795.299988,266L-795.299988,260L-783.200012,260L-783.200012,266L-771.299988,266L-771.299988,260L-759.200012,260L-759.200012,266L-747.299988,266L-747.299988,260L-735.200012,260L-735.200012,266L-723.299988,266L-723.299988,260L-711.200012,260L-711.200012,266L-699.299988,266L-699.299988,260L-687.200012,260L-687.200012,266L-675.299988,266L-675.299988,260L-663.200012,260L-663.200012,266L-651.299988,266L-651.299988,260L-639.200012,260L-639.200012,266L-627.299988,266L-627.299988,260L-615.200012,260L-615.200012,266L-603.299988,266L-603.299988,260L-591.200012,260L-591.200012,266L-579.299988,266L-579.299988,260L-567.200012,260L-567.200012,266L-555.299988,266L-555.299988,260L-543.200012,260L-543.200012,266L-531.299988,266L-531.299988,260L-519.200012,260L-519.200012,266L-507.299988,266L-507.299988,260L-495.200012,260L-495.200012,266L-484.200012,266L-484.200012,275L-478.200012,275L-478.200012,287.100006L-484.200012,287.100006L-484.200012,299L-478.200012,299L-478.200012,311.100006L-484.200012,311.100006L-484.200012,323L-478.200012,323L-478.200012,335.100006L-484.200012,335.100006L-484.200012,344.100006L-495.200012,344.100006L-495.200012,350.100006L-507.299988,350.100006L-507.299988,344.100006z"/>
    <circle transform="matrix(1,0,0,-1,-340.099945,310.850037)" style="stroke:#ff0000;stroke-width:0.05mm;fill:none" r="1.75" cx="0" cy="0"/>
    <circle transform="matrix(1,0,0,-1,-644.099976,310.849976)" style="stroke:#ff0000;stroke-width:0.05mm;fill:none" r="1.75" cx="0" cy="0"/>
    <path transform="matrix(-1,0,0,1,-299.25,-179.200073)" style="stroke:#ff0000;stroke-width:0.05mm;fill:none" d="M-17.1,437.200012L-29,437.200012L-29,443.200012L-41.099998,443.200012L-41.099998,437.200012L-53,437.200012L-53,443.200012L-65.099998,443.200012L-65.099998,437.200012L-77,437.200012L-77,443.200012L-89.099998,443.200012L-89.099998,437.200012L-101,437.200012L-101,443.200012L-113.099998,443.200012L-113.099998,437.200012L-125,437.200012L-125,443.200012L-137.100006,443.200012L-137.100006,437.200012L-149,437.200012L-149,443.200012L-161.100006,443.200012L-161.100006,437.200012L-173,437.200012L-173,443.200012L-185.100006,443.200012L-185.100006,437.200012L-197,437.200012L-197,443.200012L-209.100006,443.200012L-209.100006,437.200012L-221,437.200012L-221,443.200012L-233.100006,443.200012L-233.100006,437.200012L-245,437.200012L-245,443.200012L-257.100006,443.200012L-257.100006,437.200012L-269,437.200012L-269,443.200012L-281.100006,443.200012L-281.100006,437.200012L-293,437.200012L-293,443.200012L-305.100006,443.200012L-305.100006,437.200012L-317,437.200012L-317,443.200012L-329.100006,443.200012L-329.100006,437.200012L-341,437.200012L-341,443.200012L-353.100006,443.200012L-353.100006,437.200012L-365,437.200012L-365,443.200012L-382.100006,443.200012L-382.100006,423.100006L-376.100006,423.100006L-376.100006,411.200012L-382.100006,411.200012L-382.100006,399.100006L-376.100006,399.100006L-376.100006,387.200012L-382.100006,387.200012L-382.100006,375.100006L-376.100006,375.100006L-376.100006,363.200012L-382.100006,363.200012L-382.100006,351.100006L-376.100006,351.100006L-376.100006,339.200012L-382.100006,339.200012L-382.100006,327.100006L-376.100006,327.100006L-376.100006,315.200012L-382.100006,315.200012L-382.100006,303.100006L-376.100006,303.100006L-376.100006,291.200012L-382.100006,291.200012L-382.100006,279.100006L-376.100006,279.100006L-376.100006,267.200012L-382.100006,267.200012L-382.100006,255.100006L-376.100006,255.100006L-376.100006,243.199997L-382.100006,243.199997L-382.100006,223.100006L-365,223.100006L-365,229.100006L-353.100006,229.100006L-353.100006,223.100006L-341,223.100006L-341,229.100006L-329.100006,229.100006L-329.100006,223.100006L-317,223.100006L-317,229.100006L-305.100006,229.100006L-305.100006,223.100006L-293,223.100006L-293,229.100006L-281.100006,229.100006L-281.100006,223.100006L-269,223.100006L-269,229.100006L-257.100006,229.100006L-257.100006,223.100006L-245,223.100006L-245,229.100006L-233.100006,229.100006L-233.100006,223.100006L-221,223.100006L-221,229.100006L-209.100006,229.100006L-209.100006,223.100006L-197,223.100006L-197,229.100006L-185.100006,229.100006L-185.100006,223.100006L-173,223.100006L-173,229.100006L-161.100006,229.100006L-161.100006,223.100006L-149,223.100006L-149,229.100006L-137.100006,229.100006L-137.100006,223.100006L-125,223.100006L-125,229.100006L-113.099998,229.100006L-113.099998,223.100006L-101,223.100006L-101,229.100006L-89.099998,229.100006L-89.099998,223.100006L-77,223.100006L-77,229.100006L-65.099998,229.100006L-65.099998,223.100006L-53,223.100006L-53,229.100006L-41.099998,229.100006L-41.099998,223.100006L-29,223.100006L-29,229.100006L-17.1,229.100006L-17.1,223.100006L0,223.100006L0,243.199997L-6,243.199997L-6,255.100006L0,255.100006L0,267.200012L-6,267.200012L-6,279.100006L0,279.100006L0,291.200012L-6,291.200012L-6,303.100006L0,303.100006L0,315.200012L-6,315.200012L-6,327.100006L0,327.100006L0,339.200012L-6,339.200012L-6,351.100006L0,351.100006L0,363.200012L-6,363.200012L-6,375.100006L0,375.100006L0,387.200012L-6,387.200012L-6,399.100006L0,399.100006L0,411.200012L-6,411.200012L-6,423.100006L0,423.100006L0,443.200012L-17.1,443.200012L-17.1,437.200012z"/>
    <rect transform="matrix(-1,0,0,1,-108.200027,153.949921)" style="stroke:#ff0000;stroke-width:0.05mm;fill:none" x="-159.499985" y="-79.75" width="318.999969" height="159.5"/>
    <path transform="matrix(-1,0,0,1,-683.050049,-179.200058)" style="stroke:#ff0000;stroke-width:0.05mm;fill:none" d="M-17.1,437.200012L-29,437.200012L-29,443.200012L-41.099998,443.200012L-41.099998,437.200012L-53,437.200012L-53,443.200012L-65.099998,443.200012L-65.099998,437.200012L-77,437.200012L-77,443.200012L-89.099998,443.200012L-89.099998,437.200012L-101,437.200012L-101,443.200012L-113.099998,443.200012L-113.099998,437.200012L-125,437.200012L-125,443.200012L-137.100006,443.200012L-137.100006,437.200012L-149,437.200012L-149,443.200012L-161.100006,443.200012L-161.100006,437.200012L-173,437.200012L-173,443.200012L-185.100006,443.200012L-185.100006,437.200012L-197,437.200012L-197,443.200012L-209.100006,443.200012L-209.100006,437.200012L-221,437.200012L-221,443.200012L-233.100006,443.200012L-233.100006,437.200012L-245,437.200012L-245,443.200012L-257.100006,443.200012L-257.100006,437.200012L-269,437.200012L-269,443.200012L-281.100006,443.200012L-281.100006,437.200012L-293,437.200012L-293,443.200012L-305.100006,443.200012L-305.100006,437.200012L-317,437.200012L-317,443.200012L-329.100006,443.200012L-329.100006,437.200012L-341,437.200012L-341,443.200012L-353.100006,443.200012L-353.100006,437.200012L-365,437.200012L-365,443.200012L-382.100006,443.200012L-382.100006,423.100006L-376.100006,423.100006L-376.100006,411.200012L-382.100006,411.200012L-382.100006,399.100006L-376.100006,399.100006L-376.100006,387.200012L-382.100006,387.200012L-382.100006,375.100006L-376.100006,375.100006L-376.100006,363.200012L-382.100006,363.200012L-382.100006,351.100006L-376.100006,351.100006L-376.100006,339.200012L-382.100006,339.200012L-382.100006,327.100006L-376.100006,327.100006L-376.100006,315.200012L-382.100006,315.200012L-382.100006,303.100006L-376.100006,303.100006L-376.100006,291.200012L-382.100006,291.200012L-382.100006,279.100006L-376.100006,279.100006L-376.100006,267.200012L-382.100006,267.200012L-382.100006,255.100006L-376.100006,255.100006L-376.100006,243.199997L-382.100006,243.199997L-382.100006,223.100006L-365,223.100006L-365,229.100006L-353.100006,229.100006L-353.100006,223.100006L-341,223.100006L-341,229.100006L-329.100006,229.100006L-329.100006,223.100006L-317,223.100006L-317,229.100006L-305.100006,229.100006L-305.100006,223.100006L-293,223.100006L-293,229.100006L-281.100006,229.100006L-281.100006,223.100006L-269,223.100006L-269,229.100006L-257.100006,229.100006L-257.100006,223.100006L-245,223.100006L-245,229.100006L-233.100006,229.100006L-233.100006,223.100006L-221,223.100006L-221,229.100006L-209.100006,229.100006L-209.100006,223.100006L-197,223.100006L-197,229.100006L-185.100006,229.100006L-185.100006,223.100006L-173,223.100006L-173,229.100006L-161.100006,229.100006L-161.100006,223.100006L-149,223.100006L-149,229.100006L-137.100006,229.100006L-137.100006,223.100006L-125,223.100006L-125,229.100006L-113.099998,229.100006L-113.099998,223.100006L-101,223.100006L-101,229.100006L-89.099998,229.100006L-89.099998,223.100006L-77,223.100006L-77,229.100006L-65.099998,229.100006L-65.099998,223.100006L-53,223.100006L-53,229.100006L-41.099998,229.100006L-41.099998,223.100006L-29,223.100006L-29,229.100006L-17.1,229.100006L-17.1,223.100006L0,223.100006L0,243.199997L-6,243.199997L-6,255.100006L0,255.100006L0,267.200012L-6,267.200012L-6,279.100006L0,279.100006L0,291.200012L-6,291.200012L-6,303.100006L0,303.100006L0,315.200012L-6,315.200012L-6,327.100006L0,327.100006L0,339.200012L-6,339.200012L-6,351.100006L0,351.100006L0,363.200012L-6,363.200012L-6,375.100006L0,375.100006L0,387.200012L-6,387.200012L-6,399.100006L0,399.100006L0,411.200012L-6,411.200012L-6,423.100006L0,423.100006L0,443.200012L-17.1,443.200012L-17.1,437.200012z"/>
    <rect transform="matrix(-1,0,0,1,-492.000031,153.949936)" style="stroke:#ff0000;stroke-width:0.05mm;fill:none" x="-159.499985" y="-79.75" width="318.999969" height="159.5"/>
    <path transform="matrix(-1,0,0,1,-777.549988,-87.300056)" style="stroke:#ff0000;stroke-width:0.05mm;fill:none" d="M-507.299988,437.200012L-519.200012,437.200012L-519.200012,443.200012L-531.299988,443.200012L-531.299988,437.200012L-543.200012,437.200012L-543.200012,443.200012L-555.299988,443.200012L-555.299988,437.200012L-567.200012,437.200012L-567.200012,443.200012L-579.299988,443.200012L-579.299988,437.200012L-591.200012,437.200012L-591.200012,443.200012L-603.299988,443.200012L-603.299988,437.200012L-615.200012,437.200012L-615.200012,443.200012L-627.299988,443.200012L-627.299988,437.200012L-639.200012,437.200012L-639.200012,443.200012L-651.299988,443.200012L-651.299988,437.200012L-663.200012,437.200012L-663.200012,443.200012L-675.299988,443.200012L-675.299988,437.200012L-687.200012,437.200012L-687.200012,443.200012L-699.299988,443.200012L-699.299988,437.200012L-711.200012,437.200012L-711.200012,443.200012L-723.299988,443.200012L-723.299988,437.200012L-735.200012,437.200012L-735.200012,443.200012L-747.299988,443.200012L-747.299988,437.200012L-759.200012,437.200012L-759.200012,443.200012L-771.299988,443.200012L-771.299988,437.200012L-783.200012,437.200012L-783.200012,443.200012L-795.299988,443.200012L-795.299988,437.200012L-807.200012,437.200012L-807.200012,443.200012L-819.299988,443.200012L-819.299988,437.200012L-831.200012,437.200012L-831.200012,443.200012L-843.299988,443.200012L-843.299988,437.200012L-854.299988,437.200012L-854.299988,428.200012L-860.299988,428.200012L-860.299988,416.100006L-854.299988,416.100006L-854.299988,404.200012L-860.299988,404.200012L-860.299988,392.100006L-854.299988,392.100006L-854.299988,380.200012L-860.299988,380.200012L-860.299988,368.100006L-854.299988,368.100006L-854.299988,359.100006L-843.299988,359.100006L-843.299988,353.100006L-831.200012,353.100006L-831.200012,359.100006L-819.299988,359.100006L-819.299988,353.100006L-807.200012,353.100006L-807.200012,359.100006L-795.299988,359.100006L-795.299988,353.100006L-783.200012,353.100006L-783.200012,359.100006L-771.299988,359.100006L-771.299988,353.100006L-759.200012,353.100006L-759.200012,359.100006L-747.299988,359.100006L-747.299988,353.100006L-735.200012,353.100006L-735.200012,359.100006L-723.299988,359.100006L-723.299988,353.100006L-711.200012,353.100006L-711.200012,359.100006L-699.299988,359.100006L-699.299988,353.100006L-687.200012,353.100006L-687.200012,359.100006L-675.299988,359.100006L-675.299988,353.100006L-663.200012,353.100006L-663.200012,359.100006L-651.299988,359.100006L-651.299988,353.100006L-639.200012,353.100006L-639.200012,359.100006L-627.299988,359.100006L-627.299988,353.100006L-615.200012,353.100006L-615.200012,359.100006L-603.299988,359.100006L-603.299988,353.100006L-591.200012,353.100006L-591.200012,359.100006L-579.299988,359.100006L-579.299988,353.100006L-567.200012,353.100006L-567.200012,359.100006L-555.299988,359.100006L-555.299988,353.100006L-543.200012,353.100006L-543.200012,359.100006L-531.299988,359.100006L-531.299988,353.100006L-519.200012,353.100006L-519.200012,359.100006L-507.299988,359.100006L-507.299988,353.100006L-495.200012,353.100006L-495.200012,359.100006L-484.200012,359.100006L-484.200012,368.100006L-478.200012,368.100006L-478.200012,380.200012L-484.200012,380.200012L-484.200012,392.100006L-478.200012,392.100006L-478.200012,404.200012L-484.200012,404.200012L-484.200012,416.100006L-478.200012,416.100006L-478.200012,428.200012L-484.200012,428.200012L-484.200012,437.200012L-495.200012,437.200012L-495.200012,443.200012L-507.299988,443.200012L-507.299988,437.200012z"/>
    <circle transform="matrix(0.282222,0,0,0.282222,-70.770004,328.374939)" style="stroke:#ff0000;stroke-width:0.05mm;fill:none" r="6.200792" cx="0" cy="0"/>
    <circle transform="matrix(0.282222,0,0,0.282222,-70.770004,293.374939)" style="stroke:#ff0000;stroke-width:0.05mm;fill:none" r="6.200792" cx="0" cy="0"/>
    <circle transform="matrix(0.282222,0,0,0.282222,-145.770004,293.374939)" style="stroke:#ff0000;stroke-width:0.05mm;fill:none" r="6.200792" cx="0" cy="0"/>
    <circle transform="matrix(0.282222,0,0,0.282222,-108.270004,310.874939)" style="stroke:#ff0000;stroke-width:0.05mm;fill:none" r="35.433102" cx="0" cy="0"/>
    <circle transform="matrix(0.282222,0,0,0.282222,-145.770004,328.374939)" style="stroke:#ff0000;stroke-width:0.05mm;fill:none" r="6.200792" cx="0" cy="0"/>
    <circle transform="matrix(0.282222,0,0,0.282222,9.229996,328.374939)" style="stroke:#ff0000;stroke-width:0.05mm;fill:none" r="6.200792" cx="0" cy="0"/>
    <circle transform="matrix(0.282222,0,0,0.282222,9.229996,293.374939)" style="stroke:#ff0000;stroke-width:0.05mm;fill:none" r="6.200792" cx="0" cy="0"/>
    <circle transform="matrix(0.282222,0,0,0.282222,64.229996,293.374939)" style="stroke:#ff0000;stroke-width:0.05mm;fill:none" r="6.200792" cx="0" cy="0"/>
    <circle transform="matrix(0.282222,0,0,0.282222,64.229996,328.374939)" style="stroke:#ff0000;stroke-width:0.05mm;fill:none" r="6.200792" cx="0" cy="0"/>
    <circle transform="matrix(0.282222,0,0,0.282222,-225.770004,328.374939)" style="stroke:#ff0000;stroke-width:0.05mm;fill:none" r="6.200792" cx="0" cy="0"/>
    <circle transform="matrix(0.282222,0,0,0.282222,-280.77002,328.374939)" style="stroke:#ff0000;stroke-width:0.05mm;fill:none" r="6.200792" cx="0" cy="0"/>
    <circle transform="matrix(0.282222,0,0,0.282222,-280.77002,293.374939)" style="stroke:#ff0000;stroke-width:0.05mm;fill:none" r="6.200792" cx="0" cy="0"/>
    <circle transform="matrix(0.282222,0,0,0.282222,-225.770004,293.374939)" style="stroke:#ff0000;stroke-width:0.05mm;fill:none" r="6.200792" cx="0" cy="0"/>
    <path transform="matrix(0,-1,-1,-0,232.750061,-278.204041)" style="stroke:#ff0000;stroke-width:0.05mm;fill:none" d="M-400.200012,437.200012L-412.100006,437.200012L-412.100006,443.200012L-424.200012,443.200012L-424.200012,437.200012L-436.100006,437.200012L-436.100006,443.200012L-448.200012,443.200012L-448.200012,437.200012L-460.100006,437.200012L-460.100006,443.200012L-469.200012,443.200012L-469.200012,423.200012L-475.200012,423.200012L-475.200012,411.100006L-469.200012,411.100006L-469.200012,399.200012L-475.200012,399.200012L-475.200012,387.100006L-469.200012,387.100006L-469.200012,375.200012L-475.200012,375.200012L-475.200012,363.100006L-469.200012,363.100006L-469.200012,351.200012L-475.200012,351.200012L-475.200012,339.100006L-469.200012,339.100006L-469.200012,327.200012L-475.200012,327.200012L-475.200012,315.100006L-469.200012,315.100006L-469.200012,303.200012L-475.200012,303.200012L-475.200012,291.100006L-469.200012,291.100006L-469.200012,279.200012L-475.200012,279.200012L-475.200012,267.100006L-469.200012,267.100006L-469.200012,255.199997L-475.200012,255.199997L-475.200012,243.100006L-469.200012,243.100006L-469.200012,223.100006L-460.100006,223.100006L-460.100006,229.100006L-448.200012,229.100006L-448.200012,223.100006L-436.100006,223.100006L-436.100006,229.100006L-424.200012,229.100006L-424.200012,223.100006L-412.100006,223.100006L-412.100006,229.100006L-400.200012,229.100006L-400.200012,223.100006L-391.100006,223.100006L-391.100006,243.100006L-385.100006,243.100006L-385.100006,255.199997L-391.100006,255.199997L-391.100006,267.100006L-385.100006,267.100006L-385.100006,279.200012L-391.100006,279.200012L-391.100006,291.100006L-385.100006,291.100006L-385.100006,303.200012L-391.100006,303.200012L-391.100006,315.100006L-385.100006,315.100006L-385.100006,327.200012L-391.100006,327.200012L-391.100006,339.100006L-385.100006,339.100006L-385.100006,351.200012L-391.100006,351.200012L-391.100006,363.100006L-385.100006,363.100006L-385.100006,375.200012L-391.100006,375.200012L-391.100006,387.100006L-385.100006,387.100006L-385.100006,399.200012L-391.100006,399.200012L-391.100006,411.100006L-385.100006,411.100006L-385.100006,423.200012L-391.100006,423.200012L-391.100006,443.200012L-400.200012,443.200012L-400.200012,437.200012z"/>
    <rect transform="matrix(-0,0.282222,-0.282222,-0,-180.718948,160.970947)" style="stroke:#ff0000;stroke-width:0.05mm;fill:none" x="-28.346479" y="-23.740177" width="56.692959" height="47.480354" rx="0.354331"/>
    <circle transform="matrix(-0,0.282222,-0.282222,-0,-181.018967,138.970947)" style="stroke:#ff0000;stroke-width:0.05mm;fill:none" r="19.488205" cx="0" cy="0"/>
    <path transform="matrix(0,-1,-1,-0,235.925079,-659.380005)" style="stroke:#ff0000;stroke-width:0.05mm;fill:none" d="M-800.110413,321.428772L-799.068604,321.428772L-797.239258,315.357819C-797.152466,315.089111,-797.055298,314.750092,-796.947815,314.34082C-796.840332,313.931549,-796.784546,313.685577,-796.780396,313.602875C-796.689453,314.14859,-796.544739,314.745972,-796.346313,315.39502L-794.572754,321.428772L-793.531006,321.428772L-791.118713,312.36264L-792.234924,312.36264L-793.667419,317.962311C-793.865845,318.747803,-794.010559,319.458862,-794.101501,320.09552C-794.213135,319.338989,-794.378479,318.598969,-794.597595,317.875488L-796.22229,312.362671L-797.338501,312.362671L-799.043823,317.92511C-799.242249,318.565887,-799.409668,319.289368,-799.546143,320.09552C-799.624695,319.508484,-799.773499,318.793274,-799.992615,317.949921L-801.418884,312.362671L-802.535095,312.362671L-800.110413,321.428772z"/>
    <path transform="matrix(0,-1,-1,-0,235.925079,-659.380005)" style="stroke:#ff0000;stroke-width:0.05mm;fill:none" d="M-811.824463,316.883301C-811.824463,318.334381,-811.457581,319.475403,-810.723755,320.306366C-809.989929,321.137329,-808.969849,321.552795,-807.663452,321.552795C-806.328186,321.552795,-805.297729,321.144562,-804.572205,320.328064C-803.84668,319.511566,-803.483887,318.359192,-803.483887,316.870911C-803.483887,315.39502,-803.847717,314.250916,-804.575317,313.438568C-805.302917,312.626221,-806.336426,312.220032,-807.675903,312.220032C-808.978149,312.220032,-809.995117,312.633453,-810.726868,313.460266C-811.458618,314.287079,-811.824463,315.428101,-811.824463,316.883301z"/>
    <path transform="matrix(0,-1,-1,-0,235.925079,-659.380005)" style="stroke:#ff0000;stroke-width:0.05mm;fill:none" d="M-804.600098,316.883301C-804.600098,318.111145,-804.861572,319.042358,-805.384521,319.676941C-805.907532,320.311523,-806.667175,320.628845,-807.663452,320.628845C-808.668091,320.628845,-809.426697,320.312561,-809.939331,319.680054C-810.451904,319.047546,-810.708252,318.115295,-810.708252,316.883331C-810.708252,315.663757,-810.452942,314.738739,-809.942383,314.108307C-809.431824,313.477844,-808.676331,313.162628,-807.675903,313.162628C-806.671265,313.162628,-805.907532,313.479919,-805.384521,314.114502C-804.861572,314.749084,-804.600098,315.672028,-804.600098,316.883301z"/>
    <path transform="matrix(0,-1,-1,-0,235.925079,-659.380005)" style="stroke:#ff0000;stroke-width:0.05mm;fill:none" d="M-821.715332,316.883301C-821.715332,318.334381,-821.34845,319.475403,-820.614624,320.306366C-819.880798,321.137329,-818.860718,321.552795,-817.554321,321.552795C-816.219055,321.552795,-815.188599,321.144562,-814.463074,320.328064C-813.737549,319.511566,-813.374756,318.359192,-813.374756,316.870911C-813.374756,315.39502,-813.738586,314.250916,-814.466187,313.438568C-815.193787,312.626221,-816.227295,312.220032,-817.566772,312.220032C-818.869019,312.220032,-819.885986,312.633453,-820.617737,313.460266C-821.349487,314.287079,-821.715332,315.428101,-821.715332,316.883301z"/>
    <path transform="matrix(0,-1,-1,-0,235.925079,-659.380005)" style="stroke:#ff0000;stroke-width:0.05mm;fill:none" d="M-814.490967,316.883301C-814.490967,318.111145,-814.752441,319.042358,-815.275391,319.676941C-815.798401,320.311523,-816.558044,320.628845,-817.554321,320.628845C-818.55896,320.628845,-819.317566,320.312561,-819.8302,319.680054C-820.342773,319.047546,-820.599121,318.115295,-820.599121,316.883331C-820.599121,315.663757,-820.343811,314.738739,-819.833252,314.108307C-819.322693,313.477844,-818.5672,313.162628,-817.566772,313.162628C-816.562134,313.162628,-815.798401,313.479919,-815.275391,314.114502C-814.752441,314.749084,-814.490967,315.672028,-814.490967,316.883301z"/>
    <path transform="matrix(0,-1,-1,-0,235.925079,-659.380005)" style="stroke:#ff0000;stroke-width:0.05mm;fill:none" d="M-830.973694,316.808899C-830.973694,318.30545,-830.567505,319.449554,-829.755127,320.241241C-828.94281,321.032928,-827.773865,321.428772,-826.248413,321.428772L-823.736938,321.428772L-823.736938,312.362671L-826.515015,312.362671C-827.924744,312.362671,-829.020325,312.753326,-829.801636,313.534668C-830.583008,314.31604,-830.973694,315.40744,-830.973694,316.808899z"/>
    <path transform="matrix(0,-1,-1,-0,235.925079,-659.380005)" style="stroke:#ff0000;stroke-width:0.05mm;fill:none" d="M-829.857483,316.8461C-829.857483,315.663757,-829.560852,314.772858,-828.96759,314.173401C-828.37439,313.573944,-827.492737,313.274231,-826.322815,313.274231L-824.791138,313.274231L-824.791138,320.517212L-826.074768,320.517212C-827.331543,320.517212,-828.276184,320.208191,-828.908691,319.590118C-829.541199,318.972076,-829.857483,318.057404,-829.857483,316.8461z"/>
    <path transform="matrix(0,-1,-1,-0,235.925079,-659.380005)" style="stroke:#ff0000;stroke-width:0.05mm;fill:none" d="M-790.864502,292.362671L-791.999268,292.36264L-788.731262,301.428772L-787.689453,301.428772L-784.440063,292.36264L-785.556274,292.36264L-787.639893,298.228973C-787.879639,298.902832,-788.069824,299.558075,-788.210388,300.194733C-788.359192,299.525024,-788.553528,298.857361,-788.793274,298.191772L-790.864502,292.362671z"/>
    <path transform="matrix(0,-1,-1,-0,235.925079,-659.380005)" style="stroke:#ff0000;stroke-width:0.05mm;fill:none" d="M-800.091797,292.362671L-800.091797,298.228973C-800.091797,299.262512,-799.779663,300.07486,-799.155396,300.666046C-798.531189,301.257202,-797.67334,301.552795,-796.581909,301.552795C-795.49054,301.552795,-794.646118,301.255157,-794.048767,300.659821C-793.451355,300.064514,-793.15271,299.245972,-793.15271,298.204163L-793.15271,292.362671L-794.206909,292.362671L-794.206909,298.278595C-794.206909,299.035126,-794.413574,299.615967,-794.827026,300.021118C-795.240417,300.426239,-795.848145,300.628815,-796.650146,300.628815C-797.414978,300.628815,-798.004089,300.425232,-798.41748,300.018005C-798.830872,299.610809,-799.037598,299.026855,-799.037598,298.266174L-799.037598,292.362671L-800.091797,292.362671z"/>
    <path transform="matrix(0,-1,-1,-0,235.925079,-659.380005)" style="stroke:#ff0000;stroke-width:0.05mm;fill:none" d="M-802.491699,301.428772L-802.491699,292.362671L-803.545898,292.362671L-803.545898,300.473785L-807.545654,300.473785L-807.545654,301.428772L-802.491699,301.428772z"/>
    <path transform="matrix(0,-1,-1,-0,235.925079,-659.380005)" style="stroke:#ff0000;stroke-width:0.05mm;fill:none" d="M-811.874084,301.428772L-810.819885,301.428772L-810.819885,293.299042L-807.94873,293.299042L-807.94873,292.362671L-814.745178,292.362671L-814.745178,293.299042L-811.874084,293.299042L-811.874084,301.428772z"/>
    <path transform="matrix(0,-1,-1,-0,235.925079,-659.380005)" style="stroke:#ff0000;stroke-width:0.05mm;fill:none" d="M-822.955566,292.362671L-822.955566,298.228973C-822.955566,299.262512,-822.643433,300.07486,-822.019165,300.666046C-821.394958,301.257202,-820.537109,301.552795,-819.445679,301.552795C-818.354309,301.552795,-817.509888,301.255157,-816.912537,300.659821C-816.315125,300.064514,-816.016479,299.245972,-816.016479,298.204163L-816.016479,292.362671L-817.070679,292.362671L-817.070679,298.278595C-817.070679,299.035126,-817.277344,299.615967,-817.690796,300.021118C-818.104187,300.426239,-818.711914,300.628815,-819.513916,300.628815C-820.278748,300.628815,-820.867859,300.425232,-821.28125,300.018005C-821.694641,299.610809,-821.901367,299.026855,-821.901367,298.266174L-821.901367,292.362671L-822.955566,292.362671z"/>
    <path transform="matrix(0,-1,-1,-0,235.925079,-659.380005)" style="stroke:#ff0000;stroke-width:0.05mm;fill:none" d="M-826.409607,297.658447L-826.409607,301.428772L-825.355408,301.428772L-825.355408,292.362671L-827.842041,292.362671C-828.954102,292.362671,-829.775757,292.575562,-830.307007,293.001373C-830.838257,293.427185,-831.103882,294.067993,-831.103882,294.923737C-831.103882,296.12262,-830.496155,296.932922,-829.280701,297.354614L-831.742615,301.428772L-830.496155,301.428772L-828.300964,297.658447L-826.409607,297.658447z"/>
    <path transform="matrix(0,-1,-1,-0,235.925079,-659.380005)" style="stroke:#ff0000;stroke-width:0.05mm;fill:none" d="M-826.409607,296.753082L-827.854431,296.753082C-828.598572,296.753082,-829.144287,296.605316,-829.491577,296.309723C-829.838806,296.01413,-830.012451,295.57074,-830.012451,294.979553C-830.012451,294.380096,-829.835754,293.94809,-829.482239,293.683502C-829.128784,293.418915,-828.561401,293.286621,-827.780029,293.286621L-826.409607,293.286621L-826.409607,296.753082z"/>
    <path transform="matrix(0,-1,-1,-0,235.925079,-659.380005)" style="stroke:#ff0000;stroke-width:0.05mm;fill:none" d="M-838.260071,301.428772L-833.206116,301.428772L-833.206116,292.362671L-838.260071,292.362671L-838.260071,293.299042L-834.260315,293.299042L-834.260315,296.219788L-838.018188,296.219788L-838.018188,297.149963L-834.260315,297.149963L-834.260315,300.486206L-838.260071,300.486206L-838.260071,301.428772z"/>
    <path transform="matrix(0,-1,-1,-0,235.925079,-659.380005)" style="stroke:#ff0000;stroke-width:0.05mm;fill:none" d="M-790.833496,341.428772L-785.779541,341.428772L-785.779541,332.362671L-790.833496,332.362671L-790.833496,333.299042L-786.83374,333.299042L-786.83374,336.219788L-790.591614,336.219788L-790.591614,337.149963L-786.83374,337.149963L-786.83374,340.486206L-790.833496,340.486206L-790.833496,341.428772z"/>
    <path transform="matrix(0,-1,-1,-0,235.925079,-659.380005)" style="stroke:#ff0000;stroke-width:0.05mm;fill:none" d="M-792.079956,341.428772L-792.079956,332.362671L-793.134155,332.362671L-793.134155,340.473785L-797.133911,340.473785L-797.133911,341.428772L-792.079956,341.428772z"/>
    <path transform="matrix(0,-1,-1,-0,235.925079,-659.380005)" style="stroke:#ff0000;stroke-width:0.05mm;fill:none" d="M-803.725708,341.428772L-798.671753,341.428772L-798.671753,332.362671L-803.725708,332.362671L-803.725708,333.299042L-799.725952,333.299042L-799.725952,336.219788L-803.483826,336.219788L-803.483826,337.149963L-799.725952,337.149963L-799.725952,340.486206L-803.725708,340.486206L-803.725708,341.428772z"/>
    <path transform="matrix(0,-1,-1,-0,235.925079,-659.380005)" style="stroke:#ff0000;stroke-width:0.05mm;fill:none" d="M-808.854065,333.175018C-807.857727,333.175018,-807.071228,333.506775,-806.494568,334.170319C-805.917847,334.833832,-805.629456,335.74231,-805.629456,336.895721C-805.629456,338.082214,-805.907471,338.998962,-806.463562,339.645935C-807.019592,340.292908,-807.812317,340.616425,-808.841675,340.616425C-809.474182,340.616425,-810.195618,340.502747,-811.00592,340.27536L-811.00592,341.199341C-810.377502,341.434967,-809.602356,341.552795,-808.680481,341.552795C-807.345154,341.552795,-806.314697,341.147644,-805.589172,340.337372C-804.863647,339.527069,-804.500854,338.375732,-804.500854,336.883301C-804.500854,335.949005,-804.675537,335.130432,-805.024841,334.427643C-805.374207,333.724854,-805.87854,333.183289,-806.537964,332.802948C-807.197327,332.422607,-807.973511,332.232422,-808.866516,332.232422C-809.817322,332.232422,-810.648315,332.406067,-811.359375,332.753326L-810.912903,333.658691C-810.226624,333.336243,-809.540344,333.175018,-808.854065,333.175018z"/>
    <path transform="matrix(0,-1,-1,-0,235.925079,-659.380005)" style="stroke:#ff0000;stroke-width:0.05mm;fill:none" d="M-815.774597,341.428772L-814.720398,341.428772L-814.720398,333.299042L-811.849243,333.299042L-811.849243,332.362671L-818.645691,332.362671L-818.645691,333.299042L-815.774597,333.299042L-815.774597,341.428772z"/>
    <path transform="matrix(0,-1,-1,-0,235.925079,-659.380005)" style="stroke:#ff0000;stroke-width:0.05mm;fill:none" d="M-821.064209,337.658447L-821.064209,341.428772L-820.01001,341.428772L-820.01001,332.362671L-822.496643,332.362671C-823.608704,332.362671,-824.430359,332.575562,-824.961609,333.001373C-825.492859,333.427185,-825.758484,334.067993,-825.758484,334.923737C-825.758484,336.12262,-825.150757,336.932922,-823.935303,337.354614L-826.397217,341.428772L-825.150757,341.428772L-822.955566,337.658447L-821.064209,337.658447z"/>
    <path transform="matrix(0,-1,-1,-0,235.925079,-659.380005)" style="stroke:#ff0000;stroke-width:0.05mm;fill:none" d="M-821.064209,336.753082L-822.509033,336.753082C-823.253174,336.753082,-823.798889,336.605316,-824.146179,336.309723C-824.493408,336.01413,-824.667053,335.57074,-824.667053,334.979553C-824.667053,334.380096,-824.490356,333.94809,-824.136841,333.683502C-823.783386,333.418915,-823.216003,333.286621,-822.434631,333.286621L-821.064209,333.286621L-821.064209,336.753082z"/>
    <path transform="matrix(0,-1,-1,-0,235.925079,-659.380005)" style="stroke:#ff0000;stroke-width:0.05mm;fill:none" d="M-827.860718,341.428772L-827.860718,332.362671L-828.914917,332.362671L-828.914917,341.428772L-827.860718,341.428772z"/>
    <path transform="matrix(0,-1,-1,-0,235.925079,-659.380005)" style="stroke:#ff0000;stroke-width:0.05mm;fill:none" d="M-835.283447,333.175018C-834.287109,333.175018,-833.50061,333.506775,-832.92395,334.170319C-832.347229,334.833832,-832.058838,335.74231,-832.058838,336.895721C-832.058838,338.082214,-832.336853,338.998962,-832.892944,339.645935C-833.448975,340.292908,-834.241699,340.616425,-835.271057,340.616425C-835.903564,340.616425,-836.625,340.502747,-837.435303,340.27536L-837.435303,341.199341C-836.806885,341.434967,-836.031738,341.552795,-835.109863,341.552795C-833.774536,341.552795,-832.74408,341.147644,-832.018555,340.337372C-831.29303,339.527069,-830.930237,338.375732,-830.930237,336.883301C-830.930237,335.949005,-831.104919,335.130432,-831.454224,334.427643C-831.803589,333.724854,-832.307922,333.183289,-832.967346,332.802948C-833.626709,332.422607,-834.402893,332.232422,-835.295898,332.232422C-836.246704,332.232422,-837.077698,332.406067,-837.788757,332.753326L-837.342285,333.658691C-836.656006,333.336243,-835.969727,333.175018,-835.283447,333.175018z"/>
    <path transform="matrix(0,-1,-1,-0,-381.950012,-276.200073)" style="stroke:#ff0000;stroke-width:0.05mm;fill:none" d="M-400.200012,214.100006L-412.100006,214.100006L-412.100006,220.100006L-424.200012,220.100006L-424.200012,214.100006L-436.100006,214.100006L-436.100006,220.100006L-448.200012,220.100006L-448.200012,214.100006L-460.100006,214.100006L-460.100006,220.100006L-469.200012,220.100006L-469.200012,200.100006L-475.200012,200.100006L-475.200012,188L-469.200012,188L-469.200012,176.100006L-475.200012,176.100006L-475.200012,164L-469.200012,164L-469.200012,152.100006L-475.200012,152.100006L-475.200012,140L-469.200012,140L-469.200012,128.100006L-475.200012,128.100006L-475.200012,116L-469.200012,116L-469.200012,104.099998L-475.200012,104.099998L-475.200012,92L-469.200012,92L-469.200012,80.099998L-475.200012,80.099998L-475.200012,68L-469.200012,68L-469.200012,56.099998L-475.200012,56.099998L-475.200012,44L-469.200012,44L-469.200012,32.099998L-475.200012,32.099998L-475.200012,20L-469.200012,20L-469.200012,0L-460.100006,0L-460.100006,6L-448.200012,6L-448.200012,0L-436.100006,0L-436.100006,6L-424.200012,6L-424.200012,0L-412.100006,0L-412.100006,6L-400.200012,6L-400.200012,0L-391.100006,0L-391.100006,20L-385.100006,20L-385.100006,32.099998L-391.100006,32.099998L-391.100006,44L-385.100006,44L-385.100006,56.099998L-391.100006,56.099998L-391.100006,68L-385.100006,68L-385.100006,80.099998L-391.100006,80.099998L-391.100006,92L-385.100006,92L-385.100006,104.099998L-391.100006,104.099998L-391.100006,116L-385.100006,116L-385.100006,128.100006L-391.100006,128.100006L-391.100006,140L-385.100006,140L-385.100006,152.100006L-391.100006,152.100006L-391.100006,164L-385.100006,164L-385.100006,176.100006L-391.100006,176.100006L-391.100006,188L-385.100006,188L-385.100006,200.100006L-391.100006,200.100006L-391.100006,220.100006L-400.200012,220.100006L-400.200012,214.100006z"/>
    <circle transform="matrix(-0,0.282222,-0.282222,-0,-522.054077,178.97493)" style="stroke:#ff0000;stroke-width:0.05mm;fill:none" r="28.346479" cx="0" cy="0"/>
    <circle transform="matrix(-0,0.282222,-0.282222,-0,-522.054077,153.97493)" style="stroke:#ff0000;stroke-width:0.05mm;fill:none" r="21.259859" cx="0" cy="0"/>
    <path transform="matrix(0,-1,-1,-0,-522.312012,130.842941)" style="stroke:#ff0000;stroke-width:0.05mm;fill:none" d="M3.202602,-4.800013L-4.800013,-4.800013L-4.800013,4.800013L4.800013,4.800013L4.800013,-3.193752L3.202602,-4.800013z"/>
    <path transform="matrix(-1,0,0,1,0,0)" style="stroke:none;fill:#0000ff;fill-rule:evenodd" d="M457.357727,155.025345L456.215698,155.016327L456.204254,154.578796C456.195801,154.255493,456.195648,153.652588,456.195648,153.391464C456.195648,153.201813,456.199554,153.366425,456.196045,152.790649C456.952576,152.792908,456.944916,152.792389,457.042419,152.792389L457.901428,152.804474L458.489319,152.812424L458.494507,153.923401L458.499725,155.034378L457.357727,155.025345z"/>
    <path transform="matrix(-1,0,0,1,0,0)" style="stroke:none;fill:#0000ff;fill-rule:evenodd" d="M437.097473,192.642868C437.075043,192.926514,437.005737,193.480515,436.956024,193.773804C436.906372,194.066498,436.942719,194.087234,436.476807,193.500381C435.882385,192.751648,435.434692,192.25528,434.598816,191.418121C433.042816,189.859802,432.004486,189.025848,428.526733,186.54129C425.88028,184.65062,424.984253,183.934601,423.878418,182.826706C423.219788,182.16687,422.879059,181.775864,422.370087,181.095825C421.527039,179.96936,420.834351,178.626556,420.350006,177.179901C420.202545,176.739502,420.127533,176.491516,419.999512,175.964264C419.744568,174.914566,419.490753,173.297455,419.490753,172.723145L419.490753,172.557861L421.023468,172.535461C422.56604,172.512924,423.201172,172.469574,424.3909,172.305557C424.716797,172.260635,425.000793,172.234604,425.022003,172.247726C425.043243,172.260834,425.060638,172.311066,425.060699,172.35936C425.060852,172.488541,425.275818,173.311142,425.42395,173.749451C426.034454,175.555786,427.229279,177.404602,429.140045,179.499619C429.388611,179.772186,432.766235,183.273941,433.479065,184.087738C435.683807,186.604797,436.726654,188.605392,437.040466,190.919815C437.087921,191.269745,437.122772,192.32309,437.097473,192.642868z"/>
    <path transform="matrix(-1,0,0,1,0,0)" style="stroke:none;fill:#0000ff;fill-rule:evenodd" d="M460.994141,150.388748C460.823425,150.725555,460.816772,150.726929,459.268433,150.74144C458.246613,150.751022,457.334259,150.751373,456.553314,150.741776C455.579987,150.729797,455.483429,150.72226,455.358368,150.64859C455.179932,150.543503,455.077209,150.400925,455.047333,150.216888C455.027679,150.095642,455.0354,150.067566,455.08847,150.067566C455.12439,150.067566,455.153809,150.049545,455.153809,150.027496C455.153809,150.005463,455.124817,149.987427,455.089355,149.987427C455.039429,149.987427,455.030823,149.962616,455.051086,149.877228C455.087982,149.721985,455.199646,149.580032,455.358337,149.486542C455.489136,149.409515,455.577759,149.405945,457.637512,149.394714C459.614075,149.383926,459.984222,149.386627,460.176971,149.387589C460.363739,149.388504,460.655914,149.426178,460.774292,149.494095C460.930206,149.583557,461.08429,149.868607,461.08429,150.067566C461.08429,150.146393,461.043732,150.290909,460.994141,150.388748z"/>
    <path transform="matrix(-1,0,0,1,0,0)" style="stroke:none;fill:#0000ff;fill-rule:evenodd" d="M460.994141,158.202576C460.940735,158.307907,460.846802,158.413498,460.763733,158.461502C460.626953,158.540558,460.560211,158.542557,458.05896,158.542557C455.566498,158.542557,455.490601,158.540314,455.358368,158.462418C455.146057,158.337357,455.060822,158.193695,455.043762,157.932007C455.025879,157.657745,455.110535,157.46936,455.314087,157.330414C455.445221,157.240906,455.661621,157.2043,455.615143,157.279495C455.580383,157.335739,455.666901,157.480682,455.73526,157.480682C455.777985,157.480682,455.786713,157.449509,455.76889,157.360474L455.744873,157.24025L458.184814,157.24025C460.468506,157.24025,460.633667,157.244934,460.764374,157.313339C460.930664,157.400406,461.08429,157.673172,461.08429,157.881393C461.08429,157.960205,461.043732,158.104736,460.994141,158.202576z"/>
    <path transform="matrix(-1,0,0,1,0,0)" style="stroke:none;fill:#0000ff;fill-rule:evenodd" d="M469.06842,173.544479C466.652679,172.837921,463.874481,172.364075,460.0625,172.008423C459.467438,171.952911,457.673279,171.807541,456.075439,171.685394C451.144897,171.308456,449.263702,171.109177,446.97937,170.721832C445.820007,170.525253,445.199829,170.394363,445.182587,170.342651C445.157715,170.268036,444.973053,170.215698,444.912354,170.266068C444.872375,170.299255,444.761078,170.288406,444.476471,170.223572C444.266235,170.175674,444.094269,170.120514,444.094269,170.100967C444.094269,170.081436,444.068176,170.075455,444.036285,170.087692C444.004395,170.09993,443.88269,170.082687,443.765808,170.049393C443.648926,170.016083,443.477417,169.968964,443.384674,169.944656C443.262329,169.912598,443.22226,169.884262,443.238708,169.841446C443.252533,169.805389,443.23761,169.78244,443.200287,169.78244C443.166718,169.78244,443.132507,169.802628,443.124268,169.827316C443.095978,169.912201,441.326294,169.33284,440.207397,168.872406C438.71817,168.259583,437.076782,167.353912,435.889252,166.489822L435.647034,166.313568L435.958435,165.854126C436.549805,164.981491,437.060699,164.008453,437.467224,162.980408L437.661346,162.489532L440.899658,162.489532L444.137939,162.489532L444.426636,162.684204C445.693481,163.538422,447.292267,164.196808,449.403656,164.733704C450.366364,164.978531,452.211182,165.337341,454.06189,165.639725C455.269684,165.837067,455.714813,165.924057,455.714813,165.962784C455.714813,166.024963,455.801727,166.033051,455.858612,165.976166C455.96283,165.871948,460.416107,166.743652,460.496613,166.884033C460.518951,166.922958,460.565704,166.934464,460.637421,166.918701C460.762421,166.891266,461.565674,167.110779,462.466736,167.41864C465.603607,168.490402,467.649719,170.091263,468.833374,172.399841C469.022644,172.768967,469.339355,173.518448,469.33902,173.596359C469.338959,173.611328,469.217194,173.587982,469.06842,173.544479z"/>
    <path transform="matrix(-1,0,0,1,0,0)" style="stroke:none;fill:#0000ff;fill-rule:evenodd" d="M460.345032,156.331299C460.315063,156.415405,460.257294,156.520935,460.216675,156.565796C460.039276,156.761841,460.070892,156.759399,457.695007,156.759399C455.498077,156.759399,455.461731,156.758118,455.327606,156.675232C455.12793,156.551819,455.020569,156.316055,455.042664,156.0495C455.062927,155.805359,455.153961,155.657639,455.358368,155.537247C455.486786,155.461594,455.578278,155.456436,456.990753,155.445251C458.048523,155.436859,459.732391,155.423737,459.924011,155.476959C460.108429,155.528198,460.30426,155.735672,460.359161,155.937958C460.412659,156.135071,460.412384,156.142487,460.345032,156.331299z"/>
    <path transform="matrix(-1,0,0,1,0,0)" style="stroke:none;fill:#0000ff;fill-rule:evenodd" d="M423.390289,120.475243C423.257294,122.00679,422.769592,123.527901,421.315369,126.946686C420.344482,129.229126,419.946167,130.28299,419.543335,131.634979C419.271088,132.548676,418.996124,133.882385,418.898987,134.760498L418.825836,135.421677L418.306793,135.451111C417.658386,135.487869,416.636749,135.580765,415.91037,135.669006C415.473206,135.722092,415.338989,135.726196,415.27832,135.688324C415.196777,135.63739,415.042877,135.686646,415.042877,135.763687C415.042877,135.784943,415.009338,135.802338,414.968353,135.802338C414.905609,135.802338,414.880371,135.734283,414.808685,135.371582C414.32489,132.924088,414.615021,130.575363,415.723175,127.968491C415.967987,127.39257,416.587616,126.176849,416.968964,125.52417C417.588318,124.464218,418.256775,123.454216,419.926056,121.056267C421.255157,119.147003,421.978851,118.01403,422.509552,117.011719L422.730927,116.593582L422.832428,116.823051C423.088257,117.401573,423.298035,118.206657,423.376801,118.912476C423.414398,119.249405,423.421844,120.111977,423.390289,120.475243z"/>
    <path transform="matrix(-1,0,0,1,0,0)" style="stroke:none;fill:#0000ff;fill-rule:evenodd" d="M459.377106,159.014801C459.409363,159.023666,459.973083,159.040283,460.028076,159.063263C460.240082,159.057877,460.489502,159.568253,460.365326,159.830246C460.318176,160.025345,460.179199,160.190186,460.002106,160.261047C459.860443,160.317734,459.576019,160.325714,457.69751,160.325714C456.295563,160.325714,455.554535,160.311859,455.554535,160.285645C455.554535,160.263611,455.503784,160.245575,455.441803,160.245575C455.314087,160.245575,455.143311,160.089905,455.076233,159.912384C454.96228,159.610764,455.095947,159.215256,455.356812,159.082184C455.504486,159.006836,455.602081,159.003372,457.580811,159.003372C458.599487,159.003372,459.118011,159.004425,459.377106,159.014801z"/>
    <path transform="matrix(-1,0,0,1,0,0)" style="stroke:none;fill:#0000ff;fill-rule:evenodd" d="M423.372772,189.096603C423.299438,189.73468,423.072083,190.590424,422.830475,191.13765L422.734283,191.355484L422.436432,190.809738C422.272614,190.509567,422.009338,190.050903,421.851379,189.790482C421.529541,189.259933,420.270477,187.355988,420.161926,187.235764C420.091217,187.15744,420.076782,187.115189,420.088959,187.022293C420.092621,186.9944,420.073761,186.976364,420.047058,186.982224C419.996552,186.993301,419.317047,186.045303,418.388519,184.668396C418.020874,184.123215,417.847839,183.831451,417.847839,183.756775C417.847839,183.677597,417.827637,183.646957,417.775452,183.646957C417.642731,183.646957,416.539246,181.738663,415.96814,180.521423C414.664337,177.742538,414.292816,175.19516,414.809296,172.575516C414.893799,172.146774,414.895508,172.143082,414.998779,172.164108C415.416321,172.249146,417.413544,172.453827,418.168396,172.488953C418.862427,172.52124,418.849609,172.517197,418.849609,172.703705C418.849609,172.961014,419.005005,174.042633,419.130829,174.661148C419.486816,176.411072,420.018188,177.95491,421.313934,181.003677C422.51825,183.837311,422.926117,184.974808,423.195709,186.251648C423.399261,187.215775,423.465881,188.286163,423.372772,189.096603z"/>
    <path transform="matrix(-1,0,0,1,0,0)" style="stroke:none;fill:#0000ff;fill-rule:evenodd" d="M459.502563,116.027374C459.190796,117.982452,457.838593,119.873657,455.395203,121.771965C455.164307,121.951347,454.94342,122.098106,454.904327,122.098106C454.865234,122.098106,454.833252,122.121811,454.833252,122.15078C454.833252,122.291603,452.657562,123.697792,450.810364,124.750854C449.694305,125.387085,449.606476,125.430481,449.549652,125.373657C449.515259,125.339256,449.503754,125.347313,449.503571,125.40596C449.503265,125.497711,448.791473,125.88343,445.216248,127.729202C442.840973,128.955475,441.263611,129.786041,440.336273,130.298813C440.043518,130.460693,439.770447,130.59314,439.729492,130.59314C439.688507,130.59314,439.645691,130.61734,439.634308,130.646927C439.622955,130.676514,439.427185,130.805786,439.19928,130.934204C437.69928,131.779343,435.716522,133.054138,434.577423,133.905792C434.224792,134.169449,433.904724,134.396912,433.86618,134.411285C433.827606,134.425659,433.796051,134.452911,433.796051,134.471832C433.796051,134.490753,433.602203,134.667007,433.365295,134.863525C432.734467,135.38678,431.687469,136.426819,431.200867,137.013596C430.967407,137.295074,430.76123,137.525391,430.742706,137.525391C430.724152,137.525391,430.551575,137.446686,430.359161,137.35051C429.644653,136.993301,428.304688,136.498108,427.354645,136.240173C427.172821,136.190796,427.024078,136.13327,427.024078,136.112335C427.024078,136.0914,426.998138,136.084213,426.966461,136.096375C426.911835,136.11734,425.713196,135.867249,425.672333,135.82637C425.645782,135.799835,425.802155,135.095642,425.926788,134.680359C426.081543,134.164673,426.424377,133.314911,426.487427,133.290726C426.518097,133.278946,426.543213,133.234665,426.543213,133.192307C426.543213,132.953979,427.322906,131.701355,427.958496,130.918549C428.36676,130.41571,428.420715,130.357407,429.149414,129.631439C430.868408,127.918846,433.1763,126.344498,436.380615,124.698608C438.671387,123.521957,441.176758,122.425194,445.805389,120.572769C451.901825,118.132912,453.433105,117.476372,455.714813,116.324097C456.998962,115.675598,457.879669,115.171722,458.796448,114.560989C459.15802,114.320137,459.459625,114.128891,459.466736,114.135994C459.473846,114.143089,459.497742,114.274033,459.519836,114.426964C459.574158,114.802826,459.565186,115.634705,459.502563,116.027374z"/>
    <path transform="matrix(-1,0,0,1,0,0)" style="stroke:none;fill:#0000ff;fill-rule:evenodd" d="M460.387878,148.396667C460.211243,148.875671,460.259613,149.041077,458.925262,148.945587L457.924286,148.945587L456.6297,148.945587C455.679077,148.945587,455.485596,148.935654,455.370239,148.88092C455.286285,148.841064,455.233948,148.787231,455.233948,148.740662C455.233948,148.699097,455.208679,148.665085,455.177765,148.665085C455.109863,148.665085,455.0336,148.46196,455.0336,148.281052C455.0336,147.98732,455.215332,147.741104,455.487823,147.66571C455.705902,147.605347,459.950928,147.622742,459.993835,147.684174C460.273376,147.716614,460.47995,148.147018,460.387878,148.396667z"/>
    <path transform="matrix(-1,0,0,1,0,0)" style="stroke:none;fill:#0000ff;fill-rule:evenodd" d="M469.196991,134.760498C467.99884,137.708389,465.669037,139.574463,461.667206,140.791534C461.337646,140.891754,461.038391,140.968735,461.002167,140.962601C460.965942,140.956467,460.911011,140.972397,460.880066,140.997986C460.849152,141.02359,460.733673,141.063171,460.623474,141.085953C460.513306,141.108734,460.197723,141.182343,459.922241,141.249481C459.646759,141.31665,459.007599,141.453308,458.501892,141.553207C457.698822,141.711823,457.318848,141.781403,455.785858,142.030197C452.039764,142.638199,450.843781,142.861359,449.423676,143.2173C447.435059,143.715759,445.749695,144.397781,444.547913,145.190399L444.140015,145.459427L440.900696,145.459427L437.661346,145.459427L437.468079,144.968552C437.081665,143.987122,436.446198,142.789688,435.892181,141.999023C435.734955,141.774628,435.678802,141.662811,435.703827,141.623779C435.762787,141.531815,436.660522,140.920593,437.311798,140.529022C440.712585,138.484207,444.944763,137.303391,451.086609,136.685699C452.657593,136.52771,456.675476,136.203247,457.062927,136.20311C457.233612,136.203049,457.330078,136.162903,457.423553,136.162567C457.486511,136.162338,457.745392,136.144333,457.99884,136.122559C458.252289,136.100769,458.576874,136.075378,458.720123,136.066116C459.635376,136.006958,462.245392,135.728897,463.488556,135.558105C465.417572,135.293106,467.54007,134.857864,469.008301,134.426239C469.222717,134.363205,469.338287,134.345016,469.337158,134.374481C469.336212,134.39946,469.273132,134.573166,469.196991,134.760498z"/>
    <path transform="matrix(-1,0,0,1,0,0)" style="stroke:none;fill:#0000ff;fill-rule:evenodd" d="M473.168915,187.173187C473.161774,187.173187,472.977783,187.072083,472.760071,186.948502C471.17865,186.050812,468.717712,184.988083,466.353638,184.1819C463.350891,183.157944,461.181702,182.543442,454.492645,180.821854C449.901672,179.640244,447.640228,179.010101,445.296387,178.259338C439.192688,176.304245,435.094452,174.112152,432.473175,171.40036C432.037354,170.949509,431.672302,170.534241,431.672302,170.48938C431.672302,170.47522,431.697113,170.463638,431.727478,170.463638C431.797333,170.463638,431.893433,170.350876,431.855743,170.313156C431.840149,170.297577,431.775055,170.314865,431.71106,170.351593L431.594757,170.41835L431.464294,170.253632C431.380249,170.147507,431.351227,170.08313,431.382751,170.072632C431.452332,170.049438,432.325134,169.488861,432.628601,169.272476C433.394958,168.725998,434.471985,167.74028,435.061523,167.045822L435.258636,166.813629L435.579193,167.044373C435.755524,167.171265,435.905762,167.289276,435.913116,167.30661C435.920471,167.323944,435.942383,167.33812,435.961823,167.33812C435.981262,167.33812,436.155548,167.440369,436.349152,167.565369C437.314331,168.188431,438.789825,168.960983,440.087158,169.522552C442.779175,170.687805,445.581238,171.604019,451.04657,173.106064C452.468933,173.496979,452.823792,173.60791,452.882751,173.680054C452.932922,173.741455,452.96225,173.753784,452.976257,173.719406C452.987488,173.691849,453.023743,173.669312,453.056793,173.669312C453.146881,173.669312,456.242096,174.535583,457.638214,174.951553C459.139221,175.398758,461.434296,176.162994,462.501465,176.570969C464.682495,177.404755,466.641937,178.364151,467.989197,179.257889C468.329285,179.483505,468.475586,179.603409,468.471436,179.653198C468.467102,179.704971,468.489777,179.721497,468.55368,179.71312C468.799591,179.680893,470.401337,181.108749,471.138184,182.017044C472.140045,183.251999,472.81427,184.73877,473.058472,186.251556C473.143494,186.778122,473.190826,187.173187,473.168915,187.173187z"/>
    <path transform="matrix(-1,0,0,1,0,0)" style="stroke:none;fill:#0000ff;fill-rule:evenodd" d="M460.355865,152.042236C460.303284,152.234497,460.121857,152.417053,459.930603,152.470169C459.705444,152.532715,456.134399,152.511902,455.924194,152.511902C455.370911,152.511902,455.088196,152.327454,455.044281,151.93782C455.00708,151.685852,455.11615,151.351196,455.280945,151.304672C455.393677,151.224289,455.472351,151.207413,455.789795,151.195541C456.005463,151.187469,456.324463,151.194901,457.107269,151.192352C457.874725,151.18985,458.344513,151.18956,459.07196,151.18956C459.917053,151.18956,459.955566,151.192993,460.084473,151.279846C460.328735,151.444473,460.436523,151.747253,460.355865,152.042236z"/>
    <path transform="matrix(-1,0,0,1,0,0)" style="stroke:none;fill:#0000ff;fill-rule:evenodd" d="M450.705933,147.319534C450.772064,147.332306,450.878296,147.352783,450.942047,147.365021C451.032654,147.382431,451.321228,147.422501,452.578247,147.626129C453.836639,147.829956,453.923248,147.849304,453.955414,147.933792C453.996704,148.042099,454.072144,148.051651,454.098267,147.951874C454.11554,147.885803,454.140869,147.883377,454.402039,147.922653L454.686981,147.965515L454.677246,148.234711C454.668915,148.463928,454.683929,148.534149,454.778259,148.707474C454.839203,148.819427,454.944122,148.959381,455.011414,149.018463L455.133789,149.1259L454.967438,149.287506C454.875946,149.376389,454.781281,149.442505,454.75705,149.434433C454.732849,149.426361,454.713043,149.439285,454.713043,149.463165C454.713043,149.487045,454.728943,149.506577,454.748383,149.506577C454.767822,149.506577,454.759613,149.574188,454.730103,149.656845C454.598358,150.026031,454.698212,150.46521,454.979736,150.754593L455.121796,150.900665L454.960754,151.066605C454.694214,151.341278,454.603394,151.768051,454.734222,152.131226C454.765991,152.219376,454.792236,152.302139,454.792572,152.31514C454.792908,152.32814,454.662445,152.362061,454.502655,152.390533C454.342896,152.419006,454.189606,152.450867,454.162048,152.461349C454.134521,152.471832,454.111969,152.453018,454.111969,152.419556C454.111969,152.373169,454.052551,152.355362,453.861542,152.344543C453.615234,152.330612,453.552826,152.35527,453.551605,152.467041C453.550964,152.523026,453.720123,152.51474,453.881561,152.450897C453.920135,152.435654,453.951691,152.439499,453.951691,152.459442C453.951691,152.479401,453.613586,152.573151,453.200378,152.667786C452.282135,152.878082,451.388123,153.134033,450.781219,153.360352C450.259583,153.554871,449.521545,153.916931,449.528656,153.974792C449.536652,154.039597,450.054291,154.302536,450.585754,154.511749C451.490479,154.86792,452.570801,155.167084,454.00238,155.457886C454.661682,155.591827,454.751556,155.619217,454.732178,155.680267C454.685089,155.82869,454.637695,156.204376,454.659058,156.260071C454.671417,156.292267,454.746765,156.468094,454.790009,156.552826C454.833221,156.637558,454.93103,156.761688,455.007324,156.828674L455.145996,156.950455L455.031433,157.035156C454.968445,157.081757,454.866516,157.205566,454.804932,157.310287C454.707611,157.475876,454.692993,157.542526,454.692993,157.821289C454.692993,158.188614,454.762146,158.369461,454.985474,158.586365L455.124176,158.721054L455.006287,158.832153C454.941437,158.89328,454.855621,158.999207,454.815582,159.067596L454.692993,159.283981L454.692749,159.634415L454.692505,159.984848L454.151794,160.072418C453.462097,160.184128,453.377197,160.205505,453.357056,160.205505C453.336975,160.205505,452.547455,160.330887,451.602539,160.484131C448.834473,160.933044,446.108398,161.320435,444.93573,161.431549C444.656036,161.458054,444.598724,161.473114,443.902679,161.539703C441.879669,161.733261,440.604065,161.806915,438.77597,161.835724L437.204285,161.860489L437.158356,162.004715C437.133087,162.08403,437.013245,162.401382,436.892029,162.70993C436.36087,164.06189,435.628021,165.335907,434.789703,166.364578C434.437042,166.797348,433.831635,167.458328,433.787933,167.458328C433.770233,167.458328,433.688446,167.532837,433.606171,167.623901C433.252228,168.015686,432.285583,168.764038,431.518524,169.240143C430.910126,169.617767,430.063751,170.059448,429.996796,170.034271C429.967834,170.023392,429.922638,170.04393,429.896332,170.07991C429.870026,170.115891,429.596191,170.25058,429.287781,170.379227C425.599426,171.917831,420.639252,172.326187,415.143066,171.543716C414.834503,171.499786,414.547333,171.459702,414.504852,171.45462C414.447998,171.447815,414.418579,171.480042,414.393158,171.577042C414.374176,171.649445,414.008331,173.018204,413.965393,173.213684C413.593872,174.90564,413.597717,176.241974,413.982147,179.018768C414.279755,181.168518,414.105957,182.272736,413.300903,183.346436C413.062653,183.664215,412.544525,184.184418,412.157776,184.494156C411.706726,184.855392,410.182526,185.810791,410.057251,185.810791C410.039764,185.810791,410.037231,185.780075,410.051636,185.742538C410.06604,185.705017,410.114838,185.339859,410.160065,184.931107C410.220428,184.38588,410.247864,183.812515,410.263123,182.778564C410.295471,180.585953,410.216919,179.698212,409.657257,175.933319C409.341522,173.809158,409.307526,173.484497,409.283875,172.365997C409.267029,171.569061,409.276367,171.255676,409.329376,170.839294C409.532562,169.24295,410.152557,167.982147,411.295013,166.842133C411.661011,166.476913,412.218658,166.004547,412.452881,165.861343C412.532623,165.812592,412.698456,165.856445,414.089691,166.294189C415.709717,166.803925,416.401855,166.979202,417.567352,167.174835C418.796539,167.381165,419.468506,167.435806,420.79306,167.437103C422.302063,167.438599,423.144867,167.351242,424.314056,167.072159C424.655212,166.990723,424.756378,166.979156,424.780853,167.018753C424.820648,167.083176,424.940369,167.039276,424.940369,166.960251C424.940369,166.923935,425.006226,166.88269,425.107971,166.855301C425.200134,166.830475,425.475128,166.732819,425.719055,166.638275C428.037628,165.739609,429.580048,164.282013,430.321198,162.289185C430.492401,161.828796,430.657837,161.105911,430.694885,160.656296L430.722107,160.325714L431.167145,160.324509C431.43396,160.323776,431.764618,160.293335,431.992859,160.248489C432.202209,160.207352,432.378204,160.178024,432.383942,160.183304C432.406006,160.203705,432.227905,160.993454,432.109344,161.400757C431.696411,162.819611,431.003143,164.030563,430.032257,165.028809C429.20993,165.874313,428.359833,166.467422,427.374023,166.88353C426.953125,167.061188,427.166504,167.034363,427.80545,166.8293C429.913635,166.15271,431.509979,164.545959,432.430359,162.17424C432.630371,161.658813,432.845428,160.919159,432.955994,160.366455C433.002197,160.135422,433.043335,159.946091,433.047363,159.945724C433.051422,159.945343,433.298157,159.824402,433.595703,159.676956C434.463135,159.24707,435.270477,158.644577,436.070068,157.830383C436.295959,157.600372,436.480804,157.427582,436.480804,157.446426C436.480804,157.465271,436.507843,157.480682,436.540894,157.480682C436.613586,157.480682,436.621002,157.413971,436.550903,157.39032C436.519348,157.379654,436.568787,157.293289,436.684692,157.15657C436.95639,156.836197,437.401947,156.223938,437.636688,155.848419C437.835175,155.530914,438.238159,154.761353,438.323547,154.536774C438.404755,154.323242,438.267639,154.455078,438.009644,154.838623C436.506836,157.072678,434.654205,158.643539,432.794281,159.260803C432.222229,159.450638,431.760437,159.524292,431.142395,159.524292C430.277435,159.524292,429.540039,159.325836,428.803802,158.894852L428.487244,158.709534L429.009369,158.579803C429.543579,158.447083,430.188629,158.223816,430.510223,158.060364C431.080872,157.770325,431.852295,157.064896,432.239655,156.478912C432.508575,156.072083,432.648376,155.800659,432.796967,155.397003C432.877411,155.178436,432.924896,155.09967,432.97113,155.108246C433.006805,155.114853,433.034698,155.092865,433.034698,155.058151C433.034698,155.024124,433.005707,154.996292,432.970306,154.996292C432.925873,154.996292,432.914124,154.97493,432.932343,154.927383C432.963837,154.845306,432.972992,154.835648,432.734375,155.136536C431.967377,156.103668,430.888214,156.964401,429.915131,157.385101C429.195099,157.696396,427.9776,157.916626,427.243286,157.868393C426.789459,157.838593,426.3013,157.733353,426.313812,157.66803C426.319366,157.639023,426.280365,157.625381,426.21228,157.632523C426.07135,157.647293,425.416412,157.312866,425.060059,157.044159C424.327301,156.491669,423.57077,155.472778,423.241394,154.594833C423.178955,154.428436,423.178467,154.39447,423.235474,154.17569C423.321136,153.846741,423.31424,153.351563,423.218719,152.97818C423.060028,152.357697,422.59314,151.645264,422.218079,151.451324L422.082703,151.381317L422.192871,151.56929C422.747803,152.51622,422.880096,153.697144,422.531921,154.595581C422.27182,155.266693,421.840271,155.706039,420.817474,156.341034C420.084839,156.795883,419.943085,156.905792,419.82077,157.113846C419.713287,157.296692,419.711487,157.310608,419.729126,157.821289C419.739014,158.107788,419.74765,158.549576,419.748291,158.803024C419.749603,159.326782,419.712036,159.439255,419.324982,160.070404C419.211487,160.255493,419.104858,160.485672,419.08609,160.586075C419.006592,161.011658,419.262268,161.622894,419.792358,162.274475L419.89447,162.400009L419.488953,162.449692C418.941986,162.516693,418.272675,162.485229,417.865814,162.373383C417.457245,162.261078,417.061279,162.046997,417.079498,161.948227C417.089355,161.894714,417.072876,161.88269,417.011566,161.898727C416.845154,161.942245,416.382263,161.381012,416.186279,160.898102C415.879547,160.142288,415.901062,159.267868,416.263916,157.74115C416.61084,156.281525,416.616669,156.123657,416.357422,155.216675C416.052643,154.150452,416.024872,153.98143,416.024872,153.1931C416.024872,152.416031,416.069489,152.131653,416.307831,151.389603C416.637299,150.363983,417.296143,149.439789,418.058685,148.93364C418.3909,148.71312,419.110931,148.36615,419.561768,148.209305C420.240784,147.973083,420.767395,147.890854,421.453217,147.91394C422.106079,147.935913,422.390411,148.004501,422.872528,148.256317C423.225403,148.440643,423.744263,148.929626,423.970764,149.291351C424.39093,149.962418,424.809479,150.705597,424.773865,150.717453C424.74939,150.725616,424.751038,150.772476,424.778259,150.844131C424.812531,150.934235,424.832886,150.94838,424.876404,150.912292C424.920166,150.875961,424.974243,150.921768,425.14325,151.138336C425.720306,151.877838,426.219818,152.330383,426.723541,152.570038C427.10083,152.749557,427.375214,152.807724,427.720947,152.781494C427.970642,152.762543,428.316986,152.666794,428.391876,152.596039C428.405853,152.582809,428.401459,152.44577,428.38208,152.291504C428.27536,151.441345,428.676544,150.329041,429.348175,149.612885C430.009277,148.907959,430.692749,148.625031,431.734497,148.625031C433.370422,148.625031,435.065399,149.515778,436.551483,151.156479C436.961365,151.609009,437.619934,152.479553,437.96814,153.029099C438.108795,153.251099,438.237976,153.432922,438.255219,153.433136C438.303894,153.433746,437.719116,152.302231,437.371948,151.723969C436.196533,149.766235,434.839081,148.499985,433.319061,147.943359L433.022369,147.834732L432.852234,147.157974C432.758667,146.785767,432.644043,146.374207,432.597534,146.243408C432.537933,146.07576,432.526184,145.997437,432.557739,145.977936C432.590363,145.957779,432.590485,145.942871,432.558136,145.922882C432.533722,145.907806,432.513,145.910065,432.512024,145.927887C432.511078,145.945724,432.448761,145.810059,432.373566,145.626404C431.411865,143.277802,429.757843,141.680298,427.665192,141.078964C427.075836,140.909607,427.030243,140.920273,427.484894,141.121124C428.572479,141.601639,429.660004,142.428436,430.449554,143.375061C431.171387,144.240509,431.775604,145.395767,432.106628,146.543365C432.251984,147.047379,432.375214,147.614899,432.345673,147.644424C432.333893,147.656204,432.121643,147.646729,431.873993,147.623383C431.626343,147.600021,431.266113,147.592804,431.073486,147.607361L430.723267,147.633789L430.698212,147.308563C430.643463,146.598785,430.370117,145.659439,430.007996,144.936615C428.88089,142.686981,426.361694,141.121552,423.117157,140.654633C420.98172,140.347321,418.515228,140.493561,416.063782,141.0728C415.678558,141.163818,415.625183,141.168457,415.594482,141.113556C415.544434,141.02417,415.470581,141.037338,415.495148,141.131271C415.513702,141.202271,415.458771,141.228836,414.988892,141.37616C414.699036,141.467056,414.03952,141.674652,413.523346,141.837494C413.007141,142.00032,412.561798,142.133545,412.53363,142.133545C412.445831,142.133545,411.674927,141.496658,411.276215,141.094727C410.144501,139.953873,409.539246,138.719299,409.329865,137.12468C409.277588,136.726593,409.268402,136.414078,409.285156,135.60199C409.308777,134.454483,409.357391,133.996826,409.69165,131.775223C410.175659,128.558029,410.275879,127.50103,410.277405,125.597916C410.27832,124.425682,410.233429,123.621559,410.115601,122.699173C410.077576,122.401642,410.050751,122.152649,410.055939,122.145851C410.07193,122.125015,410.790558,122.533623,411.247589,122.823402C411.872253,123.219452,412.405487,123.640869,412.828949,124.073143C413.159088,124.41011,413.199615,124.46743,413.199615,124.597145C413.199615,124.746315,413.230621,124.775887,413.306976,124.699532C413.337952,124.668571,413.401886,124.739769,413.53186,124.949974C413.921875,125.580605,414.076752,126.128143,414.109558,126.992149C414.134064,127.636955,414.108643,127.944794,413.898376,129.549774C413.541809,132.271683,413.620453,133.599442,414.2771,135.942596C414.409424,136.414749,414.446014,136.502396,414.508179,136.496063C414.548828,136.491928,414.906647,136.443253,415.303345,136.387909C418.039612,136.00618,420.84964,135.919403,423.203674,136.143921C429.636353,136.757462,434.05722,139.423416,436.379272,144.089294C436.625854,144.584824,436.907715,145.25235,437.122711,145.850113L437.212799,146.100555L438.179138,146.100937C440.967529,146.102036,444.246399,146.378418,448.181488,146.944061C450.560486,147.286041,450.265259,147.245697,450.705933,147.319534zM418.347382,151.990967C418.285919,151.990967,417.912842,152.207062,417.793671,152.311707C417.535706,152.538208,417.513733,152.633102,417.494659,153.603821C417.4841,154.139801,417.492157,154.475372,417.515594,154.475372C417.617279,154.475372,418.239441,153.01944,418.327515,152.575363C418.365265,152.385132,418.378662,151.990967,418.347382,151.990967z"/>
    <path transform="matrix(-1,0,0,1,0,0)" style="stroke:none;fill:#0000ff;fill-rule:evenodd" d="M480.78775,152.291504C480.802551,152.529938,480.809631,152.697052,480.813477,152.768631C480.837982,153.222351,480.837341,154.742981,480.812439,155.256744C480.755981,156.421448,480.654053,157.496384,480.520935,158.329773C480.448883,158.781128,480.438446,158.809204,480.234619,159.101135C480.118286,159.267761,480.007813,159.404083,479.989105,159.404083C479.970398,159.404083,479.942139,159.438721,479.926331,159.481064C479.85556,159.670456,478.731049,160.846634,478.620728,160.846634C478.60672,160.846634,478.595276,160.81958,478.595276,160.78653C478.595276,160.753143,478.559662,160.726425,478.515137,160.726425C478.418701,160.726425,478.414276,160.757324,478.497498,160.849304C478.555237,160.913101,478.542236,160.932068,478.327209,161.097382C477.938416,161.396317,477.397522,161.734131,476.918549,161.977173C476.55426,162.162048,476.448822,162.199722,476.387604,162.166962C476.335358,162.138992,476.311218,162.139175,476.311218,162.167557C476.311218,162.190369,476.26825,162.209045,476.215729,162.209045C476.156036,162.209045,476.112854,162.237228,476.100586,162.284195C476.068848,162.405518,475.145844,162.686768,474.287415,162.8367C473.720551,162.935684,472.054871,162.935669,471.482697,162.83667C470.993378,162.751999,470.381897,162.600006,469.999176,162.467911L469.713562,162.369324L465.576599,162.369324C462.549408,162.369324,461.416718,162.35704,461.354065,162.323517C461.289825,162.289139,461.264648,162.289139,461.253174,162.323517C461.23349,162.382599,460.81781,162.384338,460.781433,162.325485C460.766541,162.301361,460.706879,162.290771,460.648834,162.301956C460.471802,162.336029,460.11438,162.246353,460.092407,162.162338C460.070526,162.078613,460.016937,162.065201,459.992889,162.137405C459.942596,162.288254,458.455658,161.560394,458.372742,161.344345C458.360748,161.313034,458.323883,161.287415,458.290833,161.287415C458.23056,161.287415,457.638214,160.738968,457.638214,160.683182C457.638214,160.666855,458.165649,160.64711,458.810272,160.639297C459.893372,160.62619,459.996033,160.61882,460.162659,160.542206C460.351288,160.45549,460.583099,160.224228,460.645203,160.060791L460.68161,159.965073L461.748718,159.965073C463.118866,159.965073,463.355347,159.910233,463.900696,159.466019L464.127502,159.28125L464.352051,158.907654C464.432159,158.761948,464.514069,158.642731,464.534088,158.642731C464.554077,158.642731,464.570465,158.605637,464.570465,158.560303C464.570465,158.514969,464.590332,158.399017,464.614594,158.302658C464.64563,158.179352,464.688721,157.989899,464.704987,157.888214C464.724701,157.764923,464.69751,157.656647,464.566589,157.33725C464.355713,156.822784,464.146729,156.097107,464.04248,155.517212C463.924713,154.862228,463.896881,153.520447,463.986786,152.832458C464.092407,152.024353,464.335114,151.13591,464.647797,150.412964C464.722504,150.240219,464.727448,150.190247,464.690186,149.984634C464.504242,148.959259,463.850891,148.213974,462.975677,148.028809C462.85083,148.002396,462.345093,147.983887,461.748199,147.983887L460.733063,147.983887L460.625092,147.763168C460.565674,147.641769,460.455414,147.495392,460.380035,147.437897C460.118896,147.238708,460.026306,147.226196,458.801514,147.224304L457.660767,147.222534L457.898224,146.982574C458.385376,146.49028,459.158417,146.023987,459.84668,145.807297C460.579437,145.576599,460.5065,145.579636,465.303192,145.579636L469.711945,145.579636L470.142639,145.440399C471.836487,144.892822,473.767853,144.878204,475.489227,145.399994C477.038269,145.869522,478.563934,146.851105,479.586823,148.036255C479.938232,148.44342,480.312805,148.940414,480.40802,149.1259C480.484955,149.275711,480.536926,149.866974,480.625916,150.612823C480.63446,150.684387,480.630615,150.684845,480.63916,150.756424C480.671082,151.023926,480.693359,151.00322,480.717346,151.289734C480.793457,152.198349,480.756622,151.790359,480.78775,152.291504zM476.033081,152.439087C476.090607,152.411072,476.820221,152.1474,476.85083,152.137436L477.196838,152.02475L477.188751,151.747406C477.184296,151.594849,477.16684,151.470047,477.149994,151.470047C477.133118,151.470047,477.113312,151.48555,477.105957,151.504501C477.091431,151.541962,474.860718,150.904266,474.778625,150.839172C474.751007,150.817291,474.674347,150.796936,474.608215,150.793945C474.542114,150.790939,473.640503,150.540619,472.604675,150.237686L470.721344,149.68689L470.50946,149.253906L470.297607,148.820908L470.128815,148.83316L469.959991,148.845413L469.949432,150.177765L469.938873,151.510117L470.115479,151.510117L470.292053,151.510117L470.335419,151.263916C470.359253,151.12851,470.409058,150.984253,470.446075,150.943359C470.542786,150.836487,470.77652,150.848404,471.2453,150.9841C471.46402,151.047424,472.46344,151.33609,473.466187,151.62561C474.468994,151.915115,475.307465,152.157837,475.329498,152.164978C475.351532,152.172134,474.977386,152.308701,474.498016,152.468475C474.018677,152.62825,473.626495,152.765381,473.626495,152.773193C473.626495,152.781021,473.777557,152.836609,473.962219,152.896759L474.297943,153.006073L475.208344,152.699982C475.671753,152.544174,475.900696,152.468079,476.033081,152.439087zM472.906891,152.828384C472.151794,152.566849,470.979004,152.150711,470.18222,151.871399C469.426758,151.606583,468.79953,151.389908,468.788391,151.389908C468.777222,151.389908,468.790558,151.362854,468.817993,151.329803C468.863586,151.274857,468.846222,151.252518,468.76767,151.26503C468.751007,151.26767,468.652283,151.098511,468.548248,150.889099L468.3591,150.508347L468.167816,150.508347L467.976501,150.508347L467.97403,151.099396C467.972687,151.424469,467.973724,152.012573,467.976379,152.406296C467.980927,153.085495,467.975708,153.053589,467.976501,153.410309C467.976501,153.458466,468.018982,153.473602,468.154358,153.473602L468.332214,153.473602L468.354706,153.293274C468.367065,153.194092,468.387512,153.030518,468.400116,152.929749C468.447968,152.547409,468.632111,152.511932,469.338898,152.748901C469.813477,152.908005,471.394989,153.473495,471.412231,153.49025C471.417572,153.495422,471.11554,153.604141,470.741058,153.731827L470.060181,153.963989L470.060181,154.210266L470.060181,154.456528L471.07196,154.791321C471.628448,154.975464,472.096375,155.137482,472.111816,155.151367C472.127228,155.165253,471.390503,155.408539,470.47467,155.692001C468.63269,156.262131,468.687408,156.254257,468.5448,155.969604C468.463074,155.806473,468.431946,155.69873,468.39563,155.453003C468.352936,155.164352,468.346649,155.15657,468.155518,155.15657L467.979279,155.15657L467.967865,156.108246C467.961578,156.631683,467.96225,157.22673,467.96933,157.430588L467.982178,157.801239L468.156952,157.801239C468.28894,157.801239,468.336731,157.784073,468.352081,157.731125C468.363281,157.692551,468.393188,157.579849,468.418579,157.480682C468.479187,157.243805,468.617828,157.066559,468.871582,156.901489C469.127197,156.735214,469.056549,156.788101,469.297791,156.685593L469.729065,156.518051C470.588318,156.184235,472.760681,155.397003,472.822632,155.397003C472.857544,155.397003,473.470215,155.591797,474.184113,155.829895L475.482117,156.262787L473.144623,156.875748C471.859009,157.212875,470.783447,157.497818,470.754456,157.508942C470.652008,157.548233,470.428162,157.265533,470.355927,157.005615L470.287476,156.759399L470.116425,156.759399C469.92569,156.759399,469.907898,156.786758,469.920776,157.059937C469.924927,157.148102,469.930939,157.648468,469.934143,158.171906L469.939972,159.123581L470.116455,159.123581L470.292938,159.123581L470.729492,158.577667L471.166016,158.031769L472.245972,157.696548C473.111206,157.427979,473.678955,157.246643,473.841034,157.205841C473.937744,157.181488,474.046265,157.150284,474.082153,157.136505C474.125763,157.119781,474.221039,157.091354,476.162659,156.497101L477.196167,156.180786L477.184448,155.942352L477.17276,155.703918L476.507568,155.480331C476.061035,155.330231,475.642639,155.198212,473.830963,154.602341C472.951508,154.31308,472.446136,154.156006,472.1138,154.044388L471.683044,153.899719L471.935516,153.818542L472.187988,153.737366L473.017456,154.023254C473.473633,154.180511,474.027191,154.373215,474.247589,154.451508C474.772888,154.638092,474.936096,154.637299,475.460999,154.445557L475.873016,154.295044L475.861725,154.077301L475.850403,153.859543L475.042206,153.57663C474.752075,153.475067,473.483215,153.028015,472.906891,152.828384z"/>
    <path transform="matrix(-1,0,0,1,0,0)" style="stroke:none;fill:#0000ff;fill-rule:evenodd" d="M473.169159,120.899323C473.160065,120.908508,473.141205,121.033226,473.127289,121.176483C473.027771,122.200394,472.746582,123.174171,472.265259,124.161758C471.292297,126.158096,469.564453,127.832344,466.899414,129.361267C466.49469,129.593445,466.429565,129.618896,466.320435,129.587585C466.188293,129.549698,466.134979,129.588745,466.13385,129.724213C466.132843,129.84137,464.656342,130.530853,463.013947,131.181107C462.206421,131.500809,462.155579,131.515671,462.103607,131.447113C462.073334,131.407181,462.047974,131.342957,462.047272,131.304382C462.045532,131.208649,461.916901,131.21521,461.855072,131.314194C461.812744,131.381989,461.817871,131.40683,461.888855,131.477814C461.934875,131.523849,461.964935,131.569122,461.955627,131.5784C461.922272,131.611755,460.471619,132.116547,459.655762,132.378708C459.12265,132.549988,455.079437,133.744492,452.268707,134.512512C451.794861,134.641983,451.401184,134.732727,451.393829,134.714142C451.372833,134.661026,451.300079,134.674561,451.251312,134.740677C451.225647,134.775497,450.656219,134.953751,449.904541,135.162292C443.695374,136.884842,440.104828,138.210205,437.287781,139.819458C436.78775,140.105087,435.723511,140.788422,435.320831,141.082352C435.259491,141.127136,435.212982,141.088913,434.925751,140.757629C434.077606,139.779327,432.856354,138.760178,431.714478,138.077744C431.52597,137.965088,431.364685,137.86731,431.356018,137.860413C431.347382,137.853546,431.482605,137.671661,431.656494,137.456238C432.041229,136.979706,433.122833,135.886658,433.615723,135.476288C434.090393,135.081085,434.931854,134.452667,435.421844,134.125366C435.694672,133.94313,436.220062,133.61467,436.589355,133.395477C437.438568,132.891418,439.151276,132.020264,439.185181,132.075119C439.223541,132.137207,439.297302,132.123627,439.272522,132.059036C439.244049,131.984818,439.3685,131.9375,439.416565,132.004272C439.443665,132.041931,439.447906,132.037888,439.432404,131.989197C439.415405,131.935791,439.539215,131.867081,440.059753,131.641006C443.154755,130.296814,446.622894,129.181244,452.407135,127.669334C453.089355,127.491013,453.673492,127.35508,453.705231,127.367256C453.736969,127.379433,453.79187,127.36496,453.82724,127.335106C453.86264,127.305244,454.757111,127.058853,455.814972,126.787575C461.880096,125.232224,465.012421,124.30603,467.816223,123.238953C468.378204,123.02507,468.910156,122.829956,468.998291,122.805374C469.086456,122.780785,469.167908,122.748039,469.179321,122.732597C469.190735,122.717171,469.506287,122.573341,469.880554,122.412987C470.569794,122.117683,472.249481,121.294998,472.855103,120.956062C473.075714,120.832619,473.185699,120.789627,473.185699,120.826843C473.185699,120.857521,473.178253,120.890137,473.169159,120.899323z"/>
    <path transform="matrix(-1,0,0,1,0,0)" style="stroke:none;fill:#0000ff;fill-rule:evenodd" d="M459.518372,193.539215C459.500183,193.679581,459.476868,193.802856,459.466553,193.813141C459.456268,193.823441,459.252563,193.697021,459.013855,193.532227C457.456055,192.456665,455.236938,191.304504,452.188568,189.988556C451.648621,189.755463,451.187042,189.537796,451.162842,189.504868C451.138611,189.471939,451.100433,189.456345,451.077972,189.47023C451.055511,189.4841,450.705688,189.359222,450.300537,189.192703C449.895416,189.026184,448.265625,188.369949,446.678833,187.734406C441.31311,185.585373,439.447662,184.780106,436.961639,183.539825C434.069122,182.096756,432.061493,180.843002,430.269806,179.36087C429.627747,178.829727,428.423859,177.62294,427.969818,177.055298C426.863586,175.672348,426.059021,174.047318,425.74057,172.552658C425.640747,172.084122,425.638092,172.090897,425.938751,172.046417C426.297943,171.993286,427.7052,171.622391,428.310822,171.421249C429.049133,171.176041,429.554779,170.977051,430.244232,170.660339C430.52771,170.530121,430.764679,170.423569,430.770813,170.423569C430.776947,170.423569,430.922516,170.59938,431.094269,170.81427C431.479034,171.295624,432.511261,172.351883,433.070099,172.83606C434.436371,174.019836,435.963287,175.094101,438.082916,176.362885C438.556366,176.646286,438.958679,176.904861,438.976959,176.937515C438.995239,176.970169,439.026367,176.986877,439.046143,176.974655C439.065918,176.962433,439.366852,177.112564,439.714874,177.308273C440.991821,178.026367,442.362671,178.752045,445.556854,180.400742C451.217926,183.322784,453.530609,184.695938,455.674744,186.408279C456.325409,186.927933,457.33844,187.896973,457.777405,188.419647C458.855286,189.703064,459.469757,191.081787,459.548096,192.392517C459.571259,192.779633,459.566223,192.831833,459.498444,192.906708C459.427612,192.985001,459.427216,192.992386,459.49231,193.028809C459.567505,193.070892,459.57077,193.134933,459.518372,193.539215z"/>
    <path transform="matrix(-1,0,0,1,0,0)" style="stroke:none;fill:#0000ff;fill-rule:evenodd" d="M437.07962,116.70858C436.904053,118.605255,436.126587,120.456688,434.702606,122.369118C433.973572,123.348259,433.272644,124.135078,431.356537,126.125229C430.571442,126.940674,429.804443,127.738586,429.6521,127.898369C429.499756,128.058151,429.351013,128.188873,429.321564,128.188873C429.292114,128.188873,429.268036,128.21698,429.268036,128.251343C429.268036,128.285675,429.118805,128.479523,428.936401,128.682098C428.291168,129.398621,427.476471,130.413834,427.104218,130.965149C427.049103,131.046738,426.972473,131.113632,426.933899,131.113785C426.885193,131.113968,426.86377,131.145828,426.86377,131.218063C426.86377,131.322937,426.731812,131.547607,426.635376,131.606918C426.60672,131.624542,426.583282,131.66803,426.583282,131.703583C426.583282,131.791931,426.350372,132.156952,426.228424,132.259689C426.164001,132.313965,426.13797,132.366806,426.15451,132.409851C426.168518,132.446381,426.145508,132.534912,426.103394,132.606598C425.96347,132.84462,425.617981,133.65213,425.456177,134.11937C425.305695,134.55397,425.080658,135.381668,425.053101,135.60199C425.037415,135.727219,425.005219,135.727448,424.058838,135.608658C422.873657,135.459915,422.527527,135.438019,420.983398,135.414093L419.490753,135.390961L419.490784,135.225998C419.490814,135.135269,419.518677,134.817612,419.552734,134.520081C420.005341,130.563782,421.334534,127.66861,423.858093,125.142532C425.006958,123.992516,425.992004,123.208847,428.767151,121.237114C430.838409,119.765488,431.990814,118.897774,432.834351,118.17466C434.312469,116.907547,435.653412,115.524727,436.647064,114.242813C436.892303,113.926422,436.900238,113.920319,436.928436,114.02578C437.05838,114.511673,437.143372,116.019791,437.07962,116.70858z"/>
    <path transform="matrix(-1,0,0,1,0,0)" style="stroke:none;fill:#0000ff;fill-rule:evenodd" d="M510.321228,156.097366C510.33194,155.971848,510.354767,155.847656,510.389343,155.726517C510.598816,155.043564,511.197021,154.552322,511.907654,154.479691C512.554993,154.35376,513.224854,154.523315,513.734314,154.942093C514.41925,155.605072,514.506226,156.672058,513.937683,157.43721C513.535034,157.909286,512.937378,158.16893,512.317566,158.141068C511.79068,158.160248,511.275726,157.981323,510.874207,157.639603C510.459045,157.240128,510.254486,156.669632,510.321228,156.097366zM510.764832,156.485794C510.848267,157.056198,511.301636,157.501389,511.873474,157.574417C512.335815,157.673477,512.818054,157.613602,513.242126,157.404495C513.725281,157.125778,513.970581,156.564377,513.846863,156.020462C513.727478,155.466919,513.264404,155.053665,512.700867,154.997757C512.239014,154.916672,511.763031,154.985657,511.343201,155.194534C510.91217,155.472885,510.685547,155.978851,510.764832,156.485794z"/>
    <path transform="matrix(-1,0,0,1,0,0)" style="stroke:none;fill:#0000ff;fill-rule:evenodd" d="M514.243591,142.632523L514.243591,143.143509L512.528503,143.143509C512.523132,143.397736,512.524658,143.652054,512.533142,143.906204C512.556091,144.156204,512.694763,144.380966,512.907898,144.513626C513.338318,144.828766,513.784119,145.122421,514.243591,145.393509L514.243591,146.036331L513.192322,145.364456C512.948486,145.23056,512.739563,145.040573,512.583191,144.810501L512.486267,144.632034L512.435242,144.892044C512.337769,145.434158,511.822906,145.798538,511.279236,145.710159C510.802979,145.665649,510.43103,145.277252,510.407166,144.799515C510.38858,144.648712,510.379944,144.496857,510.381287,144.344925L510.381287,142.632523L514.243591,142.632523zM510.808044,144.365921L510.819031,144.56636C510.818878,144.858673,511.019775,145.113159,511.304138,145.180862C511.605225,145.248474,511.909576,145.080841,512.013367,144.790237C512.068237,144.61293,512.092773,144.427612,512.085876,144.242142L512.085876,143.143509L510.808044,143.143509L510.808044,144.365921z"/>
    <path transform="matrix(-1,0,0,1,0,0)" style="stroke:none;fill:#0000ff;fill-rule:evenodd" d="M514.243591,146.519974L514.243591,149.402298L513.787781,149.402298L513.787781,147.03096L512.473083,147.03096L512.473083,149.167679L512.019958,149.167679L512.019958,147.03096L510.837097,147.03096L510.837097,149.312698L510.381287,149.312698L510.381287,146.519974L514.243591,146.519974z"/>
    <path transform="matrix(-1,0,0,1,0,0)" style="stroke:none;fill:#0000ff;fill-rule:evenodd" d="M513.260437,152.116898C513.402283,152.068497,513.544739,152.021698,513.687683,151.976517L513.294861,151.851028L510.381287,150.877884L510.381287,150.108597L514.243591,150.108597L514.243591,150.601273L510.955505,150.601273L514.243591,151.71846L514.243591,152.179398L511.010925,153.301712L514.243591,153.301712L514.243591,153.794388L510.381287,153.794388L510.381287,153.106888L513.260437,152.116898z"/>
    <path transform="matrix(-1,0,0,1,0,0)" style="stroke:none;fill:#0000ff;fill-rule:evenodd" d="M510.837097,158.521683L510.837097,159.794144L514.243591,159.794144L514.243591,160.305374L510.837097,160.305374L510.837097,161.582962L510.381287,161.582962L510.381287,158.521683L510.837097,158.521683z"/>
    <path transform="matrix(-1,0,0,1,0,0)" style="stroke:none;fill:#0000ff;fill-rule:evenodd" d="M514.243591,162.167191L514.243591,165.049515L513.787781,165.049515L513.787781,162.678421L512.473083,162.678421L512.473083,164.81514L512.019958,164.81514L512.019958,162.678421L510.837097,162.678421L510.837097,164.959915L510.381287,164.959915L510.381287,162.167191L514.243591,162.167191z"/>
    <path transform="matrix(-1,0,0,1,0,0)" style="stroke:none;fill:#0000ff;fill-rule:evenodd" d="M531.315674,178.730927C531.320496,178.3358,531.508911,177.964874,531.825195,177.727997C532.210022,177.457794,532.736206,177.518219,533.049805,177.868622C533.218445,178.086395,533.3349,178.339813,533.390381,178.609589C533.4328,178.771957,533.473694,178.934967,533.512939,179.098114L533.564209,179.293671C533.600342,179.52005,533.707275,179.729233,533.869629,179.891083C534.062622,180.0336,534.326294,180.032013,534.517578,179.887177C534.751221,179.669281,534.871338,179.355789,534.843018,179.037567C534.86853,178.66301,534.714478,178.298752,534.427979,178.056122C534.284485,177.965759,534.121399,177.911087,533.952393,177.896698L533.994629,177.41452C534.49823,177.416824,534.952148,177.718918,535.148682,178.182587C535.355713,178.703781,535.35614,179.28389,535.149902,179.805389C534.941589,180.316559,534.38501,180.592545,533.852051,180.448944C533.506653,180.326965,533.243164,180.043549,533.146729,179.690155C533.046265,179.361679,532.958984,179.029297,532.885254,178.693817L532.815918,178.471405C532.794861,178.336807,532.720093,178.215927,532.607422,178.13942C532.494751,178.062912,532.354797,178.03801,532.221924,178.068085C532.003967,178.134979,531.841492,178.31749,531.800293,178.541718C531.71936,178.855759,531.741333,179.187637,531.863037,179.488251C531.99054,179.722595,532.231689,179.872559,532.498291,179.88327L532.461426,180.37326C531.947571,180.3647,531.504395,180.008698,531.385254,179.508759C531.315308,179.255798,531.291748,178.992279,531.315674,178.730927z"/>
    <path transform="matrix(-1,0,0,1,0,0)" style="stroke:none;fill:#0000ff;fill-rule:evenodd" d="M535.235596,170.096405L535.235596,170.607635L533.520508,170.607635C533.515137,170.861862,533.516663,171.11618,533.525146,171.370331C533.548157,171.620255,533.686829,171.84491,533.899902,171.977509C534.330322,172.292648,534.776123,172.586304,535.235596,172.857391L535.235596,173.500214L534.184326,172.828583C533.940674,172.694427,533.731812,172.504501,533.575195,172.274628L533.478271,172.096161L533.427246,172.355927C533.329773,172.898041,532.814941,173.262421,532.27124,173.174042C531.794983,173.129532,531.423035,172.74115,531.39917,172.263397C531.380554,172.112595,531.371948,171.960739,531.373291,171.808807L531.373291,170.096405L535.235596,170.096405zM531.800049,171.830048L531.811035,172.030243C531.810852,172.322571,532.01178,172.577057,532.296143,172.644745C532.597229,172.712372,532.901611,172.544739,533.005371,172.25412C533.060242,172.076889,533.084778,171.891663,533.077881,171.706268L533.077881,170.607635L531.800049,170.607635L531.800049,171.830048z"/>
    <path transform="matrix(-1,0,0,1,0,0)" style="stroke:none;fill:#0000ff;fill-rule:evenodd" d="M535.235596,173.983856L535.235596,176.86618L534.779785,176.86618L534.779785,174.495087L533.465088,174.495087L533.465088,176.631561L533.011963,176.631561L533.011963,174.495087L531.829102,174.495087L531.829102,176.776581L531.373291,176.776581L531.373291,173.983856L535.235596,173.983856z"/>
    <path transform="matrix(-1,0,0,1,0,0)" style="stroke:none;fill:#0000ff;fill-rule:evenodd" d="M535.235596,181.214081L535.235596,184.096405L534.779785,184.096405L534.779785,181.725067L533.465088,181.725067L533.465088,183.861786L533.011963,183.861786L533.011963,181.725067L531.829102,181.725067L531.829102,184.006805L531.373291,184.006805L531.373291,181.214081L535.235596,181.214081z"/>
    <path transform="matrix(-1,0,0,1,0,0)" style="stroke:none;fill:#0000ff;fill-rule:evenodd" d="M531.829102,184.528778L531.829102,185.801239L535.235596,185.801239L535.235596,186.312469L531.829102,186.312469L531.829102,187.590057L531.373291,187.590057L531.373291,184.528778L531.829102,184.528778z"/>
    <path transform="matrix(-1,0,0,1,0,0)" style="stroke:none;fill:#0000ff;fill-rule:evenodd" d="M531.3172,149.312576C531.384827,148.460587,532.053162,147.779037,532.903625,147.694656C533.550964,147.568954,534.220703,147.738495,534.730286,148.157059C535.415222,148.820038,535.502197,149.887024,534.933655,150.652176C534.530945,151.124222,533.933411,151.383926,533.313538,151.356277C532.786621,151.375412,532.271606,151.196396,531.870178,150.854568C531.455017,150.45517,531.250488,149.884781,531.3172,149.312576zM531.760803,149.701004L531.79718,149.877762C531.943542,150.366333,532.363708,150.723526,532.869446,150.789383C533.331787,150.888565,533.814026,150.828705,534.238098,150.619461C534.721313,150.340759,534.966614,149.779343,534.842834,149.235428C534.723511,148.6819,534.260315,148.268677,533.696838,148.212967C533.235046,148.132004,532.759094,148.200897,532.339172,148.4095C531.908142,148.687988,531.681519,149.194,531.760803,149.701004z"/>
    <path transform="matrix(-1,0,0,1,0,0)" style="stroke:none;fill:#0000ff;fill-rule:evenodd" d="M531.325989,153.451981C531.384827,152.788605,531.8302,152.222214,532.460999,152.008621C533.229004,151.746155,534.075989,151.867111,534.739807,152.334061C535.061096,152.597748,535.259827,152.981964,535.289368,153.396561C535.346375,153.771362,535.287048,154.154663,535.119446,154.494705C534.882507,154.907028,534.480286,155.197815,534.014465,155.293533L533.885315,154.782303L534.114075,154.717606C534.69519,154.521912,535.011047,153.895111,534.822571,153.3116C534.71167,152.89183,534.371155,152.571625,533.945374,152.486649C533.420837,152.343765,532.863403,152.38327,532.364319,152.598709C531.963196,152.81131,531.722656,153.238235,531.748596,153.691483C531.723022,154.108917,531.969421,154.495972,532.358459,154.64949L532.554749,154.724442L532.43634,155.227615C531.936462,155.103897,531.537598,154.727539,531.385071,154.235672C531.313843,153.980896,531.293762,153.714569,531.325989,153.451981z"/>
    <path transform="matrix(-1,0,0,1,0,0)" style="stroke:none;fill:#0000ff;fill-rule:evenodd" d="M535.239563,144.775223L535.239563,147.188553L534.783752,147.188553L534.783752,145.286453L531.377258,145.286453L531.377258,144.775223L535.239563,144.775223z"/>
    <path transform="matrix(-1,0,0,1,0,0)" style="stroke:none;fill:#0000ff;fill-rule:evenodd" d="M535.239563,155.487137L535.239563,156.029861L534.069641,156.454178L534.069641,158.069168L535.239563,158.519608L535.239563,159.101883L531.377258,157.521072L531.377258,156.970535L535.239563,155.487137zM531.9505,157.284744L532.139954,157.347244C532.647156,157.528259,533.151367,157.716049,533.653381,157.910965L533.653381,156.601639L532.520569,157.025711C532.280579,157.114334,532.033936,157.18396,531.78302,157.233963L531.9505,157.284744z"/>
    <path transform="matrix(-1,0,0,1,0,0)" style="stroke:none;fill:#0000ff;fill-rule:evenodd" d="M535.239563,159.505447L535.239563,161.918777L534.783752,161.918777L534.783752,160.016434L531.377258,160.016434L531.377258,159.505447L535.239563,159.505447z"/>
</svg>
