<?xml version="1.0" encoding="UTF-8"?>
<svg xmlns="http://www.w3.org/2000/svg" xmlns:xlink="http://www.w3.org/1999/xlink" width="220.814mm" height="120.241mm" viewBox="-301.852417 23.161909 220.813950 120.241013">
    <path transform="matrix(0,-1,-1,-0,-58.552422,74.31192)" style="stroke:#ff0000;stroke-width:0.05mm;fill:none" d="M-10.15,243.255997L-10.15,240.300003L-16,240.300003L-16,243.255997L-16.044001,243.300003L-22.106001,243.300003L-22.15,243.255997L-22.15,240.300003L-28,240.300003L-28,243.255997L-28.044001,243.300003L-34.105999,243.300003L-34.150002,243.255997L-34.150002,240.300003L-40,240.300003L-40,243.255997L-40.043999,243.300003L-50.105999,243.300003L-50.150002,243.255997L-50.150002,238.194L-50.105999,238.149994L-47.150002,238.149994L-47.150002,232.300003L-50.105999,232.300003L-50.150002,232.255997L-50.150002,226.194L-50.105999,226.149994L-47.150002,226.149994L-47.150002,220.300003L-50.105999,220.300003L-50.150002,220.255997L-50.150002,214.194L-50.105999,214.149994L-47.150002,214.149994L-47.150002,208.300003L-50.105999,208.300003L-50.150002,208.255997L-50.150002,203.194L-50.105999,203.149994L-40.043999,203.149994L-40,203.194L-40,206.149994L-34.150002,206.149994L-34.150002,203.194L-34.105999,203.149994L-28.044001,203.149994L-28,203.194L-28,206.149994L-22.15,206.149994L-22.15,203.194L-22.106001,203.149994L-16.044001,203.149994L-16,203.194L-16,206.149994L-10.15,206.149994L-10.15,203.194L-10.106,203.149994L-0.044,203.149994L0,203.194L0,208.255997L-0.044,208.300003L-3,208.300003L-3,214.149994L-0.044,214.149994L0,214.194L0,220.255997L-0.044,220.300003L-3,220.300003L-3,226.149994L-0.044,226.149994L0,226.194L0,232.255997L-0.044,232.300003L-3,232.300003L-3,238.149994L-0.044,238.149994L0,238.194L0,243.255997L-0.044,243.300003L-10.106,243.300003L-10.15,243.255997z"/>
    <path transform="matrix(-1,0,0,1,-307.488464,23.252914)" style="stroke:#ff0000;stroke-width:0.05mm;fill:none" d="M-192.449997,120.106003L-192.449997,117.150002L-198.300003,117.150002L-198.300003,120.106003L-198.343994,120.150002L-204.406006,120.150002L-204.449997,120.106003L-204.449997,117.150002L-210.300003,117.150002L-210.300003,120.106003L-210.343994,120.150002L-216.406006,120.150002L-216.449997,120.106003L-216.449997,117.150002L-223.406006,117.150002L-223.449997,117.106003L-223.449997,111.150002L-226.406006,111.150002L-226.449997,111.106003L-226.449997,105.043999L-226.406006,105L-223.449997,105L-223.449997,99.150002L-226.406006,99.150002L-226.449997,99.106003L-226.449997,93.043999L-226.406006,93L-223.449997,93L-223.449997,87.150002L-226.406006,87.150002L-226.449997,87.106003L-226.449997,81.043999L-226.406006,81L-223.449997,81L-223.449997,75.150002L-226.406006,75.150002L-226.449997,75.106003L-226.449997,69.043999L-226.406006,69L-223.449997,69L-223.449997,63.150002L-226.406006,63.150002L-226.449997,63.105999L-226.449997,57.043999L-226.406006,57L-223.449997,57L-223.449997,51.150002L-226.406006,51.150002L-226.449997,51.105999L-226.449997,45.043999L-226.406006,45L-223.449997,45L-223.449997,39.150002L-226.406006,39.150002L-226.449997,39.105999L-226.449997,33.043999L-226.406006,33L-223.449997,33L-223.449997,27.15L-226.406006,27.15L-226.449997,27.106001L-226.449997,21.044001L-226.406006,21L-223.449997,21L-223.449997,15.15L-226.406006,15.15L-226.449997,15.106L-226.449997,9.044L-226.406006,9L-223.449997,9L-223.449997,3.044L-223.406006,3L-216.449997,3L-216.449997,0.044L-216.406006,0L-210.343994,0L-210.300003,0.044L-210.300003,3L-204.449997,3L-204.449997,0.044L-204.406006,0L-198.343994,0L-198.300003,0.044L-198.300003,3L-192.449997,3L-192.449997,0.044L-192.406006,0L-186.343994,0L-186.300003,0.044L-186.300003,3L-179.343994,3L-179.300003,3.044L-179.300003,9L-176.343994,9L-176.300003,9.044L-176.300003,15.106L-176.343994,15.15L-179.300003,15.15L-179.300003,21L-176.343994,21L-176.300003,21.044001L-176.300003,27.106001L-176.343994,27.15L-179.300003,27.15L-179.300003,33L-176.343994,33L-176.300003,33.043999L-176.300003,39.105999L-176.343994,39.150002L-179.300003,39.150002L-179.300003,45L-176.343994,45L-176.300003,45.043999L-176.300003,51.105999L-176.343994,51.150002L-179.300003,51.150002L-179.300003,57L-176.343994,57L-176.300003,57.043999L-176.300003,63.105999L-176.343994,63.150002L-179.300003,63.150002L-179.300003,69L-176.343994,69L-176.300003,69.043999L-176.300003,75.106003L-176.343994,75.150002L-179.300003,75.150002L-179.300003,81L-176.343994,81L-176.300003,81.043999L-176.300003,87.106003L-176.343994,87.150002L-179.300003,87.150002L-179.300003,93L-176.343994,93L-176.300003,93.043999L-176.300003,99.106003L-176.343994,99.150002L-179.300003,99.150002L-179.300003,105L-176.343994,105L-176.300003,105.043999L-176.300003,111.106003L-176.343994,111.150002L-179.300003,111.150002L-179.300003,117.106003L-179.343994,117.150002L-186.300003,117.150002L-186.300003,120.106003L-186.343994,120.150002L-192.406006,120.150002L-192.449997,120.106003z"/>
    <path transform="matrix(0,-1,-1,-0,-21.402222,-29.973076)" style="stroke:#ff0000;stroke-width:0.05mm;fill:none" d="M-62.299999,200.106003L-62.299999,197.149994L-68.150002,197.149994L-68.150002,200.106003L-68.194,200.149994L-74.255997,200.149994L-74.300003,200.106003L-74.300003,197.149994L-80.150002,197.149994L-80.150002,200.106003L-80.194,200.149994L-86.255997,200.149994L-86.300003,200.106003L-86.300003,197.149994L-92.150002,197.149994L-92.150002,200.106003L-92.194,200.149994L-98.255997,200.149994L-98.300003,200.106003L-98.300003,197.149994L-104.150002,197.149994L-104.150002,200.106003L-104.194,200.149994L-110.255997,200.149994L-110.300003,200.106003L-110.300003,197.149994L-116.150002,197.149994L-116.150002,200.106003L-116.194,200.149994L-122.255997,200.149994L-122.300003,200.106003L-122.300003,197.149994L-128.149994,197.149994L-128.149994,200.106003L-128.194,200.149994L-134.255997,200.149994L-134.300003,200.106003L-134.300003,197.149994L-140.149994,197.149994L-140.149994,200.106003L-140.194,200.149994L-146.255997,200.149994L-146.300003,200.106003L-146.300003,197.149994L-152.149994,197.149994L-152.149994,200.106003L-152.194,200.149994L-158.255997,200.149994L-158.300003,200.106003L-158.300003,197.149994L-164.149994,197.149994L-164.149994,200.106003L-164.194,200.149994L-170.255997,200.149994L-170.300003,200.106003L-170.300003,195.149994L-173.255997,195.149994L-173.300003,195.106003L-173.300003,189.044006L-173.255997,189L-170.300003,189L-170.300003,183.149994L-173.255997,183.149994L-173.300003,183.106003L-173.300003,177.044006L-173.255997,177L-170.300003,177L-170.300003,171.149994L-173.255997,171.149994L-173.300003,171.106003L-173.300003,165.044006L-173.255997,165L-170.300003,165L-170.300003,160.044006L-170.255997,160L-164.194,160L-164.149994,160.044006L-164.149994,163L-158.300003,163L-158.300003,160.044006L-158.255997,160L-152.194,160L-152.149994,160.044006L-152.149994,163L-146.300003,163L-146.300003,160.044006L-146.255997,160L-140.194,160L-140.149994,160.044006L-140.149994,163L-134.300003,163L-134.300003,160.044006L-134.255997,160L-128.194,160L-128.149994,160.044006L-128.149994,163L-122.300003,163L-122.300003,160.044006L-122.255997,160L-116.194,160L-116.150002,160.044006L-116.150002,163L-110.300003,163L-110.300003,160.044006L-110.255997,160L-104.194,160L-104.150002,160.044006L-104.150002,163L-98.300003,163L-98.300003,160.044006L-98.255997,160L-92.194,160L-92.150002,160.044006L-92.150002,163L-86.300003,163L-86.300003,160.044006L-86.255997,160L-80.194,160L-80.150002,160.044006L-80.150002,163L-74.300003,163L-74.300003,160.044006L-74.255997,160L-68.194,160L-68.150002,160.044006L-68.150002,163L-62.299999,163L-62.299999,160.044006L-62.256001,160L-56.194,160L-56.150002,160.044006L-56.150002,165L-53.194,165L-53.150002,165.044006L-53.150002,171.106003L-53.194,171.149994L-56.150002,171.149994L-56.150002,177L-53.194,177L-53.150002,177.044006L-53.150002,183.106003L-53.194,183.149994L-56.150002,183.149994L-56.150002,189L-53.194,189L-53.150002,189.044006L-53.150002,195.106003L-53.194,195.149994L-56.150002,195.149994L-56.150002,200.106003L-56.194,200.149994L-62.256001,200.149994L-62.299999,200.106003z"/>
    <circle transform="matrix(-1,0,0,1,-151.188446,53.252426)" style="stroke:#ff0000;stroke-width:0.05mm;fill:none" r="6.349994" cx="0" cy="0"/>
    <rect transform="matrix(-1,0,0,1,-171.33844,130.902435)" style="stroke:#0000ff;stroke-width:0.05mm;fill:none" x="-10" y="-12.5" width="20" height="25"/>
    <rect transform="matrix(-1,0,0,1,-171.33844,105.90242)" style="stroke:#0000ff;stroke-width:0.05mm;fill:none" x="-10" y="-12.5" width="20" height="25"/>
    <circle transform="matrix(-1,0,0,1,-161.33844,118.40242)" style="stroke:#ff0000;stroke-width:0.05mm;fill:none" r="6.349994" cx="0" cy="0"/>
    <path transform="matrix(-1,0,0,1,-357.638947,-99.897575)" style="stroke:#ff0000;stroke-width:0.05mm;fill:none" d="M-192.449997,243.255997L-192.449997,240.300003L-198.300003,240.300003L-198.300003,243.255997L-198.343994,243.300003L-204.406006,243.300003L-204.449997,243.255997L-204.449997,240.300003L-210.300003,240.300003L-210.300003,243.255997L-210.343994,243.300003L-216.406006,243.300003L-216.449997,243.255997L-216.449997,240.300003L-223.406006,240.300003L-223.449997,240.255997L-223.449997,234.300003L-226.406006,234.300003L-226.449997,234.255997L-226.449997,228.194L-226.406006,228.149994L-223.449997,228.149994L-223.449997,222.300003L-226.406006,222.300003L-226.449997,222.255997L-226.449997,216.194L-226.406006,216.149994L-223.449997,216.149994L-223.449997,210.300003L-226.406006,210.300003L-226.449997,210.255997L-226.449997,204.194L-226.406006,204.149994L-223.449997,204.149994L-223.449997,198.300003L-226.406006,198.300003L-226.449997,198.255997L-226.449997,192.194L-226.406006,192.149994L-223.449997,192.149994L-223.449997,186.300003L-226.406006,186.300003L-226.449997,186.255997L-226.449997,180.194L-226.406006,180.149994L-223.449997,180.149994L-223.449997,174.300003L-226.406006,174.300003L-226.449997,174.255997L-226.449997,168.194L-226.406006,168.149994L-223.449997,168.149994L-223.449997,162.300003L-226.406006,162.300003L-226.449997,162.255997L-226.449997,156.194L-226.406006,156.149994L-223.449997,156.149994L-223.449997,150.300003L-226.406006,150.300003L-226.449997,150.255997L-226.449997,144.194L-226.406006,144.149994L-223.449997,144.149994L-223.449997,138.300003L-226.406006,138.300003L-226.449997,138.255997L-226.449997,132.194L-226.406006,132.149994L-223.449997,132.149994L-223.449997,126.194L-223.406006,126.150002L-216.449997,126.150002L-216.449997,123.194L-216.406006,123.150002L-210.343994,123.150002L-210.300003,123.194L-210.300003,126.150002L-204.449997,126.150002L-204.449997,123.194L-204.406006,123.150002L-198.343994,123.150002L-198.300003,123.194L-198.300003,126.150002L-192.449997,126.150002L-192.449997,123.194L-192.406006,123.150002L-186.343994,123.150002L-186.300003,123.194L-186.300003,126.150002L-179.343994,126.150002L-179.300003,126.194L-179.300003,132.149994L-176.343994,132.149994L-176.300003,132.194L-176.300003,138.255997L-176.343994,138.300003L-179.300003,138.300003L-179.300003,144.149994L-176.343994,144.149994L-176.300003,144.194L-176.300003,150.255997L-176.343994,150.300003L-179.300003,150.300003L-179.300003,156.149994L-176.343994,156.149994L-176.300003,156.194L-176.300003,162.255997L-176.343994,162.300003L-179.300003,162.300003L-179.300003,168.149994L-176.343994,168.149994L-176.300003,168.194L-176.300003,174.255997L-176.343994,174.300003L-179.300003,174.300003L-179.300003,180.149994L-176.343994,180.149994L-176.300003,180.194L-176.300003,186.255997L-176.343994,186.300003L-179.300003,186.300003L-179.300003,192.149994L-176.343994,192.149994L-176.300003,192.194L-176.300003,198.255997L-176.343994,198.300003L-179.300003,198.300003L-179.300003,204.149994L-176.343994,204.149994L-176.300003,204.194L-176.300003,210.255997L-176.343994,210.300003L-179.300003,210.300003L-179.300003,216.149994L-176.343994,216.149994L-176.300003,216.194L-176.300003,222.255997L-176.343994,222.300003L-179.300003,222.300003L-179.300003,228.149994L-176.343994,228.149994L-176.300003,228.194L-176.300003,234.255997L-176.343994,234.300003L-179.300003,234.300003L-179.300003,240.255997L-179.343994,240.300003L-186.300003,240.300003L-186.300003,243.255997L-186.343994,243.300003L-192.406006,243.300003L-192.449997,243.255997z"/>
    <rect transform="matrix(-1,0,0,1,-141.188446,38.252426)" style="stroke:#0000ff;stroke-width:0.05mm;fill:none" x="-10" y="-15" width="20" height="30"/>
    <circle transform="matrix(-1,0,0,1,-161.33844,93.40242)" style="stroke:#ff0000;stroke-width:0.05mm;fill:none" r="6.35" cx="0" cy="0"/>
    <rect transform="matrix(-1,0,0,1,-291.813416,29.161922)" style="stroke:#0000ff;stroke-width:0.05mm;fill:none" x="-10.037495" y="-5" width="20.074989" height="10"/>
    <path transform="matrix(0,-1,-1,-0,-101.702423,24.161922)" style="stroke:#ff0000;stroke-width:0.05mm;fill:none" d="M-10.15,200.106003L-10.15,197.149994L-16,197.149994L-16,200.106003L-16.044001,200.149994L-22.106001,200.149994L-22.15,200.106003L-22.15,197.149994L-28,197.149994L-28,200.106003L-28.044001,200.149994L-34.105999,200.149994L-34.150002,200.106003L-34.150002,197.149994L-40,197.149994L-40,200.106003L-40.043999,200.149994L-50.105999,200.149994L-50.150002,200.106003L-50.150002,195.044006L-50.105999,195L-47.150002,195L-47.150002,189.149994L-50.105999,189.149994L-50.150002,189.106003L-50.150002,183.044006L-50.105999,183L-47.150002,183L-47.150002,177.149994L-50.105999,177.149994L-50.150002,177.106003L-50.150002,171.044006L-50.105999,171L-47.150002,171L-47.150002,165.149994L-50.105999,165.149994L-50.150002,165.106003L-50.150002,160.044006L-50.105999,160L-40.043999,160L-40,160.044006L-40,163L-34.150002,163L-34.150002,160.044006L-34.105999,160L-28.044001,160L-28,160.044006L-28,163L-22.15,163L-22.15,160.044006L-22.106001,160L-16.044001,160L-16,160.044006L-16,163L-10.15,163L-10.15,160.044006L-10.106,160L-0.044,160L0,160.044006L0,165.106003L-0.044,165.149994L-3,165.149994L-3,171L-0.044,171L0,171.044006L0,177.106003L-0.044,177.149994L-3,177.149994L-3,183L-0.044,183L0,183.044006L0,189.106003L-0.044,189.149994L-3,189.149994L-3,195L-0.044,195L0,195.044006L0,200.106003L-0.044,200.149994L-10.106,200.149994L-10.15,200.106003z"/>
    <rect transform="matrix(-1,0,0,1,-271.739929,29.161922)" style="stroke:#0000ff;stroke-width:0.05mm;fill:none" x="-10.037495" y="-5" width="20.074989" height="10"/>
    <rect transform="matrix(-1,0,0,1,-281.808411,50.842926)" style="stroke:#ff0000;stroke-width:0.05mm;fill:none" x="-8.049999" y="-6.468634" width="16.099998" height="12.937267"/>
    <circle transform="matrix(-1,0,0,1,-281.777405,34.161922)" style="stroke:#ff0000;stroke-width:0.05mm;fill:none" r="4" cx="0" cy="0"/>
    <rect transform="matrix(0,-1,-1,-0,-283.304413,66.81192)" style="stroke:#0000ff;stroke-width:0.05mm;fill:none" x="-7.5" y="-11.5" width="15" height="23"/>
    <rect transform="matrix(-1,0,0,1,-295.852417,52.885925)" style="stroke:#0000ff;stroke-width:0.05mm;fill:none" x="-6" y="-11.5" width="12" height="23"/>
    <rect transform="matrix(-1,0,0,1,-267.701904,52.801926)" style="stroke:#0000ff;stroke-width:0.05mm;fill:none" x="-6" y="-11.5" width="12" height="23"/>
    <rect transform="matrix(-1,0,0,1,-257.202454,51.161919)" style="stroke:#0000ff;stroke-width:0.05mm;fill:none" x="-4.5" y="-14.999998" width="9" height="29.999996"/>
    <circle transform="matrix(-1,0,0,1,-252.702438,66.161919)" style="stroke:#ff0000;stroke-width:0.05mm;fill:none" r="1.5" cx="0" cy="0"/>
    <circle transform="matrix(-1,0,0,1,-252.702438,36.161919)" style="stroke:#ff0000;stroke-width:0.05mm;fill:none" r="1.5" cx="0" cy="0"/>
    <rect transform="matrix(-1,0,0,1,-257.202454,30.161919)" style="stroke:#0000ff;stroke-width:0.05mm;fill:none" x="-4.5" y="-6" width="9" height="12"/>
    <rect transform="matrix(-1,0,0,1,-226.053421,51.161919)" style="stroke:#0000ff;stroke-width:0.05mm;fill:none" x="-4.5" y="-14.999998" width="9" height="29.999996"/>
    <rect transform="matrix(-1,0,0,1,-226.053421,30.161919)" style="stroke:#0000ff;stroke-width:0.05mm;fill:none" x="-4.5" y="-6" width="9" height="12"/>
    <path transform="matrix(0,-1,-1,-0,-18.402229,-29.988081)" style="stroke:#ff0000;stroke-width:0.05mm;fill:none" d="M-62.299999,243.255997L-62.299999,240.300003L-68.150002,240.300003L-68.150002,243.255997L-68.194,243.300003L-74.255997,243.300003L-74.300003,243.255997L-74.300003,240.300003L-80.150002,240.300003L-80.150002,243.255997L-80.194,243.300003L-86.255997,243.300003L-86.300003,243.255997L-86.300003,240.300003L-92.150002,240.300003L-92.150002,243.255997L-92.194,243.300003L-98.255997,243.300003L-98.300003,243.255997L-98.300003,240.300003L-104.150002,240.300003L-104.150002,243.255997L-104.194,243.300003L-110.255997,243.300003L-110.300003,243.255997L-110.300003,240.300003L-116.150002,240.300003L-116.150002,243.255997L-116.194,243.300003L-122.255997,243.300003L-122.300003,243.255997L-122.300003,240.300003L-128.149994,240.300003L-128.149994,243.255997L-128.194,243.300003L-134.255997,243.300003L-134.300003,243.255997L-134.300003,240.300003L-140.149994,240.300003L-140.149994,243.255997L-140.194,243.300003L-146.255997,243.300003L-146.300003,243.255997L-146.300003,240.300003L-152.149994,240.300003L-152.149994,243.255997L-152.194,243.300003L-158.255997,243.300003L-158.300003,243.255997L-158.300003,240.300003L-164.149994,240.300003L-164.149994,243.255997L-164.194,243.300003L-170.255997,243.300003L-170.300003,243.255997L-170.300003,238.300003L-173.255997,238.300003L-173.300003,238.255997L-173.300003,232.194L-173.255997,232.149994L-170.300003,232.149994L-170.300003,226.300003L-173.255997,226.300003L-173.300003,226.255997L-173.300003,220.194L-173.255997,220.149994L-170.300003,220.149994L-170.300003,214.300003L-173.255997,214.300003L-173.300003,214.255997L-173.300003,208.194L-173.255997,208.149994L-170.300003,208.149994L-170.300003,203.194L-170.255997,203.149994L-164.194,203.149994L-164.149994,203.194L-164.149994,206.149994L-158.300003,206.149994L-158.300003,203.194L-158.255997,203.149994L-152.194,203.149994L-152.149994,203.194L-152.149994,206.149994L-146.300003,206.149994L-146.300003,203.194L-146.255997,203.149994L-140.194,203.149994L-140.149994,203.194L-140.149994,206.149994L-134.300003,206.149994L-134.300003,203.194L-134.255997,203.149994L-128.194,203.149994L-128.149994,203.194L-128.149994,206.149994L-122.300003,206.149994L-122.300003,203.194L-122.255997,203.149994L-116.194,203.149994L-116.150002,203.194L-116.150002,206.149994L-110.300003,206.149994L-110.300003,203.194L-110.255997,203.149994L-104.194,203.149994L-104.150002,203.194L-104.150002,206.149994L-98.300003,206.149994L-98.300003,203.194L-98.255997,203.149994L-92.194,203.149994L-92.150002,203.194L-92.150002,206.149994L-86.300003,206.149994L-86.300003,203.194L-86.255997,203.149994L-80.194,203.149994L-80.150002,203.194L-80.150002,206.149994L-74.300003,206.149994L-74.300003,203.194L-74.255997,203.149994L-68.194,203.149994L-68.150002,203.194L-68.150002,206.149994L-62.299999,206.149994L-62.299999,203.194L-62.256001,203.149994L-56.194,203.149994L-56.150002,203.194L-56.150002,208.149994L-53.194,208.149994L-53.150002,208.194L-53.150002,214.255997L-53.194,214.300003L-56.150002,214.300003L-56.150002,220.149994L-53.194,220.149994L-53.150002,220.194L-53.150002,226.255997L-53.194,226.300003L-56.150002,226.300003L-56.150002,232.149994L-53.194,232.149994L-53.150002,232.194L-53.150002,238.255997L-53.194,238.300003L-56.150002,238.300003L-56.150002,243.255997L-56.194,243.300003L-62.256001,243.300003L-62.299999,243.255997z"/>
    <circle transform="matrix(-1,0,0,1,-230.553421,66.161919)" style="stroke:#ff0000;stroke-width:0.05mm;fill:none" r="1.5" cx="0" cy="0"/>
    <circle transform="matrix(-1,0,0,1,-230.553421,36.161919)" style="stroke:#ff0000;stroke-width:0.05mm;fill:none" r="1.5" cx="0" cy="0"/>
    <path transform="matrix(-1,0,0,1,0,0)" style="stroke:none;fill:#00e000;fill-rule:evenodd" d="M151.572861,121.205048C151.560867,122.100227,150.835739,122.82373,149.940536,122.83371C149.50679,122.883965,149.06781,122.800552,148.682724,122.594696C148.201675,122.310715,147.90213,121.797501,147.891464,121.238983C147.830536,120.799339,147.904282,120.351242,148.10289,119.954315C148.384018,119.468719,148.896286,119.162949,149.457138,119.145966C149.932968,119.076141,150.418839,119.167259,150.837021,119.404755C151.292892,119.713196,151.568069,120.225945,151.573105,120.776337C151.583282,120.91906,151.583206,121.062332,151.572861,121.205048zM150.728622,120.830292L150.684921,120.682831C150.55835,120.422752,150.296387,120.256104,150.007187,120.251678C149.694122,120.210915,149.3759,120.24411,149.077988,120.348602C148.835938,120.465523,148.689224,120.717598,148.707138,120.985809C148.691177,121.322983,148.925522,121.621002,149.256943,121.685028C149.625229,121.777847,150.013184,121.755692,150.368515,121.621552C150.658264,121.474083,150.807755,121.145638,150.728622,120.830292z"/>
    <path transform="matrix(-1,0,0,1,0,0)" style="stroke:none;fill:#00e000;fill-rule:evenodd" d="M147.940536,126.587616L147.940536,124.94455C147.932953,124.626938,148.003021,124.312202,148.144638,124.027802C148.428635,123.56955,148.93248,123.294037,149.471542,123.302216C149.850708,123.267059,150.233078,123.311462,150.594101,123.432587C151.139481,123.622795,151.506851,124.135773,151.511337,124.713348L151.519638,124.94455L151.519638,126.587616L147.940536,126.587616zM150.709091,125.20578L150.695908,125.006073C150.683441,124.726852,150.475464,124.494545,150.199326,124.451385C149.835114,124.37233,149.457138,124.384911,149.098984,124.488007C148.873611,124.578957,148.734726,124.807877,148.758163,125.049774C148.752472,125.193672,148.750916,125.337677,148.753525,125.481659L150.709091,125.481659L150.709091,125.20578z"/>
    <path transform="matrix(-1,0,0,1,0,0)" style="stroke:none;fill:#00e000;fill-rule:evenodd" d="M149.518661,115.437225L151.519638,115.992157L151.519638,117.038788L149.515976,117.592255L151.519638,117.970428L151.519638,119.020966L147.940536,118.224579L147.940536,117.140106L150.193954,116.514862L147.940536,115.886932L147.940536,114.80246L151.519638,114.013641L151.519638,115.058563L149.518661,115.437225z"/>
    <path transform="matrix(-1,0,0,1,0,0)" style="stroke:none;fill:#00e000;fill-rule:evenodd" d="M149.539413,111.264618L151.519638,112.612274L151.519638,113.644989L147.940536,113.644989L147.940536,112.60495L149.905624,112.60495L147.940536,111.264618L147.940536,110.222137L151.519638,110.222137L151.519638,111.264618L149.539413,111.264618z"/>
    <path transform="matrix(-1,0,0,1,0,0)" style="stroke:none;fill:#00e000;fill-rule:evenodd" d="M146.895889,100.963562C146.90007,101.338753,146.755753,101.700577,146.494522,101.96991C146.167923,102.272995,145.67308,102.304031,145.311172,102.044128C145.063705,101.823761,144.891891,101.530975,144.820206,101.207458C144.771561,101.028236,144.725464,100.848213,144.682022,100.667664L144.630997,100.506042C144.615875,100.407532,144.56369,100.317978,144.483704,100.258583C144.403732,100.199188,144.302917,100.175125,144.204239,100.189148C144.002991,100.260544,143.878998,100.462753,143.906631,100.6745C143.902222,100.838943,143.963242,100.998833,144.077698,101.116966C144.192169,101.2351,144.350037,101.301155,144.514542,101.301941L144.448624,102.354187C144.019455,102.339775,143.626144,102.111122,143.40126,101.7453C143.148087,101.134506,143.131134,100.452393,143.353653,99.829773C143.571365,99.295853,144.148468,99.003082,144.707901,99.142761C145.06044,99.253265,145.333725,99.533615,145.435196,99.888855C145.554077,100.248657,145.654236,100.614388,145.735245,100.984558L145.768692,101.063904C145.791901,101.11927,145.836899,101.162804,145.893265,101.183434C145.949631,101.204063,146.0121,101.199852,146.065567,101.172546C146.216187,101.065666,146.282578,100.875305,146.231094,100.697937C146.206818,100.461906,146.013733,100.278679,145.776749,100.266785L145.837784,99.224304C146.15773,99.242432,146.454071,99.398834,146.649551,99.652771C146.838974,99.967422,146.927979,100.332382,146.904678,100.698914L146.895889,100.963562z"/>
    <path transform="matrix(-1,0,0,1,0,0)" style="stroke:none;fill:#00e000;fill-rule:evenodd" d="M145.959854,98.812683L145.959854,97.684753L143.264542,97.684753L143.264542,96.578796L145.959854,96.578796L145.959854,95.450867L146.843643,95.450867L146.843643,98.812683L145.959854,98.812683z"/>
    <path transform="matrix(-1,0,0,1,0,0)" style="stroke:none;fill:#00e000;fill-rule:evenodd" d="M143.264542,95.670105L143.264542,94.540955L143.855362,94.366394L143.855362,93.110779L143.264542,92.931824L143.264542,91.773621L146.843643,93.118591L146.843643,94.32489L143.264542,95.670105zM144.629288,93.340271L144.629288,94.12616L145.915909,93.735291L144.629288,93.340271z"/>
    <path transform="matrix(-1,0,0,1,0,0)" style="stroke:none;fill:#00e000;fill-rule:evenodd" d="M143.264542,91.396667L143.264542,90.285828L144.717178,90.285828C144.749222,90.034935,144.598526,89.796089,144.358292,89.71698L143.264542,89.125671L143.264542,87.87616L144.301651,88.41156C144.561554,88.532661,144.75856,88.757767,144.844131,89.031433L144.907608,88.810974C145.095688,88.303871,145.652603,88.037033,146.165665,88.208191C146.558807,88.325989,146.826736,88.690628,146.821671,89.101013C146.837158,89.251305,146.844498,89.402321,146.843643,89.553406L146.843643,91.396667L143.264542,91.396667zM146.120987,89.799988L146.115128,89.660583C146.125854,89.561165,146.09462,89.461189,146.026886,89.387695C145.959167,89.314209,145.862061,89.27494,145.7621,89.277527C145.670731,89.278992,145.583435,89.316132,145.519516,89.381424C145.455597,89.446716,145.420319,89.534782,145.420792,89.62616C145.405426,89.689568,145.396271,89.754341,145.393448,89.819519L145.393448,90.285828L146.120987,90.285828L146.120987,89.799988z"/>
    <path transform="matrix(-1,0,0,1,0,0)" style="stroke:none;fill:#00e000;fill-rule:evenodd" d="M145.959854,87.812683L145.959854,86.684753L143.264542,86.684753L143.264542,85.578796L145.959854,85.578796L145.959854,84.450867L146.843643,84.450867L146.843643,87.812683L145.959854,87.812683z"/>
    <path transform="matrix(-1,0,0,1,0,0)" style="stroke:none;fill:#00e000;fill-rule:evenodd" d="M152.242889,103.470367C152.247009,103.845619,152.102707,104.207504,151.841522,104.476959C151.514801,104.779846,151.020065,104.810768,150.658173,104.550934C150.410645,104.330711,150.238815,104.037979,150.167206,103.714508C150.118637,103.535248,150.072556,103.355263,150.029022,103.174713L149.977997,103.012848C149.962891,102.914337,149.910736,102.824776,149.830734,102.765419C149.750732,102.706062,149.649902,102.682098,149.551239,102.696198C149.350052,102.767532,149.226059,102.969635,149.253632,103.181305C149.249115,103.345772,149.310165,103.505684,149.424637,103.62384C149.539108,103.741989,149.697021,103.80806,149.861542,103.808746L149.795624,104.860992C149.36647,104.846764,148.973099,104.618172,148.74826,104.25235C148.495102,103.641464,148.478149,102.959282,148.700653,102.336578C148.918457,101.80275,149.495529,101.510109,150.054901,101.649811C150.407547,101.760124,150.680908,102.04055,150.782196,102.395905C150.901047,102.75563,151.001205,103.121292,151.082245,103.491364L151.115692,103.570709C151.13887,103.626099,151.183868,103.66964,151.24025,103.690269C151.296631,103.710907,151.359116,103.706696,151.412567,103.679352C151.563263,103.572533,151.629684,103.382111,151.578094,103.204742C151.553741,102.968758,151.360687,102.785561,151.123749,102.77359L151.184784,101.73111C151.504654,101.749535,151.800873,101.905884,151.996552,102.159576C152.185898,102.474258,152.274902,102.839195,152.251678,103.205719L152.242889,103.470367z"/>
    <path transform="matrix(-1,0,0,1,0,0)" style="stroke:none;fill:#00e000;fill-rule:evenodd" d="M152.24411,89.048492C152.236679,89.473335,152.065628,89.880112,151.76268,90.177986C151.459732,90.475861,151.050125,90.640038,150.625214,90.640289C150.172363,90.694252,149.713806,90.60273,149.316376,90.379059C148.851059,90.104843,148.563995,89.605682,148.561005,89.065582C148.500122,88.647362,148.572388,88.220482,148.767548,87.845612C148.999481,87.49015,149.366333,87.244789,149.783417,87.166168L150.076385,88.135406L149.916718,88.177643C149.735428,88.214691,149.575134,88.322006,149.476395,88.478409C149.37767,88.634811,149.349731,88.825684,149.394257,89.00528C149.442886,89.264359,149.653839,89.462158,149.915497,89.494049C150.272171,89.574066,150.643631,89.560272,150.993378,89.45401C151.314667,89.331451,151.492828,88.986687,151.406952,88.653717C151.349655,88.414894,151.160965,88.229721,150.921112,88.17691L151.138397,87.200348C151.558029,87.308952,151.909103,87.596779,152.09787,87.986969C152.229355,88.324409,152.279465,88.688065,152.24411,89.048492z"/>
    <path transform="matrix(-1,0,0,1,0,0)" style="stroke:none;fill:#00e000;fill-rule:evenodd" d="M148.550507,83.381989L148.550507,82.879547L152.251678,81.980621L152.251678,82.487946L148.550507,83.381989z"/>
    <path transform="matrix(-1,0,0,1,0,0)" style="stroke:none;fill:#00e000;fill-rule:evenodd" d="M148.611542,101.070709L148.611542,98.053131L149.422089,98.053131L149.422089,99.962311L150.127655,99.962311L150.127655,98.241119L150.857635,98.241119L150.857635,99.962311L151.426483,99.962311L151.426483,98.106842L152.190643,98.106842L152.190643,101.070709L148.611542,101.070709z"/>
    <path transform="matrix(-1,0,0,1,0,0)" style="stroke:none;fill:#00e000;fill-rule:evenodd" d="M148.611542,97.46817L148.611542,94.636139L149.492889,94.636139L149.492889,96.362213L152.190643,96.362213L152.190643,97.46817L148.611542,97.46817z"/>
    <path transform="matrix(-1,0,0,1,0,0)" style="stroke:none;fill:#00e000;fill-rule:evenodd" d="M148.611542,94.120758L148.611542,91.10318L149.422089,91.10318L149.422089,93.01236L150.127655,93.01236L150.127655,91.291168L150.857635,91.291168L150.857635,93.01236L151.426483,93.01236L151.426483,91.156891L152.190643,91.156891L152.190643,94.120758L148.611542,94.120758z"/>
    <path transform="matrix(-1,0,0,1,0,0)" style="stroke:none;fill:#00e000;fill-rule:evenodd" d="M151.306854,86.869781L151.306854,85.741852L148.611542,85.741852L148.611542,84.635895L151.306854,84.635895L151.306854,83.507965L152.190643,83.507965L152.190643,86.869781L151.306854,86.869781z"/>
    <path transform="matrix(-1,0,0,1,0,0)" style="stroke:none;fill:#00e000;fill-rule:evenodd" d="M162.363297,54.515106L162.22316,54.52536C161.927368,54.563175,161.714401,54.828495,161.74147,55.125458C161.713623,55.423683,161.927933,55.690674,162.225113,55.727997L162.363297,55.738251L164.546646,55.738251L164.546646,56.841766L162.414078,56.841766C162.045731,56.852531,161.685364,56.732758,161.396744,56.503632C161.130753,56.278522,160.967102,55.955269,160.94313,55.607635C160.864761,55.159382,160.893112,54.698895,161.025894,54.263641C161.262039,53.715034,161.818008,53.373791,162.414078,53.411591L164.546646,53.411591L164.546646,54.515106L162.363297,54.515106z"/>
    <path transform="matrix(-1,0,0,1,0,0)" style="stroke:none;fill:#00e000;fill-rule:evenodd" d="M160.967545,52.699188L160.967545,51.588348L162.29567,51.588348L162.29567,50.98288C162.280594,50.70237,162.339828,50.422657,162.4673,50.172333C162.673157,49.832211,163.051346,49.635448,163.448013,49.662079C163.748962,49.643147,164.044067,49.751705,164.261002,49.961151C164.468948,50.212799,164.57135,50.535294,164.546646,50.860809L164.546646,52.699188L160.967545,52.699188zM163.819107,51.273407L163.811783,51.130585C163.813416,51.025486,163.772552,50.923992,163.697891,50.850018C163.623215,50.776043,163.521362,50.73613,163.416275,50.738739C163.234955,50.736324,163.078796,50.866371,163.048355,51.045135C163.019714,51.224716,163.010468,51.406792,163.020767,51.588348L163.819107,51.588348L163.819107,51.273407z"/>
</svg>
